%TF.GenerationSoftware,KiCad,Pcbnew,9.0.3*%
%TF.CreationDate,2025-10-01T00:39:15+02:00*%
%TF.ProjectId,PSU,5053552e-6b69-4636-9164-5f7063625858,0*%
%TF.SameCoordinates,Original*%
%TF.FileFunction,Copper,L4,Bot*%
%TF.FilePolarity,Positive*%
%FSLAX46Y46*%
G04 Gerber Fmt 4.6, Leading zero omitted, Abs format (unit mm)*
G04 Created by KiCad (PCBNEW 9.0.3) date 2025-10-01 00:39:15*
%MOMM*%
%LPD*%
G01*
G04 APERTURE LIST*
G04 Aperture macros list*
%AMRoundRect*
0 Rectangle with rounded corners*
0 $1 Rounding radius*
0 $2 $3 $4 $5 $6 $7 $8 $9 X,Y pos of 4 corners*
0 Add a 4 corners polygon primitive as box body*
4,1,4,$2,$3,$4,$5,$6,$7,$8,$9,$2,$3,0*
0 Add four circle primitives for the rounded corners*
1,1,$1+$1,$2,$3*
1,1,$1+$1,$4,$5*
1,1,$1+$1,$6,$7*
1,1,$1+$1,$8,$9*
0 Add four rect primitives between the rounded corners*
20,1,$1+$1,$2,$3,$4,$5,0*
20,1,$1+$1,$4,$5,$6,$7,0*
20,1,$1+$1,$6,$7,$8,$9,0*
20,1,$1+$1,$8,$9,$2,$3,0*%
%AMRotRect*
0 Rectangle, with rotation*
0 The origin of the aperture is its center*
0 $1 length*
0 $2 width*
0 $3 Rotation angle, in degrees counterclockwise*
0 Add horizontal line*
21,1,$1,$2,0,0,$3*%
G04 Aperture macros list end*
%TA.AperFunction,ComponentPad*%
%ADD10C,1.600000*%
%TD*%
%TA.AperFunction,ComponentPad*%
%ADD11C,2.400000*%
%TD*%
%TA.AperFunction,ComponentPad*%
%ADD12C,2.910000*%
%TD*%
%TA.AperFunction,ComponentPad*%
%ADD13O,1.400000X2.000000*%
%TD*%
%TA.AperFunction,ComponentPad*%
%ADD14O,2.500000X1.600000*%
%TD*%
%TA.AperFunction,ComponentPad*%
%ADD15C,2.780000*%
%TD*%
%TA.AperFunction,HeatsinkPad*%
%ADD16O,1.000000X2.100000*%
%TD*%
%TA.AperFunction,HeatsinkPad*%
%ADD17O,1.000000X1.800000*%
%TD*%
%TA.AperFunction,ComponentPad*%
%ADD18RoundRect,0.249999X0.525001X0.525001X-0.525001X0.525001X-0.525001X-0.525001X0.525001X-0.525001X0*%
%TD*%
%TA.AperFunction,ComponentPad*%
%ADD19C,1.550000*%
%TD*%
%TA.AperFunction,ComponentPad*%
%ADD20C,1.800000*%
%TD*%
%TA.AperFunction,ComponentPad*%
%ADD21RoundRect,0.495000X1.155000X-4.255000X1.155000X4.255000X-1.155000X4.255000X-1.155000X-4.255000X0*%
%TD*%
%TA.AperFunction,ComponentPad*%
%ADD22C,7.000000*%
%TD*%
%TA.AperFunction,ComponentPad*%
%ADD23RoundRect,0.505697X1.179959X-4.794303X1.179959X4.794303X-1.179959X4.794303X-1.179959X-4.794303X0*%
%TD*%
%TA.AperFunction,ComponentPad*%
%ADD24C,1.300000*%
%TD*%
%TA.AperFunction,ComponentPad*%
%ADD25C,2.286000*%
%TD*%
%TA.AperFunction,ComponentPad*%
%ADD26RotRect,1.000000X1.000000X315.000000*%
%TD*%
%TA.AperFunction,ComponentPad*%
%ADD27C,1.000000*%
%TD*%
%TA.AperFunction,ViaPad*%
%ADD28C,0.500000*%
%TD*%
%TA.AperFunction,Conductor*%
%ADD29C,0.250000*%
%TD*%
%TA.AperFunction,Conductor*%
%ADD30C,0.150000*%
%TD*%
%TA.AperFunction,Conductor*%
%ADD31C,0.300000*%
%TD*%
%TA.AperFunction,Conductor*%
%ADD32C,0.200000*%
%TD*%
%TA.AperFunction,Conductor*%
%ADD33C,0.100000*%
%TD*%
G04 APERTURE END LIST*
D10*
%TO.P,LED300,1*%
%TO.N,Net-(LED300-Pad1)*%
X67493600Y95500001D03*
%TO.P,LED300,2*%
%TO.N,GND*%
X70033600Y95500001D03*
%TO.P,LED300,3*%
%TO.N,Net-(LED300-Pad3)*%
X67493600Y92960001D03*
%TO.P,LED300,4*%
%TO.N,GND*%
X70033600Y92960001D03*
%TD*%
D11*
%TO.P,IC402,1,Vin(+)*%
%TO.N,/12V conveter + sensor/FUSE*%
X23680000Y69900000D03*
%TO.P,IC402,2,ON/OFF*%
%TO.N,/12V conveter + sensor/ON{slash}OFF*%
X16060000Y69900000D03*
%TO.P,IC402,3,Vin(-)*%
%TO.N,GND*%
X8440000Y69900000D03*
D12*
%TO.P,IC402,4,Vout(-)*%
X8440000Y19100000D03*
D11*
%TO.P,IC402,5,SENSE(-)*%
X12250000Y19100000D03*
%TO.P,IC402,6,TRIM*%
%TO.N,/12V conveter + sensor/TRIM*%
X16060000Y19100000D03*
%TO.P,IC402,7,SENSE(+)*%
%TO.N,+12V*%
X19870000Y19100000D03*
D12*
%TO.P,IC402,8,Vout(+)*%
X23680000Y19100000D03*
%TD*%
D13*
%TO.P,SW401,1,NO*%
%TO.N,/MCU/Power_Button_IN*%
X50000000Y89437500D03*
%TO.P,SW401,2,COM*%
%TO.N,GND*%
X50000000Y92637500D03*
%TO.P,SW401,3,NC*%
%TO.N,Net-(Q405-B)*%
X50000000Y95837500D03*
%TO.P,SW401,4,NO*%
%TO.N,/MCU/Power_Button_IN*%
X53000000Y89437500D03*
%TO.P,SW401,5,COM*%
%TO.N,GND*%
X53000000Y92637500D03*
%TO.P,SW401,6,NC*%
%TO.N,Net-(Q405-B)*%
X53000000Y95837500D03*
D14*
%TO.P,SW401,7,SHLD*%
%TO.N,GND*%
X54750000Y86837500D03*
%TO.P,SW401,8,SHLD*%
X48250000Y98437500D03*
%TD*%
D11*
%TO.P,IC405,1,Vin(+)*%
%TO.N,/??V converter + sensor/FUSE*%
X51365000Y69905000D03*
%TO.P,IC405,2,ON/OFF*%
%TO.N,/??V converter + sensor/ON{slash}OFF*%
X43745000Y69905000D03*
%TO.P,IC405,3,Vin(-)*%
%TO.N,GND*%
X36125000Y69905000D03*
D12*
%TO.P,IC405,4,Vout(-)*%
X36125000Y19105000D03*
D11*
%TO.P,IC405,5,SENSE(-)*%
X39935000Y19105000D03*
%TO.P,IC405,6,TRIM*%
%TO.N,/??V converter + sensor/TRIM*%
X43745000Y19105000D03*
%TO.P,IC405,7,SENSE(+)*%
%TO.N,+24V*%
X47555000Y19105000D03*
D12*
%TO.P,IC405,8,Vout(+)*%
X51365000Y19105000D03*
%TD*%
D15*
%TO.P,IC406,1,Vin(+)*%
%TO.N,/5V converter + sensor/BATTERY_FUSED*%
X78040000Y80140000D03*
%TO.P,IC406,2,ON/OFF*%
%TO.N,GND*%
X70420000Y80140000D03*
%TO.P,IC406,3,Vin(-)*%
X62800000Y80140000D03*
%TO.P,IC406,4,Vout(-)*%
X62800000Y52200000D03*
%TO.P,IC406,5,SENSE(-)*%
X66610000Y52200000D03*
%TO.P,IC406,6,TRIM*%
%TO.N,/5V converter + sensor/TRIM*%
X70420000Y52200000D03*
%TO.P,IC406,7,SENSE(+)*%
%TO.N,/5V converter + sensor/PreJumper*%
X74230000Y52200000D03*
%TO.P,IC406,8,Vout(+)*%
X78040000Y52200000D03*
%TD*%
D16*
%TO.P,J800,S1,SHIELD*%
%TO.N,Net-(J800-SHIELD)*%
X87000000Y93145001D03*
D17*
X87000000Y97325001D03*
D16*
X78360000Y93145001D03*
D17*
X78360000Y97325001D03*
%TD*%
D18*
%TO.P,J200,a1,a1*%
%TO.N,GND*%
X89370000Y5310001D03*
D19*
%TO.P,J200,a2,a2*%
%TO.N,/Backplane/BACKPLANE.D+*%
X86830000Y5310001D03*
%TO.P,J200,a3,a3*%
%TO.N,+5V_STDBY*%
X84290000Y5310001D03*
%TO.P,J200,a4,a4*%
%TO.N,GND*%
X81750000Y5310001D03*
%TO.P,J200,a5,a5*%
%TO.N,/Backplane/CAN1.+*%
X79210000Y5310001D03*
%TO.P,J200,a6,a6*%
%TO.N,/Backplane/CAN1.-*%
X76670000Y5310001D03*
%TO.P,J200,a7,a7*%
%TO.N,GND*%
X74130000Y5310001D03*
%TO.P,J200,a8,a8*%
%TO.N,/Backplane/CAN2.+*%
X71590000Y5310001D03*
%TO.P,J200,a9,a9*%
%TO.N,/Backplane/CAN2.-*%
X69050000Y5310001D03*
%TO.P,J200,a10,a10*%
%TO.N,GND*%
X66510000Y5310001D03*
%TO.P,J200,a11,a11*%
%TO.N,+12V*%
X63970000Y5310001D03*
%TO.P,J200,a12,a12*%
X61430000Y5310001D03*
%TO.P,J200,a13,a13*%
%TO.N,GND*%
X58890000Y5310001D03*
%TO.P,J200,a14,a14*%
%TO.N,+24V*%
X56350000Y5310001D03*
%TO.P,J200,a15,a15*%
%TO.N,GND*%
X53810000Y5310001D03*
%TO.P,J200,a16,a16*%
%TO.N,+24V*%
X51270000Y5310001D03*
%TO.P,J200,a17,a17*%
X48730000Y5310001D03*
%TO.P,J200,a18,a18*%
%TO.N,GND*%
X46190000Y5310001D03*
%TO.P,J200,a19,a19*%
X43650000Y5310001D03*
%TO.P,J200,a20,a20*%
X41110000Y5310001D03*
%TO.P,J200,a21,a21*%
X38570000Y5310001D03*
%TO.P,J200,a22,a22*%
X36030000Y5310001D03*
%TO.P,J200,a23,a23*%
X33490000Y5310001D03*
%TO.P,J200,a24,a24*%
X30950000Y5310001D03*
%TO.P,J200,a25,a25*%
X28410000Y5310001D03*
%TO.P,J200,a26,a26*%
X25870000Y5310001D03*
%TO.P,J200,a27,a27*%
%TO.N,+12V*%
X23330000Y5310001D03*
%TO.P,J200,a28,a28*%
X20790000Y5310001D03*
%TO.P,J200,a29,a29*%
X18250000Y5310001D03*
%TO.P,J200,a30,a30*%
X15710000Y5310001D03*
%TO.P,J200,a31,a31*%
X13170000Y5310001D03*
%TO.P,J200,a32,a32*%
%TO.N,GND*%
X10630000Y5310001D03*
%TO.P,J200,b1,b1*%
X89370000Y7850001D03*
%TO.P,J200,b2,b2*%
X86830000Y7850001D03*
%TO.P,J200,b3,b3*%
%TO.N,+5V_STDBY*%
X84290000Y7850001D03*
%TO.P,J200,b4,b4*%
%TO.N,GND*%
X81750000Y7850001D03*
%TO.P,J200,b5,b5*%
%TO.N,/Backplane/CAN1.+*%
X79210000Y7850001D03*
%TO.P,J200,b6,b6*%
%TO.N,/Backplane/CAN1.-*%
X76670000Y7850001D03*
%TO.P,J200,b7,b7*%
%TO.N,GND*%
X74130000Y7850001D03*
%TO.P,J200,b8,b8*%
%TO.N,/Backplane/CAN2.+*%
X71590000Y7850001D03*
%TO.P,J200,b9,b9*%
%TO.N,/Backplane/CAN2.-*%
X69050000Y7850001D03*
%TO.P,J200,b10,b10*%
%TO.N,GND*%
X66510000Y7850001D03*
%TO.P,J200,b11,b11*%
%TO.N,+12V*%
X63970000Y7850001D03*
%TO.P,J200,b12,b12*%
X61430000Y7850001D03*
%TO.P,J200,b13,b13*%
%TO.N,GND*%
X58890000Y7850001D03*
%TO.P,J200,b14,b14*%
%TO.N,+24V*%
X56350000Y7850001D03*
%TO.P,J200,b15,b15*%
%TO.N,GND*%
X53810000Y7850001D03*
%TO.P,J200,b16,b16*%
%TO.N,/Backplane/GPIOC0*%
X51270000Y7850001D03*
%TO.P,J200,b17,b17*%
%TO.N,/Backplane/GPIOC1*%
X48730000Y7850001D03*
%TO.P,J200,b18,b18*%
%TO.N,/Backplane/GPIOC2*%
X46190000Y7850001D03*
%TO.P,J200,b19,b19*%
%TO.N,/Backplane/GPIOC3*%
X43650000Y7850001D03*
%TO.P,J200,b20,b20*%
%TO.N,/Backplane/GPIOC4*%
X41110000Y7850001D03*
%TO.P,J200,b21,b21*%
%TO.N,/Backplane/GPIOC5*%
X38570000Y7850001D03*
%TO.P,J200,b22,b22*%
%TO.N,/Backplane/GPIOC6*%
X36030000Y7850001D03*
%TO.P,J200,b23,b23*%
%TO.N,/Backplane/GPIOC7*%
X33490000Y7850001D03*
%TO.P,J200,b24,b24*%
%TO.N,/Backplane/GPIOC8*%
X30950000Y7850001D03*
%TO.P,J200,b25,b25*%
%TO.N,/Backplane/GPIOC9*%
X28410000Y7850001D03*
%TO.P,J200,b26,b26*%
%TO.N,/Backplane/GPIOC10*%
X25870000Y7850001D03*
%TO.P,J200,b27,b27*%
%TO.N,/Backplane/GPIOC11*%
X23330000Y7850001D03*
%TO.P,J200,b28,b28*%
%TO.N,/Backplane/GPIOC12*%
X20790000Y7850001D03*
%TO.P,J200,b29,b29*%
%TO.N,/Backplane/GPIOC13*%
X18250000Y7850001D03*
%TO.P,J200,b30,b30*%
%TO.N,/Backplane/GPIOC14*%
X15710000Y7850001D03*
%TO.P,J200,b31,b31*%
%TO.N,/Backplane/GPIOC15*%
X13170000Y7850001D03*
%TO.P,J200,b32,b32*%
%TO.N,GND*%
X10630000Y7850001D03*
%TO.P,J200,c1,c1*%
X89370000Y10390001D03*
%TO.P,J200,c2,c2*%
%TO.N,/Backplane/BACKPLANE.D-*%
X86830000Y10390001D03*
%TO.P,J200,c3,c3*%
%TO.N,+5V_STDBY*%
X84290000Y10390001D03*
%TO.P,J200,c4,c4*%
%TO.N,GND*%
X81750000Y10390001D03*
%TO.P,J200,c5,c5*%
%TO.N,/Backplane/CAN1.+*%
X79210000Y10390001D03*
%TO.P,J200,c6,c6*%
%TO.N,/Backplane/CAN1.-*%
X76670000Y10390001D03*
%TO.P,J200,c7,c7*%
%TO.N,GND*%
X74130000Y10390001D03*
%TO.P,J200,c8,c8*%
%TO.N,/Backplane/CAN2.+*%
X71590000Y10390001D03*
%TO.P,J200,c9,c9*%
%TO.N,/Backplane/CAN2.-*%
X69050000Y10390001D03*
%TO.P,J200,c10,c10*%
%TO.N,GND*%
X66510000Y10390001D03*
%TO.P,J200,c11,c11*%
%TO.N,+12V*%
X63970000Y10390001D03*
%TO.P,J200,c12,c12*%
X61430000Y10390001D03*
%TO.P,J200,c13,c13*%
%TO.N,GND*%
X58890000Y10390001D03*
%TO.P,J200,c14,c14*%
%TO.N,+24V*%
X56350000Y10390001D03*
%TO.P,J200,c15,c15*%
%TO.N,GND*%
X53810000Y10390001D03*
%TO.P,J200,c16,c16*%
%TO.N,/Backplane/GPIOR0*%
X51270000Y10390001D03*
%TO.P,J200,c17,c17*%
%TO.N,/Backplane/GPIOR1*%
X48730000Y10390001D03*
%TO.P,J200,c18,c18*%
%TO.N,/Backplane/GPIOR2*%
X46190000Y10390001D03*
%TO.P,J200,c19,c19*%
%TO.N,/Backplane/GPIOR3*%
X43650000Y10390001D03*
%TO.P,J200,c20,c20*%
%TO.N,/Backplane/GPIOR4*%
X41110000Y10390001D03*
%TO.P,J200,c21,c21*%
%TO.N,/Backplane/GPIOR5*%
X38570000Y10390001D03*
%TO.P,J200,c22,c22*%
%TO.N,/Backplane/GPIOR6*%
X36030000Y10390001D03*
%TO.P,J200,c23,c23*%
%TO.N,/Backplane/GPIOR7*%
X33490000Y10390001D03*
%TO.P,J200,c24,c24*%
%TO.N,/Backplane/GPIOR8*%
X30950000Y10390001D03*
%TO.P,J200,c25,c25*%
%TO.N,/Backplane/GPIOR9*%
X28410000Y10390001D03*
%TO.P,J200,c26,c26*%
%TO.N,/Backplane/GPIOR10*%
X25870000Y10390001D03*
%TO.P,J200,c27,c27*%
%TO.N,/Backplane/GPIOR11*%
X23330000Y10390001D03*
%TO.P,J200,c28,c28*%
%TO.N,/Backplane/GPIOR12*%
X20790000Y10390001D03*
%TO.P,J200,c29,c29*%
%TO.N,/Backplane/GPIOR13*%
X18250000Y10390001D03*
%TO.P,J200,c30,c30*%
%TO.N,/Backplane/GPIOR14*%
X15710000Y10390001D03*
%TO.P,J200,c31,c31*%
%TO.N,/Backplane/GPIOR15*%
X13170000Y10390001D03*
%TO.P,J200,c32,c32*%
%TO.N,GND*%
X10630000Y10390001D03*
%TD*%
D20*
%TO.P,BZ401,1,+*%
%TO.N,Net-(BZ401-+)*%
X89000000Y75500000D03*
%TO.P,BZ401,2,-*%
%TO.N,Net-(BZ401--)*%
X89000000Y83100000D03*
%TD*%
D21*
%TO.P,J400,1,PWR*%
%TO.N,Net-(IC403-IP+)*%
X17700000Y83350000D03*
D22*
X23150000Y83400000D03*
D23*
%TO.P,J400,2,GND*%
%TO.N,GND*%
X17735656Y94100000D03*
%TD*%
D24*
%TO.P,BTN400,1*%
%TO.N,GND*%
X63709415Y96700838D03*
%TO.P,BTN400,2*%
X62079415Y96700838D03*
%TO.P,BTN400,3*%
%TO.N,/MCU/SWD.~{RST}*%
X60339415Y96700838D03*
%TO.P,BTN400,4*%
%TO.N,/MCU/USR_BUTTON*%
X58709415Y96700838D03*
D25*
%TO.P,BTN400,5*%
%TO.N,N/C*%
X64709415Y94450838D03*
%TO.P,BTN400,6*%
X57709415Y94450838D03*
%TD*%
D10*
%TO.P,LED301,1*%
%TO.N,Net-(LED301-Pad1)*%
X72543600Y95500001D03*
%TO.P,LED301,2*%
%TO.N,GND*%
X75083600Y95500001D03*
%TO.P,LED301,3*%
%TO.N,Net-(LED301-Pad3)*%
X72543600Y92960001D03*
%TO.P,LED301,4*%
%TO.N,GND*%
X75083600Y92960001D03*
%TD*%
D26*
%TO.P,J401,1,Pin_1*%
%TO.N,+3V3*%
X86037520Y27121458D03*
D27*
%TO.P,J401,2,Pin_2*%
%TO.N,/ST-LINK/DIO*%
X86935546Y28019484D03*
%TO.P,J401,3,Pin_3*%
%TO.N,/ST-LINK/CLK*%
X87833571Y28917509D03*
%TO.P,J401,4,Pin_4*%
%TO.N,/ST-LINK/STLINK-RST*%
X88731597Y29815535D03*
%TO.P,J401,5,Pin_5*%
%TO.N,GND*%
X89629622Y30713560D03*
%TO.P,J401,6,Pin_6*%
%TO.N,/ST-LINK/STLINK-BOOT0*%
X90527648Y31611586D03*
%TD*%
D28*
%TO.N,+3V3*%
X72975000Y14200000D03*
X60228400Y92600000D03*
X80250000Y49000000D03*
X81750000Y49000000D03*
X91980000Y25660001D03*
X62330000Y29460001D03*
X81955000Y35960001D03*
X90700000Y66035000D03*
X82500000Y48000000D03*
X73455000Y44410001D03*
X68072000Y43942000D03*
X63254000Y44958000D03*
X86200000Y45200000D03*
X68072000Y46736000D03*
X79500000Y48000000D03*
X81750000Y48250000D03*
X92680000Y15510001D03*
X92430000Y45110001D03*
X30350001Y93750000D03*
X92030000Y22310001D03*
X37500000Y92400000D03*
X81220000Y44520001D03*
X28350000Y97900000D03*
X94580000Y32362501D03*
X80255000Y26685001D03*
X76205000Y44235001D03*
X81000000Y88060001D03*
X82500000Y48750000D03*
X80250000Y48250000D03*
X81980000Y26357501D03*
X62763531Y39643576D03*
X86330000Y35710001D03*
X91980000Y33010001D03*
X84630000Y35985001D03*
X82895876Y42124124D03*
X64955000Y26885001D03*
X81000000Y48750000D03*
X77575000Y14200000D03*
X82770000Y40910001D03*
X82525000Y45250000D03*
X81000000Y48000000D03*
X75080000Y88910001D03*
X38175000Y96650000D03*
X82292040Y42145211D03*
%TO.N,GND*%
X60228400Y93500000D03*
X95060000Y9780000D03*
X90530000Y26323785D03*
X88980000Y16510001D03*
X87780136Y52953492D03*
X68072000Y44704000D03*
X33200000Y97250000D03*
X87880000Y16510001D03*
X76880000Y88910001D03*
X92980000Y25660001D03*
X83800856Y56856950D03*
X79756000Y42418000D03*
X57712283Y21812283D03*
X90955000Y21610001D03*
X87130136Y52953492D03*
X89314487Y56700408D03*
X74455000Y44410001D03*
X68072000Y45720000D03*
X72825000Y86700000D03*
X32900000Y98250000D03*
X81220000Y45420001D03*
X58500000Y39500000D03*
X72725000Y15650000D03*
X77205000Y44235001D03*
X81980000Y27357501D03*
X73155000Y45260001D03*
X63955000Y26885001D03*
X86974124Y41944124D03*
X87530000Y37760001D03*
X91780000Y35060001D03*
X79756000Y41402000D03*
X63480000Y32010001D03*
X83800856Y58106950D03*
X88980000Y15460001D03*
X92530000Y17360001D03*
X87580000Y44560001D03*
X76775000Y18000000D03*
X86480136Y52953492D03*
X11750000Y88150000D03*
X62855000Y28435001D03*
X60100000Y84900000D03*
X82830000Y36010001D03*
X80255000Y25685001D03*
X77780000Y88910001D03*
X91780000Y36160001D03*
X80300000Y89500000D03*
X93930000Y28460001D03*
X78680000Y88360001D03*
X35500000Y92415000D03*
X94580000Y31362501D03*
X32850000Y94750000D03*
X94730000Y17760001D03*
X83200000Y40000000D03*
X70358000Y43434000D03*
X92000000Y69000000D03*
X94930000Y15510001D03*
X63498898Y36850001D03*
X66750000Y86700000D03*
X86900000Y69015000D03*
X79575000Y18850000D03*
X65278000Y43180000D03*
X5250000Y88200000D03*
X79480000Y91610001D03*
X38175000Y95625000D03*
X89470000Y65485000D03*
X58550000Y17250000D03*
X90720000Y68565000D03*
X74975000Y18850000D03*
X90430000Y17560001D03*
X87880000Y15460001D03*
X13250000Y81100000D03*
X91730000Y14860001D03*
X87330000Y35710001D03*
X80875000Y15650000D03*
X92580000Y11860001D03*
X83800856Y57506950D03*
X85980000Y89260001D03*
X5250000Y82150000D03*
X85980000Y90060001D03*
X77455000Y45260001D03*
X84180000Y25960001D03*
X93330000Y19110001D03*
X83730000Y36010001D03*
X79380000Y24960001D03*
X94900000Y23300000D03*
X96080000Y11640000D03*
X92980000Y33010001D03*
X63500000Y41148000D03*
X78994000Y39878000D03*
X77325000Y15650000D03*
%TO.N,+5V*%
X84400000Y60000000D03*
X85000000Y61000000D03*
X65400000Y22300000D03*
X94780000Y22210001D03*
X73975000Y18850000D03*
X66900000Y23000000D03*
X87000000Y72250000D03*
X92000000Y63750000D03*
X67900000Y21600000D03*
X67900000Y23000000D03*
X85500000Y62000000D03*
X86100000Y61000000D03*
X86600000Y62000000D03*
X83300000Y60000000D03*
X93930000Y40910001D03*
X86600000Y60000000D03*
X85500000Y60000000D03*
X65900000Y21600000D03*
X67500000Y22300000D03*
X91730000Y15760000D03*
X64800000Y21600000D03*
X86830000Y14260001D03*
X64800000Y23000000D03*
X83300000Y62000000D03*
X84400000Y62000000D03*
X68500000Y22300000D03*
X65900000Y23000000D03*
X83800000Y61000000D03*
X66500000Y22300000D03*
X78575000Y18850000D03*
X66900000Y21600000D03*
%TO.N,/ST-LINK/LED*%
X85580000Y36485001D03*
X88030000Y26335001D03*
%TO.N,/USB/VBUS_IN*%
X84980000Y90060001D03*
X94680000Y18660001D03*
%TO.N,/MCU/USR_BUTTON*%
X76605000Y40935001D03*
X60168600Y94385799D03*
%TO.N,/MCU/SWD.~{RST}*%
X72205001Y40910001D03*
X79007238Y43640001D03*
X82530000Y31240001D03*
%TO.N,/12V conveter + sensor/ON-OFF0*%
X73800000Y28400000D03*
X72720000Y23800000D03*
%TO.N,/??V converter + sensor/ON{slash}OFF*%
X5300000Y85200000D03*
%TO.N,/Battery connector/ADS115{slash}RDY*%
X71200000Y40900000D03*
X58900000Y65600000D03*
X34200000Y97750000D03*
%TO.N,/CAN transceiver 1/CAN.TX*%
X80450000Y18025000D03*
X77300000Y32800000D03*
%TO.N,/CAN transceiver 1/CAN.RX*%
X77300000Y31700000D03*
X77700000Y18025000D03*
%TO.N,/CAN transceiver 2/CAN.TX*%
X75850000Y18025000D03*
X67205000Y27885001D03*
%TO.N,/CAN transceiver 2/CAN.RX*%
X65819838Y25826163D03*
X73100000Y18025000D03*
%TO.N,/USB/CC1*%
X83930000Y93560001D03*
X84980000Y89260001D03*
%TO.N,/MCU/USER_LED_1*%
X74180000Y88360001D03*
X78480000Y44160001D03*
%TO.N,/MCU/USER_LED_2*%
X77930000Y43660001D03*
X73280000Y88910001D03*
%TO.N,/MCU/STATUS_LED*%
X77305000Y40935001D03*
X75980000Y88360001D03*
%TO.N,+5V_STDBY*%
X64993750Y12410001D03*
X61518750Y12410001D03*
X66268750Y13060001D03*
X66731250Y12410001D03*
X61056250Y13060001D03*
X64531250Y13060001D03*
X62356250Y13710001D03*
X62793750Y13060001D03*
X64093750Y13710001D03*
X66700000Y13710001D03*
X65831250Y13710001D03*
X64962500Y13710001D03*
X65400000Y13060001D03*
X61487500Y13710001D03*
X63225000Y13710001D03*
X63662500Y13060001D03*
X67137500Y13060001D03*
X67568750Y13710001D03*
X63256250Y12410001D03*
X61925000Y13060001D03*
X60650000Y12410001D03*
X67600000Y12410001D03*
X62387500Y12410001D03*
X64125000Y12410001D03*
X65862500Y12410001D03*
%TO.N,/12V conveter + sensor/ON-OFF1*%
X13150000Y77650000D03*
X56810000Y64130000D03*
X75400000Y29900000D03*
%TO.N,/Battery connector/MASTER_ON*%
X71700000Y40300000D03*
X81600000Y75700000D03*
%TO.N,/12V conveter + sensor/ON-OFF2*%
X14200000Y84850000D03*
X77400000Y30400000D03*
X57800000Y64910000D03*
%TO.N,/5V converter + sensor/I2C.SCL*%
X38100000Y98200000D03*
X84800000Y46700000D03*
X78600000Y37000000D03*
X88800000Y67900000D03*
%TO.N,/5V converter + sensor/I2C.SDA*%
X78600000Y37800000D03*
X37500000Y97600000D03*
X88800000Y70200000D03*
X83600000Y46700000D03*
%TO.N,/MCU/Buzzer*%
X92780000Y66400000D03*
X70700000Y40425000D03*
%TO.N,/MCU/Power_Button_IN*%
X72700000Y25300000D03*
X86000000Y69000000D03*
%TO.N,/MCU/STLINK.RX*%
X86730000Y31785001D03*
X83000000Y32100000D03*
X92830000Y37560001D03*
X68230000Y40700000D03*
%TO.N,/MCU/STLINK.TX*%
X92830000Y39560001D03*
X67500000Y40700000D03*
X85105000Y33600000D03*
X86705000Y36835001D03*
%TO.N,Net-(D403-A)*%
X61075000Y88025000D03*
X66350000Y89775000D03*
%TO.N,Net-(Q405-B)*%
X59575000Y87125000D03*
%TO.N,Net-(U801-~{OE})*%
X94480000Y14710001D03*
X94480000Y12360001D03*
%TO.N,Net-(U700-PC14)*%
X89855000Y32360001D03*
X92580000Y34510001D03*
%TO.N,Net-(U700-PC13)*%
X91280000Y32380000D03*
X93530000Y34510001D03*
%TO.N,Net-(U700-PA5)*%
X85330000Y31110001D03*
X81055000Y23635001D03*
%TO.N,Net-(U302-PGANG)*%
X90230000Y14660001D03*
X88530000Y12360001D03*
%TD*%
D29*
%TO.N,+3V3*%
X30350001Y93750000D02*
X31685001Y92415000D01*
X36800000Y93100000D02*
X37500000Y92400000D01*
X31685001Y92415000D02*
X32815000Y92415000D01*
X32815000Y92415000D02*
X33500000Y93100000D01*
X33500000Y93100000D02*
X36800000Y93100000D01*
D30*
%TO.N,+5V*%
X95600000Y23030001D02*
X94780000Y22210001D01*
D31*
X92000000Y63750000D02*
X91400000Y64350000D01*
X91400000Y71400000D02*
X90500000Y72300000D01*
D30*
X95100000Y39740001D02*
X95100000Y24700000D01*
D31*
X91400000Y64350000D02*
X91400000Y71400000D01*
D30*
X95600000Y24200000D02*
X95600000Y23030001D01*
D31*
X90500000Y72300000D02*
X87050000Y72300000D01*
D30*
X95100000Y24700000D02*
X95600000Y24200000D01*
D31*
X87050000Y72300000D02*
X87000000Y72250000D01*
D30*
X93930000Y40910001D02*
X95100000Y39740001D01*
%TO.N,/ST-LINK/LED*%
X85580000Y32020000D02*
X85580000Y36485001D01*
X86100000Y30400000D02*
X86100000Y31500000D01*
X84800000Y29100000D02*
X86100000Y30400000D01*
X85300000Y25800000D02*
X84800000Y26300000D01*
X87494999Y25800000D02*
X85300000Y25800000D01*
X88030000Y26335001D02*
X87494999Y25800000D01*
X84800000Y26300000D02*
X84800000Y29100000D01*
X86100000Y31500000D02*
X85580000Y32020000D01*
%TO.N,/USB/VBUS_IN*%
X94105000Y89435001D02*
X87630000Y89435001D01*
X87630000Y89435001D02*
X86317500Y90747501D01*
X94680000Y18660001D02*
X96100000Y20080001D01*
X96100000Y87440001D02*
X94105000Y89435001D01*
X85667500Y90747501D02*
X84980000Y90060001D01*
X86317500Y90747501D02*
X85667500Y90747501D01*
X96100000Y20080001D02*
X96100000Y87440001D01*
%TO.N,/MCU/USR_BUTTON*%
X90530000Y39360001D02*
X94955000Y43785001D01*
X94955000Y43785001D02*
X94955000Y86560001D01*
X76605000Y40935001D02*
X76605000Y40335001D01*
X76605000Y40335001D02*
X77580000Y39360001D01*
X61000000Y94200000D02*
X60814201Y94385799D01*
X60814201Y94385799D02*
X60168600Y94385799D01*
X84180000Y87935001D02*
X81780000Y90335001D01*
X94955000Y86560001D02*
X93580000Y87935001D01*
X81780000Y90335001D02*
X77480000Y90335001D01*
X77480000Y90335001D02*
X77055000Y90760001D01*
X77580000Y39360001D02*
X90530000Y39360001D01*
X77055000Y90760001D02*
X62039999Y90760001D01*
X93580000Y87935001D02*
X84180000Y87935001D01*
X61000000Y91800000D02*
X61000000Y94200000D01*
X62039999Y90760001D02*
X61000000Y91800000D01*
D32*
%TO.N,/MCU/SWD.~{RST}*%
X60130000Y96870000D02*
X60130000Y96950000D01*
D30*
X93930000Y88560001D02*
X95555000Y86935001D01*
X79007238Y43640001D02*
X79007238Y43007238D01*
D32*
X62700000Y91900000D02*
X62700000Y94300000D01*
X63239999Y91360001D02*
X62700000Y91900000D01*
D30*
X90655000Y38660001D02*
X81050000Y38660001D01*
X81050000Y38660001D02*
X81050000Y32720001D01*
X75730000Y42460001D02*
X73755001Y42460001D01*
X78460001Y42460001D02*
X75730000Y42460001D01*
X79007238Y43007238D02*
X78460001Y42460001D01*
X90655000Y38660001D02*
X95555000Y43560001D01*
X77780000Y90910001D02*
X82005000Y90910001D01*
X82530000Y31240001D02*
X81050000Y32720001D01*
X84355000Y88560001D02*
X93930000Y88560001D01*
D32*
X62700000Y94300000D02*
X60130000Y96870000D01*
X77330000Y91360001D02*
X63239999Y91360001D01*
D30*
X77330000Y91360001D02*
X77780000Y90910001D01*
X77330000Y38660001D02*
X75730000Y40260001D01*
X73755001Y42460001D02*
X72205001Y40910001D01*
X82005000Y90910001D02*
X84355000Y88560001D01*
X95555000Y86935001D02*
X95555000Y43560001D01*
X81050000Y38660001D02*
X77330000Y38660001D01*
X75730000Y40260001D02*
X75730000Y42460001D01*
D32*
%TO.N,+12V*%
X14400000Y13630000D02*
X14400000Y6540001D01*
X19870000Y19100000D02*
X22000000Y16970000D01*
X19870000Y19100000D02*
X14400000Y13630000D01*
X22000000Y16970000D02*
X22000000Y6640001D01*
X22000000Y6640001D02*
X23330000Y5310001D01*
X14400000Y6540001D02*
X13170000Y5310001D01*
D30*
%TO.N,/12V conveter + sensor/ON-OFF0*%
X73800000Y24880000D02*
X73800000Y28400000D01*
X72720000Y23800000D02*
X73800000Y24880000D01*
D32*
%TO.N,/??V converter + sensor/ON{slash}OFF*%
X12100000Y72800000D02*
X8800000Y76100000D01*
X8800000Y76100000D02*
X8800000Y83300000D01*
X8800000Y83300000D02*
X8800000Y84650000D01*
X43745000Y69905000D02*
X40850000Y72800000D01*
X8250000Y85200000D02*
X5300000Y85200000D01*
X40850000Y72800000D02*
X12100000Y72800000D01*
X8800000Y84650000D02*
X8250000Y85200000D01*
D30*
%TO.N,/Battery connector/ADS115{slash}RDY*%
X37300000Y94200000D02*
X35000000Y94200000D01*
X38600000Y85500000D02*
X38600000Y92900000D01*
X38600000Y92900000D02*
X37300000Y94200000D01*
X56750000Y67750000D02*
X56750000Y72750000D01*
X34200000Y95000000D02*
X34200000Y97750000D01*
X56750000Y72750000D02*
X50200000Y79300000D01*
X50200000Y79300000D02*
X44800000Y79300000D01*
X58900000Y65600000D02*
X56750000Y67750000D01*
X44800000Y79300000D02*
X38600000Y85500000D01*
X35000000Y94200000D02*
X34200000Y95000000D01*
D32*
%TO.N,+24V*%
X46600000Y1800000D02*
X51800000Y1800000D01*
X44900000Y3500000D02*
X46600000Y1800000D01*
X52500000Y2500000D02*
X52500000Y4100000D01*
X51800000Y1800000D02*
X52500000Y2500000D01*
X44900000Y17350000D02*
X44900000Y3500000D01*
X46650000Y19100000D02*
X44900000Y17350000D01*
D30*
%TO.N,/CAN transceiver 1/CAN.TX*%
X80450000Y21640001D02*
X78400000Y23690001D01*
X78400000Y31700000D02*
X77300000Y32800000D01*
X80450000Y18025000D02*
X80450000Y21640001D01*
X78400000Y23690001D02*
X78400000Y31700000D01*
D32*
%TO.N,/CAN transceiver 1/CAN.RX*%
X77300000Y31700000D02*
X76700000Y31100000D01*
X76700000Y19025000D02*
X77700000Y18025000D01*
X76700000Y31100000D02*
X76700000Y19025000D01*
D30*
%TO.N,/CAN transceiver 2/CAN.TX*%
X75850000Y19240001D02*
X67205000Y27885001D01*
X75850000Y18025000D02*
X75850000Y19240001D01*
X67205000Y27885001D02*
X67205000Y27645000D01*
D32*
%TO.N,/CAN transceiver 2/CAN.RX*%
X73100000Y19400000D02*
X73100000Y18025000D01*
X66673837Y25826163D02*
X73100000Y19400000D01*
X65819838Y25826163D02*
X66673837Y25826163D01*
D30*
%TO.N,/USB/CC1*%
X84480000Y89260001D02*
X83930000Y89810001D01*
X83930000Y89810001D02*
X83930000Y93560001D01*
X84980000Y89260001D02*
X84480000Y89260001D01*
D32*
%TO.N,/MCU/USER_LED_1*%
X83188522Y41200000D02*
X90619999Y41200000D01*
X82977521Y41411001D02*
X83188522Y41200000D01*
X93855000Y44435001D02*
X93855000Y85785001D01*
X93855000Y85785001D02*
X92830000Y86810001D01*
X79839999Y44160001D02*
X80550000Y43450000D01*
X90619999Y41200000D02*
X93855000Y44435001D01*
X78480000Y44160001D02*
X79839999Y44160001D01*
X92830000Y86810001D02*
X75730000Y86810001D01*
X80550000Y42680000D02*
X82030000Y41200000D01*
X82030000Y41200000D02*
X82351478Y41200000D01*
X82351478Y41200000D02*
X82562479Y41411001D01*
X82562479Y41411001D02*
X82977521Y41411001D01*
X80550000Y43450000D02*
X80550000Y42680000D01*
X75730000Y86810001D02*
X74180000Y88360001D01*
D30*
%TO.N,/MCU/USER_LED_2*%
X78397499Y45000000D02*
X80000000Y45000000D01*
X77930000Y44532501D02*
X78397499Y45000000D01*
X91205000Y42610001D02*
X93280000Y44685001D01*
X80000000Y45000000D02*
X82389999Y42610001D01*
X73280000Y88910001D02*
X73280000Y86970000D01*
X73280000Y86970000D02*
X74039999Y86210001D01*
X93280000Y44685001D02*
X93280000Y85360001D01*
X82389999Y42610001D02*
X91205000Y42610001D01*
X92430000Y86210001D02*
X74039999Y86210001D01*
X93280000Y85360001D02*
X92430000Y86210001D01*
X77930000Y43660001D02*
X77930000Y44532501D01*
%TO.N,/MCU/STATUS_LED*%
X75980000Y89185001D02*
X76430000Y89635001D01*
X77540001Y40700000D02*
X77305000Y40935001D01*
X90969999Y40700000D02*
X83233165Y40700000D01*
X76430000Y89635001D02*
X78305000Y89635001D01*
X78305000Y89635001D02*
X79000001Y88940000D01*
X82306835Y40700000D02*
X77540001Y40700000D01*
X82175001Y88940000D02*
X83705000Y87410001D01*
X79000001Y88940000D02*
X82175001Y88940000D01*
X93280000Y87410001D02*
X94430000Y86260001D01*
X83233165Y40700000D02*
X82967166Y40434001D01*
X94430000Y44160001D02*
X90969999Y40700000D01*
X75980000Y88360001D02*
X75980000Y89185001D01*
X82572834Y40434001D02*
X82306835Y40700000D01*
X82967166Y40434001D02*
X82572834Y40434001D01*
X94430000Y86260001D02*
X94430000Y44160001D01*
X83705000Y87410001D02*
X93280000Y87410001D01*
D32*
%TO.N,/12V conveter + sensor/ON-OFF1*%
X51000000Y74700000D02*
X54300000Y71400000D01*
X54300000Y66640000D02*
X56810000Y64130000D01*
X15000000Y74700000D02*
X51000000Y74700000D01*
X13150000Y76550000D02*
X15000000Y74700000D01*
X13150000Y77650000D02*
X13150000Y76550000D01*
X54300000Y71400000D02*
X54300000Y66640000D01*
%TO.N,/12V conveter + sensor/ON-OFF2*%
X55600000Y67110000D02*
X55600000Y72000000D01*
X55600000Y72000000D02*
X50800000Y76800000D01*
X14200000Y78150000D02*
X14200000Y84850000D01*
X50800000Y76800000D02*
X15550000Y76800000D01*
X57800000Y64910000D02*
X55600000Y67110000D01*
X15550000Y76800000D02*
X14200000Y78150000D01*
%TO.N,/5V converter + sensor/I2C.SCL*%
X83800000Y81500000D02*
X82125000Y83175000D01*
X84800000Y46800000D02*
X84800000Y46700000D01*
X90500000Y52500000D02*
X84800000Y46800000D01*
X39900000Y88000000D02*
X39900000Y93500000D01*
X85500000Y70100000D02*
X83800000Y71800000D01*
X84800000Y46700000D02*
X84800000Y46703611D01*
X88800000Y63600000D02*
X90500000Y61900000D01*
X38400000Y95000000D02*
X37000000Y95000000D01*
X59775000Y83175000D02*
X58400000Y81800000D01*
X83800000Y71800000D02*
X83800000Y81500000D01*
X36300000Y95700000D02*
X36300000Y97700000D01*
X88800000Y68800000D02*
X87500000Y70100000D01*
X58400000Y81800000D02*
X46100000Y81800000D01*
X39900000Y93500000D02*
X38400000Y95000000D01*
X36300000Y97700000D02*
X36800000Y98200000D01*
X88800000Y67900000D02*
X88800000Y68800000D01*
X87500000Y70100000D02*
X85500000Y70100000D01*
X36800000Y98200000D02*
X38100000Y98200000D01*
X37000000Y95000000D02*
X36300000Y95700000D01*
X82125000Y83175000D02*
X59775000Y83175000D01*
X46100000Y81800000D02*
X39900000Y88000000D01*
X90500000Y61900000D02*
X90500000Y52500000D01*
X88800000Y67900000D02*
X88800000Y63600000D01*
%TO.N,/5V converter + sensor/I2C.SDA*%
X48700000Y84400000D02*
X42700000Y90400000D01*
X89500000Y70200000D02*
X89971000Y69729000D01*
X86725000Y45925000D02*
X84375000Y45925000D01*
X91700000Y62400000D02*
X91700000Y50900000D01*
X84375000Y45925000D02*
X83600000Y46700000D01*
X88000000Y71000000D02*
X86400000Y71000000D01*
X85800000Y71600000D02*
X85800000Y82800000D01*
X89971000Y64129000D02*
X91700000Y62400000D01*
X83400000Y85200000D02*
X62700000Y85200000D01*
X86400000Y71000000D02*
X85800000Y71600000D01*
X61900000Y84400000D02*
X48700000Y84400000D01*
X42700000Y90400000D02*
X42700000Y94300000D01*
X42700000Y94300000D02*
X39400000Y97600000D01*
X39400000Y97600000D02*
X37500000Y97600000D01*
X91700000Y50900000D02*
X86725000Y45925000D01*
X89971000Y69729000D02*
X89971000Y64129000D01*
X85800000Y82800000D02*
X83400000Y85200000D01*
X62700000Y85200000D02*
X61900000Y84400000D01*
X88800000Y70200000D02*
X88000000Y71000000D01*
X88800000Y70200000D02*
X89500000Y70200000D01*
%TO.N,/MCU/Buzzer*%
X71600000Y42700000D02*
X71600000Y45000000D01*
X70700000Y41800000D02*
X71600000Y42700000D01*
X92780000Y49380000D02*
X92780000Y66400000D01*
X71600000Y45000000D02*
X72400000Y45800000D01*
X85421001Y43600000D02*
X87700000Y43600000D01*
X70700000Y40425000D02*
X70700000Y41800000D01*
X72400000Y45800000D02*
X80891478Y45800000D01*
X87700000Y43600000D02*
X89200000Y45100000D01*
X80891478Y45800000D02*
X81191478Y46100000D01*
X89200000Y45100000D02*
X89200000Y45800000D01*
X82921001Y46100000D02*
X85421001Y43600000D01*
X89200000Y45800000D02*
X92780000Y49380000D01*
X81191478Y46100000D02*
X82921001Y46100000D01*
%TO.N,/MCU/Power_Button_IN*%
X72700000Y32500000D02*
X71600000Y33600000D01*
X64800000Y45600000D02*
X67200000Y48000000D01*
X86800000Y50000000D02*
X79600000Y50000000D01*
X88200000Y54800000D02*
X89000000Y54000000D01*
X71600000Y33600000D02*
X64200000Y33600000D01*
X64800000Y44100000D02*
X64800000Y45600000D01*
X72700000Y25300000D02*
X72700000Y32500000D01*
X77600000Y48000000D02*
X67200000Y48000000D01*
X62000000Y35800000D02*
X62000000Y41300000D01*
X88200000Y65600000D02*
X88200000Y54800000D01*
X64200000Y33600000D02*
X62000000Y35800000D01*
X86000000Y69000000D02*
X86000000Y67800000D01*
X89000000Y54000000D02*
X89000000Y52200000D01*
X89000000Y52200000D02*
X86800000Y50000000D01*
X62000000Y41300000D02*
X64800000Y44100000D01*
X79600000Y50000000D02*
X77600000Y48000000D01*
X86000000Y67800000D02*
X88200000Y65600000D01*
D30*
%TO.N,/MCU/STLINK.RX*%
X91855000Y37560001D02*
X86730000Y32435001D01*
D32*
X68230000Y40700000D02*
X69200000Y40700000D01*
X77500000Y36500000D02*
X80200000Y33800000D01*
X84100000Y31900000D02*
X83900000Y32100000D01*
X82100000Y30300000D02*
X82900000Y30300000D01*
D30*
X86730000Y32435001D02*
X86730000Y31785001D01*
D32*
X80200000Y33800000D02*
X80200000Y32200000D01*
D30*
X92830000Y37560001D02*
X91855000Y37560001D01*
D32*
X73400000Y36500000D02*
X77500000Y36500000D01*
X82900000Y30300000D02*
X84100000Y31500000D01*
X69200000Y40700000D02*
X73400000Y36500000D01*
X83900000Y32100000D02*
X83000000Y32100000D01*
X80200000Y32200000D02*
X82100000Y30300000D01*
X84100000Y31500000D02*
X84100000Y31900000D01*
%TO.N,/MCU/STLINK.TX*%
X85105000Y33600000D02*
X85105000Y31805000D01*
X71700000Y35000000D02*
X67500000Y39200000D01*
D30*
X92830000Y39560001D02*
X92680000Y39560001D01*
D32*
X82800000Y29500000D02*
X81300000Y29500000D01*
X76925000Y35000000D02*
X71700000Y35000000D01*
X81300000Y29500000D02*
X79000000Y31800000D01*
X67500000Y39200000D02*
X67500000Y40700000D01*
D30*
X89955000Y36835001D02*
X86705000Y36835001D01*
X92680000Y39560001D02*
X89955000Y36835001D01*
D32*
X85105000Y31805000D02*
X82800000Y29500000D01*
X79000000Y32925000D02*
X76925000Y35000000D01*
X79000000Y31800000D02*
X79000000Y32925000D01*
%TO.N,Net-(D403-A)*%
X62825000Y89775000D02*
X61075000Y88025000D01*
X66350000Y89775000D02*
X62825000Y89775000D01*
%TO.N,Net-(Q405-B)*%
X59575000Y87125000D02*
X59550000Y87150000D01*
X56750000Y92087500D02*
X53000000Y95837500D01*
X57625000Y87150000D02*
X56750000Y88025000D01*
X56750000Y88025000D02*
X56750000Y92087500D01*
X59550000Y87150000D02*
X57625000Y87150000D01*
D30*
%TO.N,Net-(U801-~{OE})*%
X94480000Y12360001D02*
X94480000Y14710001D01*
%TO.N,Net-(U700-PC14)*%
X92430000Y34360001D02*
X91355736Y34360001D01*
X89855000Y32859265D02*
X89855000Y32360001D01*
X92580000Y34510001D02*
X92430000Y34360001D01*
X91355736Y34360001D02*
X89855000Y32859265D01*
%TO.N,Net-(U700-PC13)*%
X91280000Y32380000D02*
X91280000Y33335001D01*
X91705000Y33760001D02*
X92780000Y33760001D01*
X91280000Y33335001D02*
X91705000Y33760001D01*
X92780000Y33760001D02*
X93530000Y34510001D01*
%TO.N,Net-(U700-PA5)*%
X81055000Y23635001D02*
X83230000Y25810001D01*
X83230000Y25810001D02*
X83230000Y29010001D01*
X83230000Y29010001D02*
X85330000Y31110001D01*
D33*
%TO.N,Net-(U302-PGANG)*%
X88530000Y12960001D02*
X90230000Y14660001D01*
X88530000Y12360001D02*
X88530000Y12960001D01*
%TD*%
%TA.AperFunction,Conductor*%
%TO.N,+5V_STDBY*%
G36*
X84543039Y16400315D02*
G01*
X84588794Y16347511D01*
X84600000Y16296000D01*
X84600000Y12200000D01*
X85563681Y11236319D01*
X85597166Y11174996D01*
X85600000Y11148638D01*
X85600000Y3724000D01*
X85580315Y3656961D01*
X85527511Y3611206D01*
X85476000Y3600000D01*
X82849000Y3600000D01*
X82781961Y3619685D01*
X82736206Y3672489D01*
X82725000Y3724000D01*
X82725000Y11175000D01*
X81900000Y12000000D01*
X59685300Y12000000D01*
X59618261Y12019685D01*
X59572506Y12072489D01*
X59561300Y12124000D01*
X59561300Y14252727D01*
X72574500Y14252727D01*
X72574500Y14147273D01*
X72601793Y14045413D01*
X72654520Y13954087D01*
X72729087Y13879520D01*
X72820413Y13826793D01*
X72922273Y13799500D01*
X72922275Y13799500D01*
X73027725Y13799500D01*
X73027727Y13799500D01*
X73129587Y13826793D01*
X73220913Y13879520D01*
X73295480Y13954087D01*
X73348207Y14045413D01*
X73375500Y14147273D01*
X73375500Y14252727D01*
X77174500Y14252727D01*
X77174500Y14147273D01*
X77201793Y14045413D01*
X77254520Y13954087D01*
X77329087Y13879520D01*
X77420413Y13826793D01*
X77522273Y13799500D01*
X77522275Y13799500D01*
X77627725Y13799500D01*
X77627727Y13799500D01*
X77729587Y13826793D01*
X77820913Y13879520D01*
X77895480Y13954087D01*
X77948207Y14045413D01*
X77975500Y14147273D01*
X77975500Y14252727D01*
X77948207Y14354587D01*
X77895480Y14445913D01*
X77820913Y14520480D01*
X77729587Y14573207D01*
X77627727Y14600500D01*
X77522273Y14600500D01*
X77420413Y14573207D01*
X77420410Y14573206D01*
X77329085Y14520479D01*
X77254521Y14445915D01*
X77201794Y14354590D01*
X77201793Y14354587D01*
X77174500Y14252727D01*
X73375500Y14252727D01*
X73348207Y14354587D01*
X73295480Y14445913D01*
X73220913Y14520480D01*
X73129587Y14573207D01*
X73027727Y14600500D01*
X72922273Y14600500D01*
X72820413Y14573207D01*
X72820410Y14573206D01*
X72729085Y14520479D01*
X72654521Y14445915D01*
X72601794Y14354590D01*
X72601793Y14354587D01*
X72574500Y14252727D01*
X59561300Y14252727D01*
X59561300Y15702727D01*
X72324500Y15702727D01*
X72324500Y15597273D01*
X72351793Y15495413D01*
X72404520Y15404087D01*
X72479087Y15329520D01*
X72570413Y15276793D01*
X72672273Y15249500D01*
X72672275Y15249500D01*
X72777725Y15249500D01*
X72777727Y15249500D01*
X72879587Y15276793D01*
X72970913Y15329520D01*
X73045480Y15404087D01*
X73098207Y15495413D01*
X73125500Y15597273D01*
X73125500Y15702727D01*
X76924500Y15702727D01*
X76924500Y15597273D01*
X76951793Y15495413D01*
X77004520Y15404087D01*
X77079087Y15329520D01*
X77170413Y15276793D01*
X77272273Y15249500D01*
X77272275Y15249500D01*
X77377725Y15249500D01*
X77377727Y15249500D01*
X77479587Y15276793D01*
X77570913Y15329520D01*
X77645480Y15404087D01*
X77698207Y15495413D01*
X77725500Y15597273D01*
X77725500Y15702727D01*
X80474500Y15702727D01*
X80474500Y15597273D01*
X80501793Y15495413D01*
X80554520Y15404087D01*
X80629087Y15329520D01*
X80720413Y15276793D01*
X80822273Y15249500D01*
X80822275Y15249500D01*
X80927725Y15249500D01*
X80927727Y15249500D01*
X81029587Y15276793D01*
X81120913Y15329520D01*
X81195480Y15404087D01*
X81248207Y15495413D01*
X81275500Y15597273D01*
X81275500Y15702727D01*
X81248207Y15804587D01*
X81195480Y15895913D01*
X81120913Y15970480D01*
X81029587Y16023207D01*
X80927727Y16050500D01*
X80822273Y16050500D01*
X80720413Y16023207D01*
X80720410Y16023206D01*
X80629085Y15970479D01*
X80554521Y15895915D01*
X80501794Y15804590D01*
X80501793Y15804587D01*
X80474500Y15702727D01*
X77725500Y15702727D01*
X77698207Y15804587D01*
X77645480Y15895913D01*
X77570913Y15970480D01*
X77479587Y16023207D01*
X77377727Y16050500D01*
X77272273Y16050500D01*
X77170413Y16023207D01*
X77170410Y16023206D01*
X77079085Y15970479D01*
X77004521Y15895915D01*
X76951794Y15804590D01*
X76951793Y15804587D01*
X76924500Y15702727D01*
X73125500Y15702727D01*
X73098207Y15804587D01*
X73045480Y15895913D01*
X72970913Y15970480D01*
X72879587Y16023207D01*
X72777727Y16050500D01*
X72672273Y16050500D01*
X72570413Y16023207D01*
X72570410Y16023206D01*
X72479085Y15970479D01*
X72404521Y15895915D01*
X72351794Y15804590D01*
X72351793Y15804587D01*
X72324500Y15702727D01*
X59561300Y15702727D01*
X59561300Y16284493D01*
X59580985Y16351532D01*
X59633789Y16397287D01*
X59685300Y16408493D01*
X66270628Y16408493D01*
X66286511Y16417166D01*
X66312869Y16420000D01*
X84476000Y16420000D01*
X84543039Y16400315D01*
G37*
%TD.AperFunction*%
%TD*%
%TA.AperFunction,Conductor*%
%TO.N,+24V*%
G36*
X52613011Y21591989D02*
G01*
X52613061Y21591939D01*
X57960648Y16244352D01*
X57975000Y16209704D01*
X57975000Y10538766D01*
X57974058Y10529206D01*
X57964500Y10481159D01*
X57964500Y10298844D01*
X57974058Y10250797D01*
X57975000Y10241237D01*
X57975000Y7998766D01*
X57974058Y7989206D01*
X57964500Y7941159D01*
X57964500Y7758844D01*
X57974058Y7710797D01*
X57975000Y7701237D01*
X57975000Y5458766D01*
X57974058Y5449206D01*
X57964500Y5401159D01*
X57964500Y5218844D01*
X57974058Y5170797D01*
X57975000Y5161237D01*
X57975000Y4030297D01*
X57960648Y3995649D01*
X57464352Y3499353D01*
X57429704Y3485001D01*
X47650296Y3485001D01*
X47615648Y3499353D01*
X47119352Y3995649D01*
X47105000Y4030297D01*
X47105000Y5161237D01*
X47105942Y5170797D01*
X47115499Y5218844D01*
X47115500Y5218847D01*
X47115500Y5398902D01*
X47115500Y5401103D01*
X47805000Y5401103D01*
X47805000Y5218900D01*
X47840547Y5040188D01*
X47840547Y5040187D01*
X47910273Y4871852D01*
X47921498Y4855053D01*
X48247037Y5180592D01*
X48264075Y5117008D01*
X48329901Y5002994D01*
X48422993Y4909902D01*
X48537007Y4844076D01*
X48600590Y4827039D01*
X48275051Y4501501D01*
X48291853Y4490274D01*
X48460186Y4420549D01*
X48638898Y4385001D01*
X48821102Y4385001D01*
X48999813Y4420549D01*
X48999814Y4420549D01*
X49168146Y4490274D01*
X49184947Y4501501D01*
X48859409Y4827039D01*
X48922993Y4844076D01*
X49037007Y4909902D01*
X49130099Y5002994D01*
X49195925Y5117008D01*
X49212962Y5180592D01*
X49538500Y4855054D01*
X49549727Y4871855D01*
X49619452Y5040187D01*
X49619452Y5040188D01*
X49655000Y5218900D01*
X49655000Y5401103D01*
X50345000Y5401103D01*
X50345000Y5218900D01*
X50380547Y5040188D01*
X50380547Y5040187D01*
X50450273Y4871852D01*
X50461498Y4855053D01*
X50787037Y5180592D01*
X50804075Y5117008D01*
X50869901Y5002994D01*
X50962993Y4909902D01*
X51077007Y4844076D01*
X51140590Y4827039D01*
X50815051Y4501501D01*
X50831853Y4490274D01*
X51000186Y4420549D01*
X51178898Y4385001D01*
X51361102Y4385001D01*
X51539813Y4420549D01*
X51539814Y4420549D01*
X51708146Y4490274D01*
X51724947Y4501501D01*
X51399409Y4827039D01*
X51462993Y4844076D01*
X51577007Y4909902D01*
X51670099Y5002994D01*
X51735925Y5117008D01*
X51752962Y5180592D01*
X52078500Y4855054D01*
X52089727Y4871855D01*
X52159452Y5040187D01*
X52159452Y5040188D01*
X52195000Y5218900D01*
X52195000Y5401103D01*
X52194989Y5401159D01*
X52884500Y5401159D01*
X52884500Y5218844D01*
X52920065Y5040051D01*
X52920067Y5040042D01*
X52989831Y4871616D01*
X52989833Y4871612D01*
X53091117Y4720029D01*
X53220028Y4591118D01*
X53371611Y4489834D01*
X53540042Y4420068D01*
X53718846Y4384501D01*
X53901154Y4384501D01*
X54079958Y4420068D01*
X54248389Y4489834D01*
X54399972Y4591118D01*
X54528883Y4720029D01*
X54630167Y4871612D01*
X54699933Y5040043D01*
X54735500Y5218847D01*
X54735500Y5401103D01*
X55425000Y5401103D01*
X55425000Y5218900D01*
X55460547Y5040188D01*
X55460547Y5040187D01*
X55530273Y4871852D01*
X55541498Y4855053D01*
X55867037Y5180593D01*
X55884075Y5117008D01*
X55949901Y5002994D01*
X56042993Y4909902D01*
X56157007Y4844076D01*
X56220590Y4827039D01*
X55895051Y4501501D01*
X55911853Y4490274D01*
X56080186Y4420549D01*
X56258898Y4385001D01*
X56441102Y4385001D01*
X56619813Y4420549D01*
X56619814Y4420549D01*
X56788146Y4490274D01*
X56804947Y4501501D01*
X56479409Y4827039D01*
X56542993Y4844076D01*
X56657007Y4909902D01*
X56750099Y5002994D01*
X56815925Y5117008D01*
X56832962Y5180592D01*
X57158500Y4855054D01*
X57169727Y4871855D01*
X57239452Y5040187D01*
X57239452Y5040188D01*
X57275000Y5218900D01*
X57275000Y5401103D01*
X57239452Y5579815D01*
X57239452Y5579816D01*
X57169727Y5748148D01*
X57158500Y5764950D01*
X56832962Y5439412D01*
X56815925Y5502994D01*
X56750099Y5617008D01*
X56657007Y5710100D01*
X56542993Y5775926D01*
X56479408Y5792964D01*
X56804948Y6118503D01*
X56788149Y6129728D01*
X56619813Y6199454D01*
X56441102Y6235001D01*
X56258898Y6235001D01*
X56080186Y6199454D01*
X56080185Y6199454D01*
X55911847Y6129727D01*
X55895051Y6118504D01*
X55895051Y6118503D01*
X56220590Y5792964D01*
X56157007Y5775926D01*
X56042993Y5710100D01*
X55949901Y5617008D01*
X55884075Y5502994D01*
X55867037Y5439411D01*
X55541498Y5764950D01*
X55541497Y5764950D01*
X55530274Y5748154D01*
X55460547Y5579816D01*
X55460547Y5579815D01*
X55425000Y5401103D01*
X54735500Y5401103D01*
X54735500Y5401155D01*
X54699933Y5579959D01*
X54630167Y5748390D01*
X54528883Y5899973D01*
X54399972Y6028884D01*
X54248389Y6130168D01*
X54248386Y6130170D01*
X54248385Y6130170D01*
X54079959Y6199934D01*
X54079950Y6199936D01*
X53901157Y6235501D01*
X53901154Y6235501D01*
X53718846Y6235501D01*
X53718842Y6235501D01*
X53540049Y6199936D01*
X53540040Y6199934D01*
X53371614Y6130170D01*
X53220028Y6028885D01*
X53091116Y5899973D01*
X52989831Y5748387D01*
X52920067Y5579961D01*
X52920065Y5579952D01*
X52884500Y5401159D01*
X52194989Y5401159D01*
X52159452Y5579815D01*
X52159452Y5579816D01*
X52089727Y5748148D01*
X52078500Y5764950D01*
X51752962Y5439412D01*
X51735925Y5502994D01*
X51670099Y5617008D01*
X51577007Y5710100D01*
X51462993Y5775926D01*
X51399408Y5792964D01*
X51724948Y6118503D01*
X51708149Y6129728D01*
X51539813Y6199454D01*
X51361102Y6235001D01*
X51178898Y6235001D01*
X51000186Y6199454D01*
X51000185Y6199454D01*
X50831847Y6129727D01*
X50815051Y6118504D01*
X50815051Y6118503D01*
X51140590Y5792964D01*
X51077007Y5775926D01*
X50962993Y5710100D01*
X50869901Y5617008D01*
X50804075Y5502994D01*
X50787037Y5439411D01*
X50461498Y5764950D01*
X50461497Y5764950D01*
X50450274Y5748154D01*
X50380547Y5579816D01*
X50380547Y5579815D01*
X50345000Y5401103D01*
X49655000Y5401103D01*
X49619452Y5579815D01*
X49619452Y5579816D01*
X49549727Y5748148D01*
X49538500Y5764950D01*
X49212962Y5439412D01*
X49195925Y5502994D01*
X49130099Y5617008D01*
X49037007Y5710100D01*
X48922993Y5775926D01*
X48859408Y5792964D01*
X49184948Y6118503D01*
X49168149Y6129728D01*
X48999813Y6199454D01*
X48821102Y6235001D01*
X48638898Y6235001D01*
X48460186Y6199454D01*
X48460185Y6199454D01*
X48291847Y6129727D01*
X48275051Y6118504D01*
X48275051Y6118503D01*
X48600590Y5792964D01*
X48537007Y5775926D01*
X48422993Y5710100D01*
X48329901Y5617008D01*
X48264075Y5502994D01*
X48247037Y5439411D01*
X47921498Y5764950D01*
X47921497Y5764950D01*
X47910274Y5748154D01*
X47840547Y5579816D01*
X47840547Y5579815D01*
X47805000Y5401103D01*
X47115500Y5401103D01*
X47115500Y5401155D01*
X47105906Y5449385D01*
X47105862Y5449618D01*
X47105888Y5449747D01*
X47105000Y5458766D01*
X47105000Y7701237D01*
X47105942Y7710797D01*
X47115499Y7758844D01*
X47115500Y7758847D01*
X47115500Y7938944D01*
X47115500Y7941155D01*
X47115499Y7941159D01*
X47804500Y7941159D01*
X47804500Y7758844D01*
X47840065Y7580051D01*
X47840067Y7580042D01*
X47909831Y7411616D01*
X47909833Y7411612D01*
X48011117Y7260029D01*
X48140028Y7131118D01*
X48291611Y7029834D01*
X48460042Y6960068D01*
X48638846Y6924501D01*
X48821154Y6924501D01*
X48999958Y6960068D01*
X49168389Y7029834D01*
X49319972Y7131118D01*
X49448883Y7260029D01*
X49550167Y7411612D01*
X49619933Y7580043D01*
X49655500Y7758847D01*
X49655500Y7941155D01*
X49655499Y7941159D01*
X50344500Y7941159D01*
X50344500Y7758844D01*
X50380065Y7580051D01*
X50380067Y7580042D01*
X50449831Y7411616D01*
X50449833Y7411612D01*
X50551117Y7260029D01*
X50680028Y7131118D01*
X50831611Y7029834D01*
X51000042Y6960068D01*
X51178846Y6924501D01*
X51361154Y6924501D01*
X51539958Y6960068D01*
X51708389Y7029834D01*
X51859972Y7131118D01*
X51988883Y7260029D01*
X52090167Y7411612D01*
X52159933Y7580043D01*
X52195500Y7758847D01*
X52195500Y7941155D01*
X52195499Y7941159D01*
X52884500Y7941159D01*
X52884500Y7758844D01*
X52920065Y7580051D01*
X52920067Y7580042D01*
X52989831Y7411616D01*
X52989833Y7411612D01*
X53091117Y7260029D01*
X53220028Y7131118D01*
X53371611Y7029834D01*
X53540042Y6960068D01*
X53718846Y6924501D01*
X53901154Y6924501D01*
X54079958Y6960068D01*
X54248389Y7029834D01*
X54399972Y7131118D01*
X54528883Y7260029D01*
X54630167Y7411612D01*
X54699933Y7580043D01*
X54735500Y7758847D01*
X54735500Y7941103D01*
X55425000Y7941103D01*
X55425000Y7758900D01*
X55460547Y7580188D01*
X55460547Y7580187D01*
X55530273Y7411852D01*
X55541498Y7395053D01*
X55867037Y7720593D01*
X55884075Y7657008D01*
X55949901Y7542994D01*
X56042993Y7449902D01*
X56157007Y7384076D01*
X56220590Y7367039D01*
X55895051Y7041501D01*
X55911853Y7030274D01*
X56080186Y6960549D01*
X56258898Y6925001D01*
X56441102Y6925001D01*
X56619813Y6960549D01*
X56619814Y6960549D01*
X56788146Y7030274D01*
X56804947Y7041501D01*
X56479409Y7367039D01*
X56542993Y7384076D01*
X56657007Y7449902D01*
X56750099Y7542994D01*
X56815925Y7657008D01*
X56832962Y7720592D01*
X57158500Y7395054D01*
X57169727Y7411855D01*
X57239452Y7580187D01*
X57239452Y7580188D01*
X57275000Y7758900D01*
X57275000Y7941103D01*
X57239452Y8119815D01*
X57239452Y8119816D01*
X57169727Y8288148D01*
X57158500Y8304950D01*
X56832962Y7979412D01*
X56815925Y8042994D01*
X56750099Y8157008D01*
X56657007Y8250100D01*
X56542993Y8315926D01*
X56479408Y8332964D01*
X56804948Y8658503D01*
X56788149Y8669728D01*
X56619813Y8739454D01*
X56441102Y8775001D01*
X56258898Y8775001D01*
X56080186Y8739454D01*
X56080185Y8739454D01*
X55911847Y8669727D01*
X55895051Y8658504D01*
X55895051Y8658503D01*
X56220590Y8332964D01*
X56157007Y8315926D01*
X56042993Y8250100D01*
X55949901Y8157008D01*
X55884075Y8042994D01*
X55867037Y7979411D01*
X55541498Y8304950D01*
X55541497Y8304950D01*
X55530274Y8288154D01*
X55460547Y8119816D01*
X55460547Y8119815D01*
X55425000Y7941103D01*
X54735500Y7941103D01*
X54735500Y7941155D01*
X54699933Y8119959D01*
X54630167Y8288390D01*
X54528883Y8439973D01*
X54399972Y8568884D01*
X54248389Y8670168D01*
X54248386Y8670170D01*
X54248385Y8670170D01*
X54079959Y8739934D01*
X54079950Y8739936D01*
X53901157Y8775501D01*
X53901154Y8775501D01*
X53718846Y8775501D01*
X53718842Y8775501D01*
X53540049Y8739936D01*
X53540040Y8739934D01*
X53371614Y8670170D01*
X53220028Y8568885D01*
X53091116Y8439973D01*
X52989831Y8288387D01*
X52920067Y8119961D01*
X52920065Y8119952D01*
X52884500Y7941159D01*
X52195499Y7941159D01*
X52159933Y8119959D01*
X52090167Y8288390D01*
X51988883Y8439973D01*
X51859972Y8568884D01*
X51708389Y8670168D01*
X51708386Y8670170D01*
X51708385Y8670170D01*
X51539959Y8739934D01*
X51539950Y8739936D01*
X51361157Y8775501D01*
X51361154Y8775501D01*
X51178846Y8775501D01*
X51178842Y8775501D01*
X51000049Y8739936D01*
X51000040Y8739934D01*
X50831614Y8670170D01*
X50680028Y8568885D01*
X50551116Y8439973D01*
X50449831Y8288387D01*
X50380067Y8119961D01*
X50380065Y8119952D01*
X50344500Y7941159D01*
X49655499Y7941159D01*
X49619933Y8119959D01*
X49550167Y8288390D01*
X49448883Y8439973D01*
X49319972Y8568884D01*
X49168389Y8670168D01*
X49168386Y8670170D01*
X49168385Y8670170D01*
X48999959Y8739934D01*
X48999950Y8739936D01*
X48821157Y8775501D01*
X48821154Y8775501D01*
X48638846Y8775501D01*
X48638842Y8775501D01*
X48460049Y8739936D01*
X48460040Y8739934D01*
X48291614Y8670170D01*
X48140028Y8568885D01*
X48011116Y8439973D01*
X47909831Y8288387D01*
X47840067Y8119961D01*
X47840065Y8119952D01*
X47804500Y7941159D01*
X47115499Y7941159D01*
X47105895Y7989440D01*
X47105863Y7989610D01*
X47105889Y7989738D01*
X47105000Y7998766D01*
X47105000Y10241237D01*
X47105942Y10250797D01*
X47115499Y10298844D01*
X47115500Y10298847D01*
X47115500Y10478944D01*
X47115500Y10481155D01*
X47115499Y10481159D01*
X47804500Y10481159D01*
X47804500Y10298844D01*
X47840065Y10120051D01*
X47840067Y10120042D01*
X47909831Y9951616D01*
X47909833Y9951612D01*
X48011117Y9800029D01*
X48140028Y9671118D01*
X48291611Y9569834D01*
X48460042Y9500068D01*
X48638846Y9464501D01*
X48821154Y9464501D01*
X48999958Y9500068D01*
X49168389Y9569834D01*
X49319972Y9671118D01*
X49448883Y9800029D01*
X49550167Y9951612D01*
X49619933Y10120043D01*
X49655500Y10298847D01*
X49655500Y10481155D01*
X49655499Y10481159D01*
X50344500Y10481159D01*
X50344500Y10298844D01*
X50380065Y10120051D01*
X50380067Y10120042D01*
X50449831Y9951616D01*
X50449833Y9951612D01*
X50551117Y9800029D01*
X50680028Y9671118D01*
X50831611Y9569834D01*
X51000042Y9500068D01*
X51178846Y9464501D01*
X51361154Y9464501D01*
X51539958Y9500068D01*
X51708389Y9569834D01*
X51859972Y9671118D01*
X51988883Y9800029D01*
X52090167Y9951612D01*
X52159933Y10120043D01*
X52195500Y10298847D01*
X52195500Y10481155D01*
X52195499Y10481159D01*
X52884500Y10481159D01*
X52884500Y10298844D01*
X52920065Y10120051D01*
X52920067Y10120042D01*
X52989831Y9951616D01*
X52989833Y9951612D01*
X53091117Y9800029D01*
X53220028Y9671118D01*
X53371611Y9569834D01*
X53540042Y9500068D01*
X53718846Y9464501D01*
X53901154Y9464501D01*
X54079958Y9500068D01*
X54248389Y9569834D01*
X54399972Y9671118D01*
X54528883Y9800029D01*
X54630167Y9951612D01*
X54699933Y10120043D01*
X54735500Y10298847D01*
X54735500Y10481103D01*
X55425000Y10481103D01*
X55425000Y10298900D01*
X55460547Y10120188D01*
X55460547Y10120187D01*
X55530273Y9951852D01*
X55541498Y9935053D01*
X55867037Y10260593D01*
X55884075Y10197008D01*
X55949901Y10082994D01*
X56042993Y9989902D01*
X56157007Y9924076D01*
X56220590Y9907039D01*
X55895051Y9581501D01*
X55911853Y9570274D01*
X56080186Y9500549D01*
X56258898Y9465001D01*
X56441102Y9465001D01*
X56619813Y9500549D01*
X56619814Y9500549D01*
X56788146Y9570274D01*
X56804947Y9581501D01*
X56479409Y9907039D01*
X56542993Y9924076D01*
X56657007Y9989902D01*
X56750099Y10082994D01*
X56815925Y10197008D01*
X56832962Y10260592D01*
X57158500Y9935054D01*
X57169727Y9951855D01*
X57239452Y10120187D01*
X57239452Y10120188D01*
X57275000Y10298900D01*
X57275000Y10481103D01*
X57239452Y10659815D01*
X57239452Y10659816D01*
X57169727Y10828148D01*
X57158500Y10844950D01*
X56832962Y10519412D01*
X56815925Y10582994D01*
X56750099Y10697008D01*
X56657007Y10790100D01*
X56542993Y10855926D01*
X56479408Y10872964D01*
X56804948Y11198503D01*
X56788149Y11209728D01*
X56619813Y11279454D01*
X56441102Y11315001D01*
X56258898Y11315001D01*
X56080186Y11279454D01*
X56080185Y11279454D01*
X55911847Y11209727D01*
X55895051Y11198504D01*
X55895051Y11198503D01*
X56220590Y10872964D01*
X56157007Y10855926D01*
X56042993Y10790100D01*
X55949901Y10697008D01*
X55884075Y10582994D01*
X55867037Y10519411D01*
X55541498Y10844950D01*
X55541497Y10844950D01*
X55530274Y10828154D01*
X55460547Y10659816D01*
X55460547Y10659815D01*
X55425000Y10481103D01*
X54735500Y10481103D01*
X54735500Y10481155D01*
X54699933Y10659959D01*
X54630167Y10828390D01*
X54528883Y10979973D01*
X54399972Y11108884D01*
X54248389Y11210168D01*
X54248386Y11210170D01*
X54248385Y11210170D01*
X54079959Y11279934D01*
X54079950Y11279936D01*
X53901157Y11315501D01*
X53901154Y11315501D01*
X53718846Y11315501D01*
X53718842Y11315501D01*
X53540049Y11279936D01*
X53540040Y11279934D01*
X53371614Y11210170D01*
X53220028Y11108885D01*
X53091116Y10979973D01*
X52989831Y10828387D01*
X52920067Y10659961D01*
X52920065Y10659952D01*
X52884500Y10481159D01*
X52195499Y10481159D01*
X52159933Y10659959D01*
X52090167Y10828390D01*
X51988883Y10979973D01*
X51859972Y11108884D01*
X51708389Y11210168D01*
X51708386Y11210170D01*
X51708385Y11210170D01*
X51539959Y11279934D01*
X51539950Y11279936D01*
X51361157Y11315501D01*
X51361154Y11315501D01*
X51178846Y11315501D01*
X51178842Y11315501D01*
X51000049Y11279936D01*
X51000040Y11279934D01*
X50831614Y11210170D01*
X50680028Y11108885D01*
X50551116Y10979973D01*
X50449831Y10828387D01*
X50380067Y10659961D01*
X50380065Y10659952D01*
X50344500Y10481159D01*
X49655499Y10481159D01*
X49619933Y10659959D01*
X49550167Y10828390D01*
X49448883Y10979973D01*
X49319972Y11108884D01*
X49168389Y11210168D01*
X49168386Y11210170D01*
X49168385Y11210170D01*
X48999959Y11279934D01*
X48999950Y11279936D01*
X48821157Y11315501D01*
X48821154Y11315501D01*
X48638846Y11315501D01*
X48638842Y11315501D01*
X48460049Y11279936D01*
X48460040Y11279934D01*
X48291614Y11210170D01*
X48140028Y11108885D01*
X48011116Y10979973D01*
X47909831Y10828387D01*
X47840067Y10659961D01*
X47840065Y10659952D01*
X47804500Y10481159D01*
X47115499Y10481159D01*
X47105895Y10529440D01*
X47105863Y10529610D01*
X47105889Y10529738D01*
X47105000Y10538766D01*
X47105000Y16029076D01*
X47119265Y16063637D01*
X47284797Y16230000D01*
X49160000Y18114626D01*
X49160000Y19231316D01*
X49760000Y19231316D01*
X49760000Y18978685D01*
X49799519Y18729165D01*
X49799520Y18729162D01*
X49877587Y18488896D01*
X49992281Y18263798D01*
X50067168Y18160723D01*
X50534869Y18628424D01*
X50623203Y18496223D01*
X50756223Y18363203D01*
X50888422Y18274871D01*
X50420722Y17807171D01*
X50523800Y17732280D01*
X50748895Y17617588D01*
X50989161Y17539521D01*
X50989164Y17539520D01*
X51238685Y17500000D01*
X51491315Y17500000D01*
X51740835Y17539520D01*
X51740838Y17539521D01*
X51981104Y17617588D01*
X52206199Y17732280D01*
X52309276Y17807171D01*
X51841577Y18274870D01*
X51973777Y18363203D01*
X52106797Y18496223D01*
X52195130Y18628423D01*
X52662829Y18160724D01*
X52737720Y18263801D01*
X52852412Y18488896D01*
X52930479Y18729162D01*
X52930480Y18729165D01*
X52970000Y18978685D01*
X52970000Y19231316D01*
X52930480Y19480836D01*
X52930479Y19480839D01*
X52852412Y19721105D01*
X52737720Y19946200D01*
X52662829Y20049278D01*
X52195129Y19581578D01*
X52106797Y19713777D01*
X51973777Y19846797D01*
X51841575Y19935131D01*
X52309277Y20402832D01*
X52206202Y20477719D01*
X51981104Y20592413D01*
X51740838Y20670480D01*
X51740835Y20670481D01*
X51491315Y20710000D01*
X51238685Y20710000D01*
X50989164Y20670481D01*
X50989161Y20670480D01*
X50748895Y20592413D01*
X50523797Y20477719D01*
X50420721Y20402832D01*
X50888422Y19935131D01*
X50756223Y19846797D01*
X50623203Y19713777D01*
X50534869Y19581578D01*
X50067168Y20049279D01*
X49992281Y19946203D01*
X49877587Y19721105D01*
X49799520Y19480839D01*
X49799519Y19480836D01*
X49760000Y19231316D01*
X49160000Y19231316D01*
X49160000Y20632914D01*
X49174326Y20667537D01*
X50093972Y21588475D01*
X50128573Y21602850D01*
X52578345Y21606291D01*
X52613011Y21591989D01*
G37*
%TD.AperFunction*%
%TD*%
%TA.AperFunction,Conductor*%
%TO.N,+5V*%
G36*
X86973039Y65240315D02*
G01*
X87018794Y65187511D01*
X87030000Y65136000D01*
X87030000Y57444000D01*
X87010315Y57376961D01*
X86957511Y57331206D01*
X86906000Y57320000D01*
X84325080Y57320000D01*
X84258041Y57339685D01*
X84212286Y57392489D01*
X84204253Y57446096D01*
X84201356Y57446096D01*
X84201356Y57559675D01*
X84201356Y57559677D01*
X84174063Y57661537D01*
X84125903Y57744952D01*
X84109431Y57812850D01*
X84125903Y57868949D01*
X84174063Y57952363D01*
X84201356Y58054223D01*
X84201356Y58159677D01*
X84174063Y58261537D01*
X84121336Y58352863D01*
X84046769Y58427430D01*
X83955443Y58480157D01*
X83853583Y58507450D01*
X83748129Y58507450D01*
X83646269Y58480157D01*
X83646266Y58480156D01*
X83554941Y58427429D01*
X83480377Y58352865D01*
X83427650Y58261540D01*
X83427649Y58261537D01*
X83400356Y58159677D01*
X83400356Y58054224D01*
X83427649Y57952364D01*
X83427650Y57952361D01*
X83475807Y57868950D01*
X83492280Y57801049D01*
X83475807Y57744950D01*
X83427650Y57661540D01*
X83427649Y57661537D01*
X83400356Y57559677D01*
X83400356Y57446096D01*
X83397374Y57446096D01*
X83388807Y57391153D01*
X83342428Y57338896D01*
X83276632Y57320000D01*
X62769999Y57320000D01*
X61100000Y55650001D01*
X61100000Y26750000D01*
X63713681Y24136319D01*
X63737738Y24092262D01*
X63750000Y24080000D01*
X66858638Y24080000D01*
X66925677Y24060315D01*
X66946319Y24043681D01*
X68983681Y22006319D01*
X69017166Y21944996D01*
X69020000Y21918638D01*
X69020000Y19130001D01*
X72725500Y19130001D01*
X72792539Y19110316D01*
X72838294Y19057512D01*
X72849500Y19006001D01*
X72849500Y18392255D01*
X72829815Y18325216D01*
X72813181Y18304574D01*
X72779521Y18270915D01*
X72726794Y18179590D01*
X72726793Y18179587D01*
X72699500Y18077727D01*
X72699500Y17972273D01*
X72726793Y17870413D01*
X72779520Y17779087D01*
X72854087Y17704520D01*
X72945413Y17651793D01*
X73047273Y17624500D01*
X73047275Y17624500D01*
X73152725Y17624500D01*
X73152727Y17624500D01*
X73254587Y17651793D01*
X73345913Y17704520D01*
X73420480Y17779087D01*
X73473207Y17870413D01*
X73500500Y17972273D01*
X73500500Y18077727D01*
X73473207Y18179587D01*
X73420480Y18270913D01*
X73386819Y18304574D01*
X73353334Y18365897D01*
X73350500Y18392255D01*
X73350500Y19006001D01*
X73370185Y19073040D01*
X73422989Y19118795D01*
X73474500Y19130001D01*
X74473798Y19130001D01*
X74540837Y19110316D01*
X74586592Y19057512D01*
X74596536Y18988354D01*
X74593574Y18973914D01*
X74588617Y18955412D01*
X74574500Y18902727D01*
X74574500Y18797274D01*
X74601793Y18695414D01*
X74601794Y18695411D01*
X74615922Y18670941D01*
X74654520Y18604087D01*
X74729087Y18529520D01*
X74820413Y18476793D01*
X74922273Y18449500D01*
X74922275Y18449500D01*
X75027725Y18449500D01*
X75027727Y18449500D01*
X75129587Y18476793D01*
X75220913Y18529520D01*
X75295480Y18604087D01*
X75348207Y18695413D01*
X75375500Y18797273D01*
X75375500Y18902727D01*
X75356427Y18973910D01*
X75358090Y19043758D01*
X75397253Y19101620D01*
X75461481Y19129124D01*
X75476202Y19130001D01*
X75500500Y19130001D01*
X75567539Y19110316D01*
X75613294Y19057512D01*
X75624500Y19006001D01*
X75624500Y18417256D01*
X75604815Y18350217D01*
X75588182Y18329575D01*
X75529520Y18270913D01*
X75476794Y18179590D01*
X75476793Y18179587D01*
X75449500Y18077727D01*
X75449500Y17972273D01*
X75476793Y17870413D01*
X75529520Y17779087D01*
X75604087Y17704520D01*
X75695413Y17651793D01*
X75797273Y17624500D01*
X75797275Y17624500D01*
X75902725Y17624500D01*
X75902727Y17624500D01*
X76004587Y17651793D01*
X76095913Y17704520D01*
X76170480Y17779087D01*
X76197897Y17826576D01*
X76248463Y17874790D01*
X76317070Y17888013D01*
X76381935Y17862045D01*
X76412669Y17826576D01*
X76454520Y17754087D01*
X76529087Y17679520D01*
X76620413Y17626793D01*
X76722273Y17599500D01*
X76722275Y17599500D01*
X76827725Y17599500D01*
X76827727Y17599500D01*
X76877095Y17612728D01*
X90029500Y17612728D01*
X90029500Y17507274D01*
X90056793Y17405414D01*
X90109520Y17314088D01*
X90184087Y17239521D01*
X90275413Y17186794D01*
X90377273Y17159501D01*
X90377275Y17159501D01*
X90482725Y17159501D01*
X90482727Y17159501D01*
X90584587Y17186794D01*
X90675913Y17239521D01*
X90750480Y17314088D01*
X90803207Y17405414D01*
X90805167Y17412728D01*
X92129500Y17412728D01*
X92129500Y17307274D01*
X92156793Y17205414D01*
X92209520Y17114088D01*
X92284087Y17039521D01*
X92375413Y16986794D01*
X92477273Y16959501D01*
X92477275Y16959501D01*
X92582725Y16959501D01*
X92582727Y16959501D01*
X92684587Y16986794D01*
X92775913Y17039521D01*
X92850480Y17114088D01*
X92903207Y17205414D01*
X92930500Y17307274D01*
X92930500Y17412728D01*
X92903207Y17514588D01*
X92850480Y17605914D01*
X92775913Y17680481D01*
X92684587Y17733208D01*
X92582727Y17760501D01*
X92477273Y17760501D01*
X92375413Y17733208D01*
X92375410Y17733207D01*
X92284085Y17680480D01*
X92209521Y17605916D01*
X92156794Y17514591D01*
X92156793Y17514588D01*
X92129500Y17412728D01*
X90805167Y17412728D01*
X90830500Y17507274D01*
X90830500Y17612728D01*
X90803207Y17714588D01*
X90750480Y17805914D01*
X90675913Y17880481D01*
X90584587Y17933208D01*
X90482727Y17960501D01*
X90377273Y17960501D01*
X90275413Y17933208D01*
X90275410Y17933207D01*
X90184085Y17880480D01*
X90109521Y17805916D01*
X90056794Y17714591D01*
X90056793Y17714588D01*
X90029500Y17612728D01*
X76877095Y17612728D01*
X76929587Y17626793D01*
X77020913Y17679520D01*
X77095480Y17754087D01*
X77137331Y17826577D01*
X77187895Y17874789D01*
X77256502Y17888013D01*
X77321367Y17862045D01*
X77352102Y17826575D01*
X77360097Y17812728D01*
X77379520Y17779087D01*
X77454087Y17704520D01*
X77545413Y17651793D01*
X77647273Y17624500D01*
X77647275Y17624500D01*
X77752725Y17624500D01*
X77752727Y17624500D01*
X77854587Y17651793D01*
X77945913Y17704520D01*
X78020480Y17779087D01*
X78073207Y17870413D01*
X78100500Y17972273D01*
X78100500Y18077727D01*
X78073207Y18179587D01*
X78020480Y18270913D01*
X77945913Y18345480D01*
X77854587Y18398207D01*
X77752727Y18425500D01*
X77752726Y18425500D01*
X77705122Y18425500D01*
X77638083Y18445185D01*
X77617441Y18461819D01*
X77160941Y18918320D01*
X77127456Y18979643D01*
X77132440Y19049335D01*
X77174312Y19105268D01*
X77239776Y19129685D01*
X77248622Y19130001D01*
X79073798Y19130001D01*
X79140837Y19110316D01*
X79186592Y19057512D01*
X79196536Y18988354D01*
X79193574Y18973914D01*
X79188617Y18955412D01*
X79174500Y18902727D01*
X79174500Y18797274D01*
X79201793Y18695414D01*
X79201794Y18695411D01*
X79215922Y18670941D01*
X79254520Y18604087D01*
X79329087Y18529520D01*
X79420413Y18476793D01*
X79522273Y18449500D01*
X79522275Y18449500D01*
X79627725Y18449500D01*
X79627727Y18449500D01*
X79729587Y18476793D01*
X79820913Y18529520D01*
X79895480Y18604087D01*
X79948207Y18695413D01*
X79975500Y18797273D01*
X79975500Y18902727D01*
X79956427Y18973910D01*
X79958090Y19043758D01*
X79997253Y19101620D01*
X80061481Y19129124D01*
X80076202Y19130001D01*
X80100500Y19130001D01*
X80167539Y19110316D01*
X80213294Y19057512D01*
X80224500Y19006001D01*
X80224500Y18417256D01*
X80204815Y18350217D01*
X80188182Y18329575D01*
X80129520Y18270913D01*
X80076794Y18179590D01*
X80076793Y18179587D01*
X80049500Y18077727D01*
X80049500Y17972273D01*
X80076793Y17870413D01*
X80129520Y17779087D01*
X80204087Y17704520D01*
X80295413Y17651793D01*
X80397273Y17624500D01*
X80397275Y17624500D01*
X80502725Y17624500D01*
X80502727Y17624500D01*
X80604587Y17651793D01*
X80695913Y17704520D01*
X80770480Y17779087D01*
X80823207Y17870413D01*
X80850500Y17972273D01*
X80850500Y18077727D01*
X80823207Y18179587D01*
X80770480Y18270913D01*
X80711818Y18329575D01*
X80678334Y18390899D01*
X80675500Y18417256D01*
X80675500Y19006001D01*
X80695185Y19073040D01*
X80747989Y19118795D01*
X80799500Y19130001D01*
X86750000Y19130001D01*
X89282727Y21662728D01*
X90554500Y21662728D01*
X90554500Y21557274D01*
X90581793Y21455414D01*
X90634520Y21364088D01*
X90709087Y21289521D01*
X90800413Y21236794D01*
X90902273Y21209501D01*
X90902275Y21209501D01*
X91007725Y21209501D01*
X91007727Y21209501D01*
X91109587Y21236794D01*
X91200913Y21289521D01*
X91275480Y21364088D01*
X91328207Y21455414D01*
X91355500Y21557274D01*
X91355500Y21662728D01*
X91328207Y21764588D01*
X91275480Y21855914D01*
X91200913Y21930481D01*
X91109587Y21983208D01*
X91007727Y22010501D01*
X90902273Y22010501D01*
X90800413Y21983208D01*
X90800410Y21983207D01*
X90709085Y21930480D01*
X90634521Y21855916D01*
X90581794Y21764591D01*
X90581793Y21764588D01*
X90554500Y21662728D01*
X89282727Y21662728D01*
X90493681Y22873682D01*
X90555004Y22907167D01*
X90581362Y22910001D01*
X91805456Y22910001D01*
X91872495Y22890316D01*
X91918250Y22837512D01*
X91928194Y22768354D01*
X91899169Y22704798D01*
X91867456Y22678614D01*
X91784085Y22630480D01*
X91709521Y22555916D01*
X91656794Y22464591D01*
X91656793Y22464588D01*
X91629500Y22362728D01*
X91629500Y22257274D01*
X91656793Y22155414D01*
X91709520Y22064088D01*
X91784087Y21989521D01*
X91875413Y21936794D01*
X91977273Y21909501D01*
X91977275Y21909501D01*
X92082725Y21909501D01*
X92082727Y21909501D01*
X92184587Y21936794D01*
X92275913Y21989521D01*
X92350480Y22064088D01*
X92403207Y22155414D01*
X92430500Y22257274D01*
X92430500Y22362728D01*
X92403207Y22464588D01*
X92350480Y22555914D01*
X92275913Y22630481D01*
X92192543Y22678615D01*
X92144328Y22729181D01*
X92131106Y22797788D01*
X92157074Y22862653D01*
X92213988Y22903181D01*
X92254544Y22910001D01*
X94808082Y22910001D01*
X94847273Y22899500D01*
X94952727Y22899500D01*
X94991918Y22910001D01*
X95356000Y22910001D01*
X95423039Y22890316D01*
X95468794Y22837512D01*
X95480000Y22786001D01*
X95480000Y20961363D01*
X95460315Y20894324D01*
X95443681Y20873682D01*
X93865563Y19295565D01*
X93804240Y19262080D01*
X93734548Y19267064D01*
X93678615Y19308936D01*
X93670499Y19321240D01*
X93650480Y19355914D01*
X93575913Y19430481D01*
X93484587Y19483208D01*
X93382727Y19510501D01*
X93277273Y19510501D01*
X93175413Y19483208D01*
X93175410Y19483207D01*
X93084085Y19430480D01*
X93009521Y19355916D01*
X92956794Y19264591D01*
X92956793Y19264588D01*
X92929500Y19162728D01*
X92929500Y19057274D01*
X92956793Y18955414D01*
X93009520Y18864088D01*
X93084087Y18789521D01*
X93175413Y18736794D01*
X93277273Y18709501D01*
X93277275Y18709501D01*
X93382725Y18709501D01*
X93382727Y18709501D01*
X93484587Y18736794D01*
X93575913Y18789521D01*
X93575919Y18789528D01*
X93580515Y18793053D01*
X93645684Y18818246D01*
X93714129Y18804207D01*
X93764118Y18755393D01*
X93780000Y18694676D01*
X93780000Y12118244D01*
X93760315Y12051205D01*
X93707511Y12005450D01*
X93656000Y11994244D01*
X93036544Y11994244D01*
X92969505Y12013929D01*
X92929158Y12056242D01*
X92900480Y12105914D01*
X92825913Y12180481D01*
X92734587Y12233208D01*
X92632727Y12260501D01*
X92527273Y12260501D01*
X92425413Y12233208D01*
X92425410Y12233207D01*
X92334085Y12180480D01*
X92259522Y12105917D01*
X92259520Y12105915D01*
X92259520Y12105914D01*
X92230841Y12056242D01*
X92180275Y12008028D01*
X92123456Y11994244D01*
X88996062Y11994244D01*
X88929023Y12013929D01*
X88883268Y12066733D01*
X88873324Y12135891D01*
X88888675Y12180244D01*
X88888812Y12180481D01*
X88903207Y12205414D01*
X88930500Y12307274D01*
X88930500Y12412728D01*
X88903207Y12514588D01*
X88850480Y12605914D01*
X88775913Y12680481D01*
X88775912Y12680482D01*
X88773906Y12682488D01*
X88773297Y12682766D01*
X88772701Y12683693D01*
X88770166Y12686228D01*
X88770717Y12686780D01*
X88756317Y12709187D01*
X88737803Y12734553D01*
X88736980Y12739277D01*
X88735523Y12741544D01*
X88730500Y12776479D01*
X88730500Y12825590D01*
X88750185Y12892629D01*
X88766814Y12913266D01*
X90077282Y14223735D01*
X90138603Y14257218D01*
X90169146Y14258491D01*
X90169146Y14259501D01*
X90282725Y14259501D01*
X90282727Y14259501D01*
X90384587Y14286794D01*
X90475913Y14339521D01*
X90550480Y14414088D01*
X90603207Y14505414D01*
X90630500Y14607274D01*
X90630500Y14712728D01*
X90603207Y14814588D01*
X90550480Y14905914D01*
X90543666Y14912728D01*
X91329500Y14912728D01*
X91329500Y14807274D01*
X91356793Y14705414D01*
X91409520Y14614088D01*
X91484087Y14539521D01*
X91575413Y14486794D01*
X91677273Y14459501D01*
X91677275Y14459501D01*
X91782725Y14459501D01*
X91782727Y14459501D01*
X91884587Y14486794D01*
X91975913Y14539521D01*
X92050480Y14614088D01*
X92103207Y14705414D01*
X92130500Y14807274D01*
X92130500Y14912728D01*
X92103207Y15014588D01*
X92050480Y15105914D01*
X91975913Y15180481D01*
X91884587Y15233208D01*
X91782727Y15260501D01*
X91677273Y15260501D01*
X91575413Y15233208D01*
X91575410Y15233207D01*
X91484085Y15180480D01*
X91409521Y15105916D01*
X91356794Y15014591D01*
X91356793Y15014588D01*
X91329500Y14912728D01*
X90543666Y14912728D01*
X90475913Y14980481D01*
X90409059Y15019079D01*
X90384589Y15033207D01*
X90384588Y15033208D01*
X90384587Y15033208D01*
X90282727Y15060501D01*
X90177273Y15060501D01*
X90075413Y15033208D01*
X90075410Y15033207D01*
X89984085Y14980480D01*
X89909521Y14905916D01*
X89856794Y14814591D01*
X89856793Y14814588D01*
X89829500Y14712728D01*
X89829500Y14599147D01*
X89827120Y14599147D01*
X89818216Y14542100D01*
X89793731Y14507284D01*
X88416426Y13129977D01*
X88360025Y13073577D01*
X88360024Y13073576D01*
X88329500Y12999885D01*
X88329500Y12776479D01*
X88309815Y12709440D01*
X88289121Y12686941D01*
X88289834Y12686228D01*
X88209520Y12605914D01*
X88156794Y12514591D01*
X88156793Y12514588D01*
X88129500Y12412728D01*
X88129500Y12307274D01*
X88140986Y12264410D01*
X88156793Y12205415D01*
X88156794Y12205412D01*
X88171325Y12180244D01*
X88187798Y12112344D01*
X88164946Y12046317D01*
X88110024Y12003127D01*
X88063938Y11994244D01*
X85077028Y11994244D01*
X85009989Y12013929D01*
X84989347Y12030563D01*
X84791819Y12228091D01*
X84758334Y12289414D01*
X84755500Y12315772D01*
X84755500Y15512728D01*
X87479500Y15512728D01*
X87479500Y15407274D01*
X87506793Y15305414D01*
X87559520Y15214088D01*
X87634087Y15139521D01*
X87725413Y15086794D01*
X87827273Y15059501D01*
X87827275Y15059501D01*
X87932725Y15059501D01*
X87932727Y15059501D01*
X88034587Y15086794D01*
X88125913Y15139521D01*
X88200480Y15214088D01*
X88253207Y15305414D01*
X88280500Y15407274D01*
X88280500Y15512728D01*
X88579500Y15512728D01*
X88579500Y15407274D01*
X88606793Y15305414D01*
X88659520Y15214088D01*
X88734087Y15139521D01*
X88825413Y15086794D01*
X88927273Y15059501D01*
X88927275Y15059501D01*
X89032725Y15059501D01*
X89032727Y15059501D01*
X89134587Y15086794D01*
X89225913Y15139521D01*
X89300480Y15214088D01*
X89353207Y15305414D01*
X89380500Y15407274D01*
X89380500Y15512728D01*
X89367103Y15562728D01*
X92279500Y15562728D01*
X92279500Y15457274D01*
X92306793Y15355414D01*
X92359520Y15264088D01*
X92434087Y15189521D01*
X92525413Y15136794D01*
X92627273Y15109501D01*
X92627275Y15109501D01*
X92732725Y15109501D01*
X92732727Y15109501D01*
X92834587Y15136794D01*
X92925913Y15189521D01*
X93000480Y15264088D01*
X93053207Y15355414D01*
X93080500Y15457274D01*
X93080500Y15562728D01*
X93053207Y15664588D01*
X93000480Y15755914D01*
X92925913Y15830481D01*
X92834587Y15883208D01*
X92732727Y15910501D01*
X92627273Y15910501D01*
X92525413Y15883208D01*
X92525410Y15883207D01*
X92434085Y15830480D01*
X92359521Y15755916D01*
X92306794Y15664591D01*
X92306793Y15664588D01*
X92279500Y15562728D01*
X89367103Y15562728D01*
X89353207Y15614588D01*
X89300480Y15705914D01*
X89225913Y15780481D01*
X89139312Y15830480D01*
X89134589Y15833207D01*
X89134588Y15833208D01*
X89134587Y15833208D01*
X89032727Y15860501D01*
X88927273Y15860501D01*
X88825413Y15833208D01*
X88825410Y15833207D01*
X88734085Y15780480D01*
X88659521Y15705916D01*
X88606794Y15614591D01*
X88606793Y15614588D01*
X88579500Y15512728D01*
X88280500Y15512728D01*
X88253207Y15614588D01*
X88200480Y15705914D01*
X88125913Y15780481D01*
X88039312Y15830480D01*
X88034589Y15833207D01*
X88034588Y15833208D01*
X88034587Y15833208D01*
X87932727Y15860501D01*
X87827273Y15860501D01*
X87725413Y15833208D01*
X87725410Y15833207D01*
X87634085Y15780480D01*
X87559521Y15705916D01*
X87506794Y15614591D01*
X87506793Y15614588D01*
X87479500Y15512728D01*
X84755500Y15512728D01*
X84755500Y16295992D01*
X84755499Y16296009D01*
X84754655Y16303860D01*
X84751946Y16329055D01*
X84740740Y16380566D01*
X84723545Y16414916D01*
X84706313Y16449343D01*
X84671385Y16489651D01*
X84660563Y16502140D01*
X84655577Y16507624D01*
X84586854Y16549514D01*
X84586848Y16549517D01*
X84541857Y16562728D01*
X87479500Y16562728D01*
X87479500Y16457274D01*
X87506793Y16355414D01*
X87559520Y16264088D01*
X87634087Y16189521D01*
X87725413Y16136794D01*
X87827273Y16109501D01*
X87827275Y16109501D01*
X87932725Y16109501D01*
X87932727Y16109501D01*
X88034587Y16136794D01*
X88125913Y16189521D01*
X88200480Y16264088D01*
X88253207Y16355414D01*
X88280500Y16457274D01*
X88280500Y16562728D01*
X88579500Y16562728D01*
X88579500Y16457274D01*
X88606793Y16355414D01*
X88659520Y16264088D01*
X88734087Y16189521D01*
X88825413Y16136794D01*
X88927273Y16109501D01*
X88927275Y16109501D01*
X89032725Y16109501D01*
X89032727Y16109501D01*
X89134587Y16136794D01*
X89225913Y16189521D01*
X89300480Y16264088D01*
X89353207Y16355414D01*
X89380500Y16457274D01*
X89380500Y16562728D01*
X89353207Y16664588D01*
X89300480Y16755914D01*
X89225913Y16830481D01*
X89134587Y16883208D01*
X89032727Y16910501D01*
X88927273Y16910501D01*
X88825413Y16883208D01*
X88825410Y16883207D01*
X88734085Y16830480D01*
X88659521Y16755916D01*
X88606794Y16664591D01*
X88606793Y16664588D01*
X88579500Y16562728D01*
X88280500Y16562728D01*
X88253207Y16664588D01*
X88200480Y16755914D01*
X88125913Y16830481D01*
X88034587Y16883208D01*
X87932727Y16910501D01*
X87827273Y16910501D01*
X87725413Y16883208D01*
X87725410Y16883207D01*
X87634085Y16830480D01*
X87559521Y16755916D01*
X87506794Y16664591D01*
X87506793Y16664588D01*
X87479500Y16562728D01*
X84541857Y16562728D01*
X84519812Y16569201D01*
X84519802Y16569203D01*
X84476003Y16575500D01*
X84476000Y16575500D01*
X66312869Y16575500D01*
X66296261Y16574610D01*
X66296252Y16574610D01*
X66296246Y16574609D01*
X66296240Y16574609D01*
X66296209Y16574606D01*
X66263833Y16571124D01*
X66263785Y16571565D01*
X66248592Y16570000D01*
X59545925Y16570000D01*
X59478886Y16589685D01*
X59465154Y16599915D01*
X58975815Y17020009D01*
X58937771Y17078613D01*
X58936811Y17146185D01*
X58950500Y17197273D01*
X58950500Y17302727D01*
X58923207Y17404587D01*
X58870480Y17495913D01*
X58795913Y17570480D01*
X58704587Y17623207D01*
X58602727Y17650500D01*
X58497273Y17650500D01*
X58395413Y17623207D01*
X58395411Y17623207D01*
X58387562Y17621103D01*
X58386694Y17624343D01*
X58332650Y17618579D01*
X58270198Y17649908D01*
X58267091Y17652909D01*
X57724512Y18195488D01*
X57704374Y18225626D01*
X54064990Y21865010D01*
X57311783Y21865010D01*
X57311783Y21759556D01*
X57339076Y21657696D01*
X57391803Y21566370D01*
X57466370Y21491803D01*
X57557696Y21439076D01*
X57659556Y21411783D01*
X57659558Y21411783D01*
X57765008Y21411783D01*
X57765010Y21411783D01*
X57866870Y21439076D01*
X57958196Y21491803D01*
X58032763Y21566370D01*
X58085490Y21657696D01*
X58112783Y21759556D01*
X58112783Y21865010D01*
X58085490Y21966870D01*
X58032763Y22058196D01*
X57958196Y22132763D01*
X57866870Y22185490D01*
X57765010Y22212783D01*
X57659556Y22212783D01*
X57557696Y22185490D01*
X57557693Y22185489D01*
X57466368Y22132762D01*
X57391804Y22058198D01*
X57339077Y21966873D01*
X57339076Y21966870D01*
X57311783Y21865010D01*
X54064990Y21865010D01*
X49556345Y26373655D01*
X49522860Y26434978D01*
X49527844Y26504670D01*
X49569716Y26560603D01*
X49635180Y26585020D01*
X49644026Y26585336D01*
X53434108Y26585336D01*
X53448603Y26585336D01*
X53448722Y26585301D01*
X53500000Y26585301D01*
X53607319Y26585301D01*
X53607320Y26585301D01*
X53777858Y26609822D01*
X53819771Y26615847D01*
X53819772Y26615848D01*
X53819776Y26615848D01*
X54025722Y26676321D01*
X54220965Y26765488D01*
X54401530Y26881533D01*
X54563743Y27022096D01*
X54700718Y27180180D01*
X54704290Y27184302D01*
X54704292Y27184306D01*
X54704299Y27184313D01*
X54820339Y27364882D01*
X54909499Y27560129D01*
X54910789Y27564521D01*
X54969963Y27766073D01*
X54969962Y27766073D01*
X54969964Y27766076D01*
X55000504Y27978533D01*
X55000500Y28085854D01*
X55000500Y28099500D01*
X55000500Y35144622D01*
X54997651Y35155255D01*
X54994171Y35181677D01*
X54993741Y35181646D01*
X54993425Y35186055D01*
X54993425Y35186063D01*
X54962873Y35398514D01*
X54902398Y35604455D01*
X54813230Y35799693D01*
X54711955Y35957274D01*
X54697187Y35980253D01*
X54697183Y35980258D01*
X54556622Y36142466D01*
X54394414Y36283016D01*
X54394401Y36283025D01*
X54213858Y36399050D01*
X54213850Y36399055D01*
X54063329Y36467794D01*
X54010525Y36513549D01*
X53990840Y36580588D01*
X54010524Y36647628D01*
X54063324Y36693381D01*
X54220998Y36765393D01*
X54401566Y36881446D01*
X54563779Y37022016D01*
X54704334Y37184241D01*
X54820371Y37364820D01*
X54909527Y37560074D01*
X54912081Y37568772D01*
X54969985Y37766023D01*
X54969985Y37766024D01*
X54969987Y37766030D01*
X55000519Y37978493D01*
X55000511Y38085817D01*
X55000511Y39552727D01*
X58099500Y39552727D01*
X58099500Y39447273D01*
X58126793Y39345413D01*
X58179520Y39254087D01*
X58254087Y39179520D01*
X58345413Y39126793D01*
X58447273Y39099500D01*
X58447275Y39099500D01*
X58552725Y39099500D01*
X58552727Y39099500D01*
X58654587Y39126793D01*
X58745913Y39179520D01*
X58820480Y39254087D01*
X58873207Y39345413D01*
X58900500Y39447273D01*
X58900500Y39552727D01*
X58873207Y39654587D01*
X58820480Y39745913D01*
X58745913Y39820480D01*
X58654587Y39873207D01*
X58552727Y39900500D01*
X58447273Y39900500D01*
X58345413Y39873207D01*
X58345410Y39873206D01*
X58254085Y39820479D01*
X58179521Y39745915D01*
X58126794Y39654590D01*
X58126793Y39654587D01*
X58099500Y39552727D01*
X55000511Y39552727D01*
X55000511Y40151670D01*
X55000511Y40203870D01*
X55000511Y40203876D01*
X54963564Y40437147D01*
X54890577Y40661775D01*
X54806125Y40827520D01*
X54783354Y40872211D01*
X54644528Y41063288D01*
X54477521Y41230295D01*
X54286444Y41369121D01*
X54078018Y41475320D01*
X54027222Y41523295D01*
X54010427Y41591116D01*
X54032965Y41657251D01*
X54078014Y41696288D01*
X54286430Y41802482D01*
X54477502Y41941305D01*
X54644505Y42108310D01*
X54783327Y42299383D01*
X54890549Y42509820D01*
X54963532Y42734440D01*
X54998707Y42956527D01*
X55000478Y42967706D01*
X55000478Y43203897D01*
X54970354Y43394088D01*
X54963532Y43437162D01*
X54890549Y43661782D01*
X54783327Y43872219D01*
X54720929Y43958103D01*
X54644508Y44063289D01*
X54477504Y44230295D01*
X54477503Y44230296D01*
X54477502Y44230297D01*
X54286430Y44369120D01*
X54286419Y44369126D01*
X54286417Y44369127D01*
X54078048Y44475298D01*
X54027253Y44523272D01*
X54010458Y44591093D01*
X54032996Y44657228D01*
X54078049Y44696267D01*
X54140179Y44727924D01*
X54286433Y44802444D01*
X54477510Y44941270D01*
X54644517Y45108277D01*
X54783343Y45299354D01*
X54890568Y45509795D01*
X54963553Y45734419D01*
X54975898Y45812364D01*
X55000500Y45967690D01*
X55000500Y46176341D01*
X55000499Y46176347D01*
X55000499Y51034331D01*
X55000586Y51034628D01*
X55000586Y51085780D01*
X55000587Y51193105D01*
X54970040Y51405570D01*
X54909565Y51611524D01*
X54820393Y51806775D01*
X54704339Y51987346D01*
X54563767Y52149562D01*
X54563762Y52149568D01*
X54432967Y52262890D01*
X54401539Y52290120D01*
X54220957Y52406157D01*
X54025699Y52495312D01*
X54025697Y52495313D01*
X53913971Y52528109D01*
X53819739Y52555769D01*
X53819736Y52555770D01*
X53819731Y52555771D01*
X53819731Y52555772D01*
X53607275Y52586298D01*
X53607272Y52586298D01*
X53533922Y52586291D01*
X53509471Y52586288D01*
X53509465Y52586290D01*
X53509459Y52586288D01*
X46570307Y52586287D01*
X46551375Y52586287D01*
X46551331Y52586300D01*
X46500000Y52586300D01*
X46392681Y52586300D01*
X46373209Y52583501D01*
X46180233Y52555756D01*
X46180227Y52555754D01*
X45974282Y52495282D01*
X45779051Y52406122D01*
X45779036Y52406114D01*
X45739616Y52380780D01*
X45672576Y52361096D01*
X45605537Y52380781D01*
X45559783Y52433586D01*
X45548579Y52485644D01*
X45549024Y52586300D01*
X45551294Y53099516D01*
X45571274Y53166464D01*
X45624280Y53211985D01*
X45693482Y53221623D01*
X45742329Y53203281D01*
X45748361Y53199405D01*
X45779075Y53179667D01*
X45779074Y53179667D01*
X45779078Y53179665D01*
X45779080Y53179664D01*
X45974326Y53090504D01*
X45974332Y53090503D01*
X45974335Y53090501D01*
X46128786Y53045156D01*
X46180273Y53030039D01*
X46392729Y52999498D01*
X46499799Y52999502D01*
X46499803Y52999502D01*
X53422990Y52999502D01*
X53423024Y52999500D01*
X53434152Y52999501D01*
X53434156Y52999499D01*
X53500048Y52999501D01*
X53500180Y52999502D01*
X53500513Y52999502D01*
X53565924Y52999501D01*
X53565927Y52999502D01*
X53575904Y52999502D01*
X53575920Y52999504D01*
X53618138Y52999504D01*
X53851408Y53036458D01*
X53851413Y53036460D01*
X53851415Y53036460D01*
X53918135Y53058141D01*
X54076026Y53109447D01*
X54286460Y53216675D01*
X54477530Y53355501D01*
X54644532Y53522507D01*
X54783352Y53713582D01*
X54890573Y53924020D01*
X54950829Y54109471D01*
X54963553Y54148633D01*
X54963555Y54148642D01*
X54968558Y54180226D01*
X54984878Y54283272D01*
X55000500Y54381906D01*
X55000500Y54618097D01*
X54963555Y54851361D01*
X54963553Y54851370D01*
X54890575Y55075978D01*
X54890573Y55075982D01*
X54783352Y55286420D01*
X54644533Y55477494D01*
X54644529Y55477498D01*
X54477530Y55644501D01*
X54477527Y55644503D01*
X54292364Y55779037D01*
X54286460Y55783327D01*
X54286455Y55783330D01*
X54286453Y55783331D01*
X54076024Y55890556D01*
X53851415Y55963543D01*
X53783638Y55974280D01*
X53618138Y56000498D01*
X53618136Y56000499D01*
X53618139Y56000499D01*
X53571056Y56000500D01*
X53571056Y56000501D01*
X53565924Y56000501D01*
X53500049Y56000501D01*
X53500040Y56000502D01*
X53434156Y56000503D01*
X53434155Y56000503D01*
X53425532Y56000503D01*
X53425504Y56000501D01*
X53406154Y56000501D01*
X53339115Y56020186D01*
X53293360Y56072990D01*
X53283416Y56142148D01*
X53312441Y56205704D01*
X53371219Y56243478D01*
X53389969Y56247440D01*
X53397158Y56248387D01*
X53491221Y56260770D01*
X53715272Y56320804D01*
X53929571Y56409570D01*
X54130450Y56525547D01*
X54314472Y56666752D01*
X54478489Y56830769D01*
X54619694Y57014791D01*
X54735671Y57215670D01*
X54824437Y57429969D01*
X54884471Y57654020D01*
X54914747Y57883991D01*
X54914747Y58115945D01*
X54884471Y58345916D01*
X54824437Y58569967D01*
X54735671Y58784266D01*
X54619694Y58985145D01*
X54478489Y59169167D01*
X54478484Y59169173D01*
X54314477Y59333180D01*
X54314470Y59333186D01*
X54130449Y59474390D01*
X53929574Y59590365D01*
X53929564Y59590369D01*
X53715270Y59679133D01*
X53575006Y59716716D01*
X53491221Y59739166D01*
X53491215Y59739167D01*
X53491210Y59739168D01*
X53389468Y59752562D01*
X53364648Y59763542D01*
X53338614Y59771186D01*
X53333173Y59777466D01*
X53325571Y59780828D01*
X53310625Y59803486D01*
X53292859Y59823990D01*
X53291676Y59832215D01*
X53287100Y59839153D01*
X53286777Y59866287D01*
X53282915Y59893148D01*
X53286367Y59900709D01*
X53286269Y59909018D01*
X53300666Y59932018D01*
X53311940Y59956704D01*
X53318931Y59961198D01*
X53323341Y59968241D01*
X53347887Y59979806D01*
X53370718Y59994478D01*
X53382679Y59996198D01*
X53386547Y59998020D01*
X53405653Y59999501D01*
X53425505Y59999501D01*
X53425533Y59999500D01*
X53434153Y59999501D01*
X53434157Y59999499D01*
X53500049Y59999501D01*
X53500051Y59999501D01*
X53577060Y59999501D01*
X53577087Y59999505D01*
X53618139Y59999505D01*
X53783567Y60025711D01*
X53851410Y60036458D01*
X53926281Y60060788D01*
X54076027Y60109447D01*
X54286461Y60216675D01*
X54477531Y60355501D01*
X54644532Y60522508D01*
X54783352Y60713582D01*
X54890573Y60924020D01*
X54962960Y61146807D01*
X54963553Y61148633D01*
X54963555Y61148642D01*
X54979649Y61250256D01*
X55000499Y61381907D01*
X55000500Y61381907D01*
X55000500Y61618096D01*
X54963555Y61851361D01*
X54963553Y61851370D01*
X54890575Y62075978D01*
X54890573Y62075982D01*
X54783359Y62286408D01*
X54783354Y62286416D01*
X54783352Y62286420D01*
X54772273Y62301669D01*
X54748796Y62367472D01*
X54764622Y62435526D01*
X54814728Y62484220D01*
X54834666Y62492606D01*
X63434848Y65254064D01*
X63472757Y65260000D01*
X86906000Y65260000D01*
X86973039Y65240315D01*
G37*
%TD.AperFunction*%
%TD*%
M02*
