%TF.GenerationSoftware,KiCad,Pcbnew,9.0.3*%
%TF.CreationDate,2025-10-01T00:39:15+02:00*%
%TF.ProjectId,PSU,5053552e-6b69-4636-9164-5f7063625858,0*%
%TF.SameCoordinates,Original*%
%TF.FileFunction,Soldermask,Top*%
%TF.FilePolarity,Negative*%
%FSLAX46Y46*%
G04 Gerber Fmt 4.6, Leading zero omitted, Abs format (unit mm)*
G04 Created by KiCad (PCBNEW 9.0.3) date 2025-10-01 00:39:15*
%MOMM*%
%LPD*%
G01*
G04 APERTURE LIST*
G04 Aperture macros list*
%AMRoundRect*
0 Rectangle with rounded corners*
0 $1 Rounding radius*
0 $2 $3 $4 $5 $6 $7 $8 $9 X,Y pos of 4 corners*
0 Add a 4 corners polygon primitive as box body*
4,1,4,$2,$3,$4,$5,$6,$7,$8,$9,$2,$3,0*
0 Add four circle primitives for the rounded corners*
1,1,$1+$1,$2,$3*
1,1,$1+$1,$4,$5*
1,1,$1+$1,$6,$7*
1,1,$1+$1,$8,$9*
0 Add four rect primitives between the rounded corners*
20,1,$1+$1,$2,$3,$4,$5,0*
20,1,$1+$1,$4,$5,$6,$7,0*
20,1,$1+$1,$6,$7,$8,$9,0*
20,1,$1+$1,$8,$9,$2,$3,0*%
%AMRotRect*
0 Rectangle, with rotation*
0 The origin of the aperture is its center*
0 $1 length*
0 $2 width*
0 $3 Rotation angle, in degrees counterclockwise*
0 Add horizontal line*
21,1,$1,$2,0,0,$3*%
%AMFreePoly0*
4,1,6,1.000000,0.000000,0.500000,-0.750000,-0.500000,-0.750000,-0.500000,0.750000,0.500000,0.750000,1.000000,0.000000,1.000000,0.000000,$1*%
%AMFreePoly1*
4,1,6,0.500000,-0.750000,-0.650000,-0.750000,-0.150000,0.000000,-0.650000,0.750000,0.500000,0.750000,0.500000,-0.750000,0.500000,-0.750000,$1*%
%AMFreePoly2*
4,1,23,0.500000,-0.750000,0.000000,-0.750000,0.000000,-0.745722,-0.065263,-0.745722,-0.191342,-0.711940,-0.304381,-0.646677,-0.396677,-0.554381,-0.461940,-0.441342,-0.495722,-0.315263,-0.495722,-0.250000,-0.500000,-0.250000,-0.500000,0.250000,-0.495722,0.250000,-0.495722,0.315263,-0.461940,0.441342,-0.396677,0.554381,-0.304381,0.646677,-0.191342,0.711940,-0.065263,0.745722,0.000000,0.745722,
0.000000,0.750000,0.500000,0.750000,0.500000,-0.750000,0.500000,-0.750000,$1*%
%AMFreePoly3*
4,1,23,0.000000,0.745722,0.065263,0.745722,0.191342,0.711940,0.304381,0.646677,0.396677,0.554381,0.461940,0.441342,0.495722,0.315263,0.495722,0.250000,0.500000,0.250000,0.500000,-0.250000,0.495722,-0.250000,0.495722,-0.315263,0.461940,-0.441342,0.396677,-0.554381,0.304381,-0.646677,0.191342,-0.711940,0.065263,-0.745722,0.000000,-0.745722,0.000000,-0.750000,-0.500000,-0.750000,
-0.500000,0.750000,0.000000,0.750000,0.000000,0.745722,0.000000,0.745722,$1*%
G04 Aperture macros list end*
%ADD10C,0.500000*%
%ADD11C,1.000000*%
%ADD12C,1.300000*%
%ADD13RoundRect,0.250001X-0.999999X0.499999X-0.999999X-0.499999X0.999999X-0.499999X0.999999X0.499999X0*%
%ADD14C,1.000000*%
%ADD15RoundRect,0.075000X-0.075000X0.725000X-0.075000X-0.725000X0.075000X-0.725000X0.075000X0.725000X0*%
%ADD16RoundRect,0.075000X-0.725000X0.075000X-0.725000X-0.075000X0.725000X-0.075000X0.725000X0.075000X0*%
%ADD17RoundRect,0.159000X-0.159000X-0.189000X0.159000X-0.189000X0.159000X0.189000X-0.159000X0.189000X0*%
%ADD18RoundRect,0.150000X-0.590000X-0.150000X0.590000X-0.150000X0.590000X0.150000X-0.590000X0.150000X0*%
%ADD19C,1.600000*%
%ADD20RoundRect,0.159000X-0.189000X0.159000X-0.189000X-0.159000X0.189000X-0.159000X0.189000X0.159000X0*%
%ADD21RoundRect,0.159000X0.159000X0.189000X-0.159000X0.189000X-0.159000X-0.189000X0.159000X-0.189000X0*%
%ADD22RoundRect,0.159000X0.189000X-0.159000X0.189000X0.159000X-0.189000X0.159000X-0.189000X-0.159000X0*%
%ADD23C,2.400000*%
%ADD24C,2.910000*%
%ADD25RoundRect,0.239000X0.274000X-0.239000X0.274000X0.239000X-0.274000X0.239000X-0.274000X-0.239000X0*%
%ADD26RoundRect,0.137500X-0.662500X-0.137500X0.662500X-0.137500X0.662500X0.137500X-0.662500X0.137500X0*%
%ADD27RoundRect,0.102000X-0.331500X-0.112500X0.331500X-0.112500X0.331500X0.112500X-0.331500X0.112500X0*%
%ADD28RoundRect,0.102000X-0.281500X-0.112500X0.281500X-0.112500X0.281500X0.112500X-0.281500X0.112500X0*%
%ADD29RoundRect,0.102000X-0.112500X-0.281500X0.112500X-0.281500X0.112500X0.281500X-0.112500X0.281500X0*%
%ADD30RoundRect,0.150000X0.512500X0.150000X-0.512500X0.150000X-0.512500X-0.150000X0.512500X-0.150000X0*%
%ADD31RoundRect,0.130000X1.170000X1.420000X-1.170000X1.420000X-1.170000X-1.420000X1.170000X-1.420000X0*%
%ADD32O,1.400000X2.000000*%
%ADD33O,2.500000X1.600000*%
%ADD34RoundRect,0.267317X-0.280683X-0.470683X0.280683X-0.470683X0.280683X0.470683X-0.280683X0.470683X0*%
%ADD35RoundRect,0.219000X-0.219000X-0.294000X0.219000X-0.294000X0.219000X0.294000X-0.219000X0.294000X0*%
%ADD36R,0.510000X0.760000*%
%ADD37R,4.520000X3.970000*%
%ADD38C,2.780000*%
%ADD39RoundRect,0.239000X-0.274000X0.239000X-0.274000X-0.239000X0.274000X-0.239000X0.274000X0.239000X0*%
%ADD40RoundRect,0.260556X0.677444X-1.027444X0.677444X1.027444X-0.677444X1.027444X-0.677444X-1.027444X0*%
%ADD41RoundRect,0.250000X0.450000X0.350000X-0.450000X0.350000X-0.450000X-0.350000X0.450000X-0.350000X0*%
%ADD42RoundRect,0.075000X-0.075000X0.662500X-0.075000X-0.662500X0.075000X-0.662500X0.075000X0.662500X0*%
%ADD43RoundRect,0.075000X-0.662500X0.075000X-0.662500X-0.075000X0.662500X-0.075000X0.662500X0.075000X0*%
%ADD44RoundRect,0.130000X-1.170000X-1.420000X1.170000X-1.420000X1.170000X1.420000X-1.170000X1.420000X0*%
%ADD45RoundRect,0.250000X0.250000X-0.650000X0.250000X0.650000X-0.250000X0.650000X-0.250000X-0.650000X0*%
%ADD46R,1.100000X1.300000*%
%ADD47FreePoly0,180.000000*%
%ADD48FreePoly1,180.000000*%
%ADD49RoundRect,0.150000X0.150000X0.425000X-0.150000X0.425000X-0.150000X-0.425000X0.150000X-0.425000X0*%
%ADD50RoundRect,0.075000X0.075000X0.500000X-0.075000X0.500000X-0.075000X-0.500000X0.075000X-0.500000X0*%
%ADD51O,1.000000X2.100000*%
%ADD52O,1.000000X1.800000*%
%ADD53RoundRect,0.219000X-0.294000X0.219000X-0.294000X-0.219000X0.294000X-0.219000X0.294000X0.219000X0*%
%ADD54RoundRect,0.112500X-0.237500X0.112500X-0.237500X-0.112500X0.237500X-0.112500X0.237500X0.112500X0*%
%ADD55RoundRect,0.244000X0.244000X0.269000X-0.244000X0.269000X-0.244000X-0.269000X0.244000X-0.269000X0*%
%ADD56RoundRect,0.249999X0.525001X0.525001X-0.525001X0.525001X-0.525001X-0.525001X0.525001X-0.525001X0*%
%ADD57C,1.550000*%
%ADD58RoundRect,0.137500X0.662500X0.137500X-0.662500X0.137500X-0.662500X-0.137500X0.662500X-0.137500X0*%
%ADD59C,1.800000*%
%ADD60RoundRect,0.495000X1.155000X-4.255000X1.155000X4.255000X-1.155000X4.255000X-1.155000X-4.255000X0*%
%ADD61C,7.000000*%
%ADD62RoundRect,0.505697X1.179959X-4.794303X1.179959X4.794303X-1.179959X4.794303X-1.179959X-4.794303X0*%
%ADD63RoundRect,0.130000X1.420000X-1.170000X1.420000X1.170000X-1.420000X1.170000X-1.420000X-1.170000X0*%
%ADD64RoundRect,0.244000X0.269000X-0.244000X0.269000X0.244000X-0.269000X0.244000X-0.269000X-0.244000X0*%
%ADD65RoundRect,0.220000X0.220000X0.255000X-0.220000X0.255000X-0.220000X-0.255000X0.220000X-0.255000X0*%
%ADD66RoundRect,0.250000X0.300000X0.300000X-0.300000X0.300000X-0.300000X-0.300000X0.300000X-0.300000X0*%
%ADD67RoundRect,0.075000X-0.075000X0.350000X-0.075000X-0.350000X0.075000X-0.350000X0.075000X0.350000X0*%
%ADD68R,2.400000X1.600000*%
%ADD69C,2.286000*%
%ADD70RoundRect,0.159000X0.246073X0.021213X0.021213X0.246073X-0.246073X-0.021213X-0.021213X-0.246073X0*%
%ADD71R,0.800000X1.070000*%
%ADD72RotRect,0.282800X0.282800X135.000000*%
%ADD73R,0.600000X0.200000*%
%ADD74R,0.850000X0.300000*%
%ADD75R,0.300000X0.850000*%
%ADD76R,1.400000X1.200000*%
%ADD77FreePoly2,0.000000*%
%ADD78FreePoly3,0.000000*%
%ADD79RoundRect,0.125000X0.125000X-0.537500X0.125000X0.537500X-0.125000X0.537500X-0.125000X-0.537500X0*%
%ADD80RoundRect,0.062500X-0.062500X0.350000X-0.062500X-0.350000X0.062500X-0.350000X0.062500X0.350000X0*%
%ADD81RoundRect,0.062500X-0.350000X0.062500X-0.350000X-0.062500X0.350000X-0.062500X0.350000X0.062500X0*%
%ADD82R,1.700000X1.700000*%
%ADD83RoundRect,0.112500X0.237500X-0.112500X0.237500X0.112500X-0.237500X0.112500X-0.237500X-0.112500X0*%
%ADD84O,0.630000X2.250000*%
%ADD85R,1.100000X0.250000*%
%ADD86RoundRect,0.219000X0.294000X-0.219000X0.294000X0.219000X-0.294000X0.219000X-0.294000X-0.219000X0*%
%ADD87RoundRect,0.125000X0.345000X0.125000X-0.345000X0.125000X-0.345000X-0.125000X0.345000X-0.125000X0*%
%ADD88RotRect,1.000000X1.000000X315.000000*%
G04 APERTURE END LIST*
D10*
X36833781Y77141871D02*
X37517901Y76457751D01*
G36*
X32697333Y89871489D02*
G01*
X33341958Y89871489D01*
X33341958Y87621489D01*
X32697333Y87621489D01*
X32697333Y89871489D01*
G37*
D11*
X43525000Y89575000D02*
X42125000Y88000000D01*
X24750000Y16750000D02*
X24750000Y12250000D01*
X22750000Y16750000D02*
X22750000Y12250000D01*
D10*
X46475000Y83975000D02*
X48475859Y81941340D01*
X39577859Y79650000D02*
X42606345Y76674752D01*
X41275000Y79650000D02*
X42725000Y78200000D01*
D11*
X27864566Y87325462D02*
X29635434Y89174538D01*
X29229132Y86150925D02*
X31000000Y88000000D01*
X35729132Y88150925D02*
X38270868Y90849076D01*
D10*
X50475000Y83975000D02*
X52271484Y82149065D01*
X52275000Y84000000D02*
X52616939Y83658061D01*
D11*
X37729132Y88075000D02*
X40270868Y90773151D01*
X34250000Y89000000D02*
X36020868Y90849076D01*
D10*
X37975000Y79650000D02*
X41025000Y76550000D01*
D11*
X42286331Y90770170D02*
X39713669Y88075000D01*
D10*
X44475000Y84000000D02*
X46595128Y81810359D01*
X44500000Y82000000D02*
X45525000Y80950000D01*
X36875000Y78900000D02*
X39125000Y76550000D01*
X48475000Y83975000D02*
X50359355Y82059754D01*
G36*
X31855375Y89875000D02*
G01*
X32500000Y89875000D01*
X32500000Y87625000D01*
X31855375Y87625000D01*
X31855375Y89875000D01*
G37*
%TO.C,JP301*%
G36*
X85180136Y49906950D02*
G01*
X82730136Y49906950D01*
X82730136Y51406950D01*
X85180136Y51406950D01*
X85180136Y49906950D01*
G37*
%TO.C,JP1*%
G36*
X84020000Y64460000D02*
G01*
X84320000Y64460000D01*
X84320000Y62960000D01*
X84020000Y62960000D01*
X84020000Y64460000D01*
G37*
%TD*%
D12*
%TO.C,*%
X5530000Y9710000D03*
%TD*%
%TO.C,*%
X7110000Y92920000D03*
%TD*%
%TO.C,REF\u002A\u002A*%
X92050000Y93220000D03*
%TD*%
D13*
%TO.C,L301*%
X90530136Y54703492D03*
X90530136Y51003492D03*
%TD*%
D14*
%TO.C,TP302*%
X93380000Y45960001D03*
%TD*%
D15*
%TO.C,U405*%
X78705000Y42110001D03*
X78205000Y42110001D03*
X77705000Y42110001D03*
X77205000Y42110001D03*
X76705000Y42110001D03*
X76205000Y42110001D03*
X75705000Y42110001D03*
X75205000Y42110001D03*
X74705000Y42110001D03*
X74205000Y42110001D03*
X73705000Y42110001D03*
X73205000Y42110001D03*
X72705000Y42110001D03*
X72205000Y42110001D03*
X71705000Y42110001D03*
X71205000Y42110001D03*
X70705000Y42110001D03*
X70205000Y42110001D03*
X69705000Y42110001D03*
X69205000Y42110001D03*
X68705000Y42110001D03*
X68205000Y42110001D03*
X67705000Y42110001D03*
X67205000Y42110001D03*
X66705000Y42110001D03*
D16*
X65030000Y40435001D03*
X65030000Y39935001D03*
X65030000Y39435001D03*
X65030000Y38935001D03*
X65030000Y38435001D03*
X65030000Y37935001D03*
X65030000Y37435001D03*
X65030000Y36935001D03*
X65030000Y36435001D03*
X65030000Y35935001D03*
X65030000Y35435001D03*
X65030000Y34935001D03*
X65030000Y34435001D03*
X65030000Y33935001D03*
X65030000Y33435001D03*
X65030000Y32935001D03*
X65030000Y32435001D03*
X65030000Y31935001D03*
X65030000Y31435001D03*
X65030000Y30935001D03*
X65030000Y30435001D03*
X65030000Y29935001D03*
X65030000Y29435001D03*
X65030000Y28935001D03*
X65030000Y28435001D03*
D15*
X66705000Y26760001D03*
X67205000Y26760001D03*
X67705000Y26760001D03*
X68205000Y26760001D03*
X68705000Y26760001D03*
X69205000Y26760001D03*
X69705000Y26760001D03*
X70205000Y26760001D03*
X70705000Y26760001D03*
X71205000Y26760001D03*
X71705000Y26760001D03*
X72205000Y26760001D03*
X72705000Y26760001D03*
X73205000Y26760001D03*
X73705000Y26760001D03*
X74205000Y26760001D03*
X74705000Y26760001D03*
X75205000Y26760001D03*
X75705000Y26760001D03*
X76205000Y26760001D03*
X76705000Y26760001D03*
X77205000Y26760001D03*
X77705000Y26760001D03*
X78205000Y26760001D03*
X78705000Y26760001D03*
D16*
X80380000Y28435001D03*
X80380000Y28935001D03*
X80380000Y29435001D03*
X80380000Y29935001D03*
X80380000Y30435001D03*
X80380000Y30935001D03*
X80380000Y31435001D03*
X80380000Y31935001D03*
X80380000Y32435001D03*
X80380000Y32935001D03*
X80380000Y33435001D03*
X80380000Y33935001D03*
X80380000Y34435001D03*
X80380000Y34935001D03*
X80380000Y35435001D03*
X80380000Y35935001D03*
X80380000Y36435001D03*
X80380000Y36935001D03*
X80380000Y37435001D03*
X80380000Y37935001D03*
X80380000Y38435001D03*
X80380000Y38935001D03*
X80380000Y39435001D03*
X80380000Y39935001D03*
X80380000Y40435001D03*
%TD*%
D14*
%TO.C,TP401*%
X39725000Y96056250D03*
%TD*%
D17*
%TO.C,R434*%
X60858400Y92600000D03*
X61858400Y92600000D03*
%TD*%
D18*
%TO.C,Q405*%
X60120000Y86000000D03*
X60120000Y84100000D03*
X62000000Y85050000D03*
%TD*%
D19*
%TO.C,LED300*%
X67493600Y95500001D03*
X70033600Y95500001D03*
X67493600Y92960001D03*
X70033600Y92960001D03*
%TD*%
D20*
%TO.C,C432*%
X68834000Y46728000D03*
X68834000Y45728000D03*
%TD*%
D17*
%TO.C,R420*%
X70930000Y48800000D03*
X71930000Y48800000D03*
%TD*%
D20*
%TO.C,R903*%
X87480000Y19660001D03*
X87480000Y18660001D03*
%TD*%
D21*
%TO.C,R308*%
X87830000Y12910001D03*
X86830000Y12910001D03*
%TD*%
D20*
%TO.C,R429*%
X57750000Y23650000D03*
X57750000Y22650000D03*
%TD*%
D21*
%TO.C,C428*%
X31849999Y94800000D03*
X30850001Y94800000D03*
%TD*%
D22*
%TO.C,C402*%
X63500000Y39378000D03*
X63500000Y40378000D03*
%TD*%
%TO.C,C501*%
X76775000Y14200000D03*
X76775000Y15200000D03*
%TD*%
D17*
%TO.C,R716*%
X83630000Y22760001D03*
X84630000Y22760001D03*
%TD*%
D22*
%TO.C,R306*%
X83580136Y53253492D03*
X83580136Y54253492D03*
%TD*%
D14*
%TO.C,TP400*%
X39725000Y98212500D03*
%TD*%
D23*
%TO.C,IC402*%
X23680000Y69900000D03*
X16060000Y69900000D03*
X8440000Y69900000D03*
D24*
X8440000Y19100000D03*
D23*
X12250000Y19100000D03*
X16060000Y19100000D03*
X19870000Y19100000D03*
D24*
X23680000Y19100000D03*
%TD*%
D25*
%TO.C,D301*%
X85480000Y12920001D03*
X85480000Y14500001D03*
%TD*%
D26*
%TO.C,IC400*%
X5250000Y83670000D03*
X5250000Y81130000D03*
X11750000Y81130000D03*
X11750000Y83670000D03*
%TD*%
D22*
%TO.C,C601*%
X72225000Y14200000D03*
X72225000Y15200000D03*
%TD*%
%TO.C,R600*%
X76775000Y16350000D03*
X76775000Y17350000D03*
%TD*%
D17*
%TO.C,R801*%
X84980000Y88610001D03*
X85980000Y88610001D03*
%TD*%
D21*
%TO.C,C600*%
X74975000Y18250000D03*
X73975000Y18250000D03*
%TD*%
D17*
%TO.C,R410*%
X29550000Y97750000D03*
X30550000Y97750000D03*
%TD*%
D27*
%TO.C,U801*%
X92761500Y13685001D03*
D28*
X92711500Y13285001D03*
D29*
X92880000Y12716501D03*
X93280000Y12716501D03*
X93680000Y12716501D03*
D28*
X93848500Y13285001D03*
X93848500Y13685001D03*
D29*
X93680000Y14253501D03*
X93280000Y14253501D03*
X92880000Y14253501D03*
%TD*%
D14*
%TO.C,TP701*%
X93880000Y37560001D03*
%TD*%
D22*
%TO.C,R437*%
X81900000Y36685001D03*
X81900000Y37685001D03*
%TD*%
D21*
%TO.C,C422*%
X81518000Y42418000D03*
X80518000Y42418000D03*
%TD*%
D22*
%TO.C,R442*%
X74180000Y89560001D03*
X74180000Y90560001D03*
%TD*%
D30*
%TO.C,U301*%
X87238356Y53600000D03*
X87238356Y54550000D03*
X87238356Y55500000D03*
X84963356Y55500000D03*
X84963356Y54550000D03*
X84963356Y53600000D03*
%TD*%
D21*
%TO.C,C500*%
X79575000Y18250000D03*
X78575000Y18250000D03*
%TD*%
D20*
%TO.C,R902*%
X88380000Y19660001D03*
X88380000Y18660001D03*
%TD*%
%TO.C,C410*%
X83770000Y37670000D03*
X83770000Y36670000D03*
%TD*%
D31*
%TO.C,F403*%
X50500000Y78200000D03*
X45000000Y78200000D03*
%TD*%
D21*
%TO.C,C424*%
X67310000Y43942000D03*
X66310000Y43942000D03*
%TD*%
D20*
%TO.C,R700*%
X81955000Y35360001D03*
X81955000Y34360001D03*
%TD*%
D32*
%TO.C,SW401*%
X50000000Y89437500D03*
X50000000Y92637500D03*
X50000000Y95837500D03*
X53000000Y89437500D03*
X53000000Y92637500D03*
X53000000Y95837500D03*
D33*
X54750000Y86837500D03*
X48250000Y98437500D03*
%TD*%
D34*
%TO.C,R419*%
X86970000Y63710000D03*
X88790000Y63710000D03*
%TD*%
D23*
%TO.C,IC405*%
X51365000Y69905000D03*
X43745000Y69905000D03*
X36125000Y69905000D03*
D24*
X36125000Y19105000D03*
D23*
X39935000Y19105000D03*
X43745000Y19105000D03*
X47555000Y19105000D03*
D24*
X51365000Y19105000D03*
%TD*%
D22*
%TO.C,R401*%
X81000000Y85300000D03*
X81000000Y86300000D03*
%TD*%
D35*
%TO.C,R415*%
X56930000Y89500000D03*
X58570000Y89500000D03*
%TD*%
D36*
%TO.C,Q403*%
X67555000Y20575000D03*
X66285000Y20575000D03*
X65015000Y20575000D03*
X63745000Y20575000D03*
X63745000Y15085000D03*
X65015000Y15085000D03*
X66285000Y15085000D03*
X67555000Y15085000D03*
D37*
X65650000Y17190000D03*
%TD*%
D14*
%TO.C,TP402*%
X39725000Y93900000D03*
%TD*%
D38*
%TO.C,IC406*%
X78040000Y80140000D03*
X70420000Y80140000D03*
X62800000Y80140000D03*
X62800000Y52200000D03*
X66610000Y52200000D03*
X70420000Y52200000D03*
X74230000Y52200000D03*
X78040000Y52200000D03*
%TD*%
D22*
%TO.C,R411*%
X87580000Y42910001D03*
X87580000Y43910001D03*
%TD*%
D17*
%TO.C,R413*%
X12150000Y79950000D03*
X13150000Y79950000D03*
%TD*%
D22*
%TO.C,R440*%
X75080000Y89550000D03*
X75080000Y90550000D03*
%TD*%
D39*
%TO.C,D701*%
X85805000Y40625001D03*
X85805000Y39045001D03*
%TD*%
D17*
%TO.C,R423*%
X82500000Y45925000D03*
X83500000Y45925000D03*
%TD*%
D40*
%TO.C,D404*%
X28700000Y91600000D03*
X28700000Y95600000D03*
%TD*%
D22*
%TO.C,R441*%
X75970000Y89550000D03*
X75970000Y90550000D03*
%TD*%
D17*
%TO.C,C420*%
X76208000Y43688000D03*
X77208000Y43688000D03*
%TD*%
D20*
%TO.C,R701*%
X84630000Y35360001D03*
X84630000Y34360001D03*
%TD*%
D25*
%TO.C,D402*%
X92870000Y42620001D03*
X92870000Y44200001D03*
%TD*%
D17*
%TO.C,R421*%
X68930000Y48800000D03*
X69930000Y48800000D03*
%TD*%
D41*
%TO.C,Y700*%
X90780000Y37760001D03*
X88580000Y37760001D03*
X88580000Y36160001D03*
X90780000Y36160001D03*
%TD*%
D42*
%TO.C,U700*%
X91030000Y33522501D03*
X90530000Y33522501D03*
X90030000Y33522501D03*
X89530000Y33522501D03*
X89030000Y33522501D03*
X88530000Y33522501D03*
X88030000Y33522501D03*
X87530000Y33522501D03*
X87030000Y33522501D03*
X86530000Y33522501D03*
X86030000Y33522501D03*
X85530000Y33522501D03*
D43*
X84117500Y32110001D03*
X84117500Y31610001D03*
X84117500Y31110001D03*
X84117500Y30610001D03*
X84117500Y30110001D03*
X84117500Y29610001D03*
X84117500Y29110001D03*
X84117500Y28610001D03*
X84117500Y28110001D03*
X84117500Y27610001D03*
X84117500Y27110001D03*
X84117500Y26610001D03*
D42*
X85530000Y25197501D03*
X86030000Y25197501D03*
X86530000Y25197501D03*
X87030000Y25197501D03*
X87530000Y25197501D03*
X88030000Y25197501D03*
X88530000Y25197501D03*
X89030000Y25197501D03*
X89530000Y25197501D03*
X90030000Y25197501D03*
X90530000Y25197501D03*
X91030000Y25197501D03*
D43*
X92442500Y26610001D03*
X92442500Y27110001D03*
X92442500Y27610001D03*
X92442500Y28110001D03*
X92442500Y28610001D03*
X92442500Y29110001D03*
X92442500Y29610001D03*
X92442500Y30110001D03*
X92442500Y30610001D03*
X92442500Y31110001D03*
X92442500Y31610001D03*
X92442500Y32110001D03*
%TD*%
D20*
%TO.C,R439*%
X82830000Y37685001D03*
X82830000Y36685001D03*
%TD*%
D14*
%TO.C,TP700*%
X93880000Y39560001D03*
%TD*%
D17*
%TO.C,R418*%
X12150000Y84950000D03*
X13150000Y84950000D03*
%TD*%
D44*
%TO.C,F402*%
X29100000Y78200000D03*
X34600000Y78200000D03*
%TD*%
D35*
%TO.C,R404*%
X93260000Y23300000D03*
X94900000Y23300000D03*
%TD*%
D17*
%TO.C,R707*%
X83480000Y41910001D03*
X84480000Y41910001D03*
%TD*%
D22*
%TO.C,C434*%
X90710000Y66735000D03*
X90710000Y67735000D03*
%TD*%
%TO.C,R402*%
X92425000Y67300000D03*
X92425000Y68300000D03*
%TD*%
%TO.C,C430*%
X37400000Y95650000D03*
X37400000Y96650000D03*
%TD*%
D21*
%TO.C,C708*%
X89230000Y35050001D03*
X88230000Y35050001D03*
%TD*%
D20*
%TO.C,R705*%
X93530000Y36160001D03*
X93530000Y35160001D03*
%TD*%
%TO.C,C404*%
X79605000Y26685001D03*
X79605000Y25685001D03*
%TD*%
D22*
%TO.C,R307*%
X83580136Y55153492D03*
X83580136Y56153492D03*
%TD*%
D45*
%TO.C,X300*%
X74105000Y46735001D03*
X76605000Y46735001D03*
%TD*%
D46*
%TO.C,Y400*%
X70295000Y46770000D03*
X70295000Y44670000D03*
X71945000Y44670000D03*
X71945000Y46770000D03*
%TD*%
D17*
%TO.C,R710*%
X93900000Y24400000D03*
X94900000Y24400000D03*
%TD*%
%TO.C,R715*%
X83630000Y23635001D03*
X84630000Y23635001D03*
%TD*%
D20*
%TO.C,C801*%
X76880000Y90560001D03*
X76880000Y89560001D03*
%TD*%
D17*
%TO.C,C419*%
X79590000Y45420001D03*
X80590000Y45420001D03*
%TD*%
D47*
%TO.C,JP301*%
X84680136Y50656950D03*
D48*
X83230136Y50656950D03*
%TD*%
D49*
%TO.C,J800*%
X85880000Y92570001D03*
X85080000Y92570001D03*
D50*
X83930000Y92570001D03*
X82930000Y92570001D03*
X82430000Y92570001D03*
X81430000Y92570001D03*
D49*
X80280000Y92570001D03*
X79480000Y92570001D03*
X79480000Y92570001D03*
X80280000Y92570001D03*
D50*
X80930000Y92570001D03*
X81930000Y92570001D03*
X83430000Y92570001D03*
X84430000Y92570001D03*
D49*
X85080000Y92570001D03*
X85880000Y92570001D03*
D51*
X87000000Y93145001D03*
D52*
X87000000Y97325001D03*
D51*
X78360000Y93145001D03*
D52*
X78360000Y97325001D03*
%TD*%
D21*
%TO.C,C311*%
X88693767Y56706950D03*
X87693767Y56706950D03*
%TD*%
D53*
%TO.C,R403*%
X64600000Y89720000D03*
X64600000Y88080000D03*
%TD*%
D22*
%TO.C,C406*%
X68834000Y43696000D03*
X68834000Y44696000D03*
%TD*%
D21*
%TO.C,R414*%
X36500000Y93315000D03*
X35500000Y93315000D03*
%TD*%
D54*
%TO.C,U402*%
X92337500Y9772500D03*
X92337500Y8472500D03*
X94337500Y9122500D03*
%TD*%
D36*
%TO.C,Q401*%
X43517500Y86750000D03*
X42247500Y86750000D03*
X40977500Y86750000D03*
X39707500Y86750000D03*
X39707500Y81260000D03*
X40977500Y81260000D03*
X42247500Y81260000D03*
X43517500Y81260000D03*
D37*
X41612500Y83365000D03*
%TD*%
D17*
%TO.C,C707*%
X90130000Y35060001D03*
X91130000Y35060001D03*
%TD*%
D20*
%TO.C,R901*%
X84530000Y18560001D03*
X84530000Y17560001D03*
%TD*%
D21*
%TO.C,C403*%
X64955000Y27535001D03*
X63955000Y27535001D03*
%TD*%
%TO.C,R709*%
X94180000Y22210001D03*
X93180000Y22210001D03*
%TD*%
D20*
%TO.C,R805*%
X77780000Y90560001D03*
X77780000Y89560001D03*
%TD*%
%TO.C,R800*%
X78680000Y90560001D03*
X78680000Y89560001D03*
%TD*%
D55*
%TO.C,C310*%
X86230136Y56913492D03*
X84670136Y56913492D03*
%TD*%
D22*
%TO.C,R702*%
X93930000Y29110001D03*
X93930000Y30110001D03*
%TD*%
D55*
%TO.C,C309*%
X86240585Y58156950D03*
X84680585Y58156950D03*
%TD*%
D22*
%TO.C,C900*%
X91080000Y16710001D03*
X91080000Y17710001D03*
%TD*%
D21*
%TO.C,R436*%
X80580000Y43640001D03*
X79580000Y43640001D03*
%TD*%
%TO.C,R428*%
X61000000Y21850000D03*
X60000000Y21850000D03*
%TD*%
%TO.C,C405*%
X81526000Y41402000D03*
X80526000Y41402000D03*
%TD*%
D20*
%TO.C,R802*%
X93180000Y17760001D03*
X93180000Y16760001D03*
%TD*%
D17*
%TO.C,C701*%
X91980000Y33660001D03*
X92980000Y33660001D03*
%TD*%
D21*
%TO.C,R426*%
X46270000Y12905000D03*
X45270000Y12905000D03*
%TD*%
D56*
%TO.C,J200*%
X89370000Y5310001D03*
D57*
X86830000Y5310001D03*
X84290000Y5310001D03*
X81750000Y5310001D03*
X79210000Y5310001D03*
X76670000Y5310001D03*
X74130000Y5310001D03*
X71590000Y5310001D03*
X69050000Y5310001D03*
X66510000Y5310001D03*
X63970000Y5310001D03*
X61430000Y5310001D03*
X58890000Y5310001D03*
X56350000Y5310001D03*
X53810000Y5310001D03*
X51270000Y5310001D03*
X48730000Y5310001D03*
X46190000Y5310001D03*
X43650000Y5310001D03*
X41110000Y5310001D03*
X38570000Y5310001D03*
X36030000Y5310001D03*
X33490000Y5310001D03*
X30950000Y5310001D03*
X28410000Y5310001D03*
X25870000Y5310001D03*
X23330000Y5310001D03*
X20790000Y5310001D03*
X18250000Y5310001D03*
X15710000Y5310001D03*
X13170000Y5310001D03*
X10630000Y5310001D03*
X89370000Y7850001D03*
X86830000Y7850001D03*
X84290000Y7850001D03*
X81750000Y7850001D03*
X79210000Y7850001D03*
X76670000Y7850001D03*
X74130000Y7850001D03*
X71590000Y7850001D03*
X69050000Y7850001D03*
X66510000Y7850001D03*
X63970000Y7850001D03*
X61430000Y7850001D03*
X58890000Y7850001D03*
X56350000Y7850001D03*
X53810000Y7850001D03*
X51270000Y7850001D03*
X48730000Y7850001D03*
X46190000Y7850001D03*
X43650000Y7850001D03*
X41110000Y7850001D03*
X38570000Y7850001D03*
X36030000Y7850001D03*
X33490000Y7850001D03*
X30950000Y7850001D03*
X28410000Y7850001D03*
X25870000Y7850001D03*
X23330000Y7850001D03*
X20790000Y7850001D03*
X18250000Y7850001D03*
X15710000Y7850001D03*
X13170000Y7850001D03*
X10630000Y7850001D03*
X89370000Y10390001D03*
X86830000Y10390001D03*
X84290000Y10390001D03*
X81750000Y10390001D03*
X79210000Y10390001D03*
X76670000Y10390001D03*
X74130000Y10390001D03*
X71590000Y10390001D03*
X69050000Y10390001D03*
X66510000Y10390001D03*
X63970000Y10390001D03*
X61430000Y10390001D03*
X58890000Y10390001D03*
X56350000Y10390001D03*
X53810000Y10390001D03*
X51270000Y10390001D03*
X48730000Y10390001D03*
X46190000Y10390001D03*
X43650000Y10390001D03*
X41110000Y10390001D03*
X38570000Y10390001D03*
X36030000Y10390001D03*
X33490000Y10390001D03*
X30950000Y10390001D03*
X28410000Y10390001D03*
X25870000Y10390001D03*
X23330000Y10390001D03*
X20790000Y10390001D03*
X18250000Y10390001D03*
X15710000Y10390001D03*
X13170000Y10390001D03*
X10630000Y10390001D03*
%TD*%
D58*
%TO.C,IC410*%
X71575000Y84180000D03*
X71575000Y86720000D03*
X65075000Y86720000D03*
X65075000Y84180000D03*
%TD*%
D59*
%TO.C,BZ401*%
X89000000Y75500000D03*
X89000000Y83100000D03*
%TD*%
D20*
%TO.C,C425*%
X64270000Y44942000D03*
X64270000Y43942000D03*
%TD*%
D22*
%TO.C,R430*%
X62050000Y19600000D03*
X62050000Y20600000D03*
%TD*%
D20*
%TO.C,C427*%
X63500000Y29456000D03*
X63500000Y28456000D03*
%TD*%
D18*
%TO.C,Q400*%
X58560000Y20550000D03*
X58560000Y18650000D03*
X60440000Y19600000D03*
%TD*%
D17*
%TO.C,C418*%
X35500000Y92415000D03*
X36500000Y92415000D03*
%TD*%
%TO.C,C700*%
X82630000Y25410001D03*
X83630000Y25410001D03*
%TD*%
D21*
%TO.C,R424*%
X18460000Y12950000D03*
X17460000Y12950000D03*
%TD*%
D60*
%TO.C,J400*%
X17700000Y83350000D03*
D61*
X23150000Y83400000D03*
D62*
X17735656Y94100000D03*
%TD*%
D17*
%TO.C,C401*%
X73455000Y43810001D03*
X74455000Y43810001D03*
%TD*%
D63*
%TO.C,F404*%
X55050000Y77850000D03*
X55050000Y83350000D03*
%TD*%
D22*
%TO.C,R500*%
X81325000Y14200000D03*
X81325000Y15200000D03*
%TD*%
D20*
%TO.C,C704*%
X93920000Y32362501D03*
X93920000Y31362501D03*
%TD*%
D17*
%TO.C,C429*%
X81910000Y39450000D03*
X82910000Y39450000D03*
%TD*%
D22*
%TO.C,C902*%
X91980000Y16710001D03*
X91980000Y17710001D03*
%TD*%
D17*
%TO.C,C312*%
X93280000Y15510001D03*
X94280000Y15510001D03*
%TD*%
D21*
%TO.C,R435*%
X80590000Y44520001D03*
X79590000Y44520001D03*
%TD*%
D22*
%TO.C,C702*%
X82640000Y26357501D03*
X82640000Y27357501D03*
%TD*%
D20*
%TO.C,R706*%
X92580000Y36160001D03*
X92580000Y35160001D03*
%TD*%
D22*
%TO.C,R803*%
X94080000Y16760001D03*
X94080000Y17760001D03*
%TD*%
D64*
%TO.C,C307*%
X87542182Y50623492D03*
X87542182Y52183492D03*
%TD*%
D35*
%TO.C,R400*%
X66380000Y88625000D03*
X68020000Y88625000D03*
%TD*%
D17*
%TO.C,C306*%
X84170136Y52403492D03*
X85170136Y52403492D03*
%TD*%
D18*
%TO.C,Q404*%
X91810000Y72450000D03*
X91810000Y70550000D03*
X93690000Y71500000D03*
%TD*%
D65*
%TO.C,FB401*%
X67092000Y46228000D03*
X65512000Y46228000D03*
%TD*%
D17*
%TO.C,R714*%
X83630000Y24510001D03*
X84630000Y24510001D03*
%TD*%
D20*
%TO.C,R900*%
X85430000Y18560001D03*
X85430000Y17560001D03*
%TD*%
D66*
%TO.C,D403*%
X62900000Y89200000D03*
X60100000Y89200000D03*
%TD*%
D21*
%TO.C,R438*%
X61858400Y94400000D03*
X60858400Y94400000D03*
%TD*%
D67*
%TO.C,U600*%
X75450000Y17100000D03*
X74800000Y17100000D03*
X74150000Y17100000D03*
X73500000Y17100000D03*
X73500000Y14200000D03*
X74150000Y14200000D03*
X74800000Y14200000D03*
X75450000Y14200000D03*
D68*
X74475000Y15650000D03*
%TD*%
D17*
%TO.C,C421*%
X77724000Y25146000D03*
X78724000Y25146000D03*
%TD*%
D22*
%TO.C,R412*%
X86680000Y42910001D03*
X86680000Y43910001D03*
%TD*%
%TO.C,C706*%
X82830000Y34360001D03*
X82830000Y35360001D03*
%TD*%
D12*
%TO.C,BTN400*%
X63709415Y96700838D03*
X62079415Y96700838D03*
X60339415Y96700838D03*
X58709415Y96700838D03*
D69*
X64709415Y94450838D03*
X57709415Y94450838D03*
%TD*%
D17*
%TO.C,C800*%
X84980000Y90760001D03*
X85980000Y90760001D03*
%TD*%
%TO.C,R425*%
X13660000Y12950000D03*
X14660000Y12950000D03*
%TD*%
%TO.C,C705*%
X86330000Y35050001D03*
X87330000Y35050001D03*
%TD*%
D70*
%TO.C,R712*%
X89183553Y22256448D03*
X88476447Y22963554D03*
%TD*%
D17*
%TO.C,R445*%
X88000000Y72250000D03*
X89000000Y72250000D03*
%TD*%
D20*
%TO.C,R708*%
X82530000Y30610001D03*
X82530000Y29610001D03*
%TD*%
D71*
%TO.C,IC403*%
X32100000Y90865000D03*
D72*
X31900000Y91400000D03*
D73*
X32200000Y91500000D03*
D71*
X33100000Y90865000D03*
D72*
X33300000Y91400000D03*
D73*
X33000000Y91500000D03*
D74*
X34050000Y92415000D03*
X34050000Y92915000D03*
D75*
X33350000Y93615000D03*
X32850000Y93615000D03*
X32350000Y93615000D03*
X31850000Y93615000D03*
D74*
X31150000Y92915000D03*
X31150000Y92415000D03*
%TD*%
D22*
%TO.C,R443*%
X73280000Y89560001D03*
X73280000Y90560001D03*
%TD*%
D76*
%TO.C,Y900*%
X92230000Y20810001D03*
X90030000Y20810001D03*
X90030000Y19110001D03*
X92230000Y19110001D03*
%TD*%
D67*
%TO.C,U500*%
X80050000Y17100000D03*
X79400000Y17100000D03*
X78750000Y17100000D03*
X78100000Y17100000D03*
X78100000Y14200000D03*
X78750000Y14200000D03*
X79400000Y14200000D03*
X80050000Y14200000D03*
D68*
X79075000Y15650000D03*
%TD*%
D17*
%TO.C,R713*%
X85380000Y41910001D03*
X86380000Y41910001D03*
%TD*%
D20*
%TO.C,C400*%
X63500000Y38550999D03*
X63500000Y37550999D03*
%TD*%
D77*
%TO.C,JP1*%
X83520000Y63710000D03*
D78*
X84820000Y63710000D03*
%TD*%
D25*
%TO.C,D700*%
X84055000Y39045001D03*
X84055000Y40625001D03*
%TD*%
D21*
%TO.C,C417*%
X61858400Y93500000D03*
X60858400Y93500000D03*
%TD*%
D79*
%TO.C,U403*%
X87545000Y66747500D03*
X88195000Y66747500D03*
X88845000Y66747500D03*
X89495000Y66747500D03*
X89495000Y69022500D03*
X88845000Y69022500D03*
X88195000Y69022500D03*
X87545000Y69022500D03*
%TD*%
D80*
%TO.C,U302*%
X89180000Y17435001D03*
X88680000Y17435001D03*
X88180000Y17435001D03*
X87680000Y17435001D03*
D81*
X86967500Y16722501D03*
X86967500Y16222501D03*
X86967500Y15722501D03*
X86967500Y15222501D03*
D80*
X87680000Y14510001D03*
X88180000Y14510001D03*
X88680000Y14510001D03*
X89180000Y14510001D03*
D81*
X89892500Y15222501D03*
X89892500Y15722501D03*
X89892500Y16222501D03*
X89892500Y16722501D03*
D82*
X88430000Y15972501D03*
%TD*%
D17*
%TO.C,C314*%
X75830000Y45260001D03*
X76830000Y45260001D03*
%TD*%
D83*
%TO.C,U401*%
X83100000Y88850000D03*
X83100000Y90150000D03*
X81100000Y89500000D03*
%TD*%
D36*
%TO.C,Q402*%
X37370000Y86750000D03*
X36100000Y86750000D03*
X34830000Y86750000D03*
X33560000Y86750000D03*
X33560000Y81260000D03*
X34830000Y81260000D03*
X36100000Y81260000D03*
X37370000Y81260000D03*
D37*
X35465000Y83365000D03*
%TD*%
D58*
%TO.C,IC407*%
X11750000Y86530000D03*
X11750000Y89070000D03*
X5250000Y89070000D03*
X5250000Y86530000D03*
%TD*%
D22*
%TO.C,C100*%
X63480000Y30360001D03*
X63480000Y31360001D03*
%TD*%
D84*
%TO.C,U100*%
X62335000Y37965001D03*
X61065000Y37965001D03*
X59785000Y37965001D03*
X58515000Y37965001D03*
X58515000Y30905001D03*
X59785000Y30905001D03*
X61065000Y30905001D03*
X62335000Y30905001D03*
%TD*%
D17*
%TO.C,C703*%
X91980000Y25010001D03*
X92980000Y25010001D03*
%TD*%
D25*
%TO.C,D401*%
X91380000Y42620001D03*
X91380000Y44200001D03*
%TD*%
D85*
%TO.C,U404*%
X31800000Y98250000D03*
X31800000Y97750000D03*
X31800000Y97250000D03*
X31800000Y96750000D03*
X31800000Y96250000D03*
X36100000Y96250000D03*
X36100000Y96750000D03*
X36100000Y97250000D03*
X36100000Y97750000D03*
X36100000Y98250000D03*
%TD*%
D22*
%TO.C,R703*%
X83730000Y34360001D03*
X83730000Y35360001D03*
%TD*%
D17*
%TO.C,R417*%
X73225000Y84175000D03*
X74225000Y84175000D03*
%TD*%
D86*
%TO.C,R416*%
X93600000Y67380000D03*
X93600000Y69020000D03*
%TD*%
D17*
%TO.C,R427*%
X41220000Y12905000D03*
X42220000Y12905000D03*
%TD*%
D64*
%TO.C,C308*%
X86280136Y50623492D03*
X86280136Y52183492D03*
%TD*%
D21*
%TO.C,C313*%
X74880000Y45260001D03*
X73880000Y45260001D03*
%TD*%
%TO.C,C423*%
X67302000Y44958000D03*
X66302000Y44958000D03*
%TD*%
D20*
%TO.C,C426*%
X65286000Y44950000D03*
X65286000Y43950000D03*
%TD*%
D87*
%TO.C,Q700*%
X90230000Y23560001D03*
X90230000Y22260001D03*
X92030000Y22910001D03*
%TD*%
D20*
%TO.C,C904*%
X91080000Y15760001D03*
X91080000Y14760001D03*
%TD*%
D21*
%TO.C,R422*%
X85500000Y45925000D03*
X84500000Y45925000D03*
%TD*%
D17*
%TO.C,R804*%
X95080000Y12360001D03*
X96080000Y12360001D03*
%TD*%
D19*
%TO.C,LED301*%
X72543600Y95500001D03*
X75083600Y95500001D03*
X72543600Y92960001D03*
X75083600Y92960001D03*
%TD*%
D17*
%TO.C,R704*%
X81680000Y23635001D03*
X82680000Y23635001D03*
%TD*%
D88*
%TO.C,J401*%
X86037520Y27121458D03*
D14*
X86935546Y28019484D03*
X87833571Y28917509D03*
X88731597Y29815535D03*
X89629622Y30713560D03*
X90527648Y31611586D03*
%TD*%
G36*
X83953039Y64190315D02*
G01*
X83998794Y64137511D01*
X84010000Y64086000D01*
X84010000Y63334000D01*
X83990315Y63266961D01*
X83937511Y63221206D01*
X83886000Y63210000D01*
X80974000Y63210000D01*
X80906961Y63229685D01*
X80861206Y63282489D01*
X80850000Y63334000D01*
X80850000Y64086000D01*
X80869685Y64153039D01*
X80922489Y64198794D01*
X80974000Y64210000D01*
X83886000Y64210000D01*
X83953039Y64190315D01*
G37*
G36*
X87423039Y64190315D02*
G01*
X87468794Y64137511D01*
X87480000Y64086000D01*
X87480000Y63334000D01*
X87460315Y63266961D01*
X87407511Y63221206D01*
X87356000Y63210000D01*
X84444000Y63210000D01*
X84376961Y63229685D01*
X84331206Y63282489D01*
X84320000Y63334000D01*
X84320000Y64086000D01*
X84339685Y64153039D01*
X84392489Y64198794D01*
X84444000Y64210000D01*
X87356000Y64210000D01*
X87423039Y64190315D01*
G37*
M02*
