M48
; DRILL file {KiCad 9.0.3} date 2025-10-01T00:39:15+0200
; FORMAT={-:-/ absolute / inch / decimal}
; #@! TF.CreationDate,2025-10-01T00:39:15+02:00
; #@! TF.GenerationSoftware,Kicad,Pcbnew,9.0.3
; #@! TF.FileFunction,Plated,1,4,PTH
FMAT,2
INCH
; #@! TA.AperFunction,Plated,PTH,ViaDrill
T1C0.0118
; #@! TA.AperFunction,Plated,PTH,ComponentDrill
T2C0.0236
; #@! TA.AperFunction,Plated,PTH,ComponentDrill
T3C0.0256
; #@! TA.AperFunction,Plated,PTH,ComponentDrill
T4C0.0315
; #@! TA.AperFunction,Plated,PTH,ComponentDrill
T5C0.0315
; #@! TA.AperFunction,Plated,PTH,ComponentDrill
T6C0.0394
; #@! TA.AperFunction,Plated,PTH,ComponentDrill
T7C0.0394
; #@! TA.AperFunction,Plated,PTH,ComponentDrill
T8C0.0512
; #@! TA.AperFunction,Plated,PTH,ComponentDrill
T9C0.0551
; #@! TA.AperFunction,Plated,PTH,ComponentDrill
T10C0.0669
; #@! TA.AperFunction,Plated,PTH,ComponentDrill
T11C0.0701
; #@! TA.AperFunction,Plated,PTH,ComponentDrill
T12C0.0752
; #@! TA.AperFunction,Plated,PTH,ComponentDrill
T13C0.1220
%
G90
G05
T1
X0.2067Y3.4724
X0.2067Y3.2343
X0.2087Y3.3543
X0.4626Y3.4705
X0.5177Y3.0571
X0.5217Y3.1929
X0.5591Y3.3406
X1.1161Y3.8543
X1.1949Y3.6909
X1.2933Y3.7303
X1.2953Y3.8681
X1.3071Y3.8287
X1.3465Y3.8484
X1.3976Y3.6384
X1.4764Y3.8425
X1.4764Y3.6378
X1.5Y3.8661
X1.503Y3.8051
X1.503Y3.7648
X2.2366Y2.5248
X2.2721Y0.8588
X2.2756Y2.5555
X2.3031Y1.5551
X2.3051Y0.6791
X2.3189Y2.5827
X2.3455Y3.4301
X2.3661Y3.3425
X2.3688Y3.716
X2.3712Y3.6811
X2.3712Y3.6457
X2.3878Y0.4886
X2.4038Y0.5142
X2.4045Y3.4656
X2.4208Y0.5398
X2.422Y0.4886
X2.438Y0.5142
X2.4539Y1.1598
X2.455Y0.5398
X2.4562Y0.4886
X2.471Y1.5608
X2.4722Y0.5142
X2.4746Y1.1195
X2.4892Y0.5398
X2.4903Y1.77
X2.4904Y0.4886
X2.4992Y1.2602
X2.5Y1.4508
X2.5Y1.62
X2.5064Y0.5142
X2.5179Y1.0585
X2.5234Y0.5398
X2.5246Y0.4886
X2.5406Y0.5142
X2.5512Y0.9055
X2.5512Y0.8504
X2.5573Y1.0585
X2.5576Y0.5398
X2.5588Y0.4886
X2.57Y1.7
X2.5748Y0.878
X2.5748Y0.5142
X2.5913Y1.0168
X2.5918Y0.5398
X2.593Y0.4886
X2.5945Y0.9055
X2.5945Y0.8504
X2.609Y0.5142
X2.6122Y3.5344
X2.6181Y0.878
X2.626Y0.5398
X2.6272Y0.4886
X2.628Y3.4134
X2.6339Y0.9055
X2.6339Y0.8504
X2.6432Y0.5142
X2.6459Y1.0978
X2.6575Y1.6024
X2.6575Y0.878
X2.6602Y0.5398
X2.6614Y0.4886
X2.6732Y0.9055
X2.6732Y0.8504
X2.68Y1.84
X2.68Y1.8
X2.68Y1.76
X2.68Y1.73
X2.6862Y1.6024
X2.6969Y0.878
X2.77Y1.71
X2.7835Y1.5915
X2.8031Y1.6102
X2.8228Y1.5866
X2.8427Y1.6106
X2.8622Y0.9961
X2.863Y0.937
X2.8632Y0.6161
X2.8671Y3.4134
X2.873Y0.5591
X2.878Y0.7096
X2.8801Y1.7819
X2.885Y3.5004
X2.8919Y1.7484
X2.9055Y1.1181
X2.9124Y0.7421
X2.9205Y3.4787
X2.9313Y1.7484
X2.9518Y0.7421
X2.9559Y3.5004
X2.9685Y1.1772
X2.9862Y0.7096
X2.9913Y3.4787
X3.0002Y1.7415
X3.0159Y1.6116
X3.0226Y0.7087
X3.0268Y3.5004
X3.0396Y1.7415
X3.0433Y1.2913
X3.0433Y1.248
X3.0435Y1.6116
X3.0443Y0.6161
X3.0472Y1.1969
X3.0494Y1.7819
X3.0541Y0.5591
X3.0591Y0.7096
X3.0622Y3.5004
X3.0681Y1.7189
X3.0898Y1.7386
X3.0935Y0.7421
X3.0945Y1.4882
X3.0945Y1.4567
X3.0976Y3.4787
X3.11Y1.57
X3.1105Y1.7181
X3.1252Y0.9827
X3.1291Y3.6067
X3.1299Y1.8898
X3.1329Y0.7421
X3.14Y1.67
X3.14Y1.63
X3.1594Y1.9291
X3.1594Y1.8996
X3.1596Y1.0506
X3.1596Y1.0112
X3.1614Y3.5236
X3.1673Y0.7096
X3.1841Y0.6161
X3.189Y3.4669
X3.189Y1.9193
X3.189Y1.8898
X3.1911Y0.9305
X3.1976Y1.7882
X3.1976Y1.7528
X3.2126Y2.9803
X3.2185Y1.9291
X3.2185Y1.8996
X3.2266Y1.4157
X3.2276Y1.0771
X3.2276Y1.0377
X3.2398Y1.6593
X3.248Y1.9193
X3.248Y1.8898
X3.249Y1.7815
X3.2492Y1.2299
X3.2587Y1.6106
X3.261Y1.4177
X3.2636Y1.6584
X3.2677Y1.2638
X3.2756Y1.5748
X3.2795Y2.4409
X3.2795Y2.3622
X3.2913Y1.8386
X3.2965Y1.4177
X3.2992Y2.4016
X3.2992Y2.2877
X3.2992Y2.2641
X3.2992Y2.2385
X3.3043Y3.6835
X3.3142Y1.022
X3.3228Y2.4409
X3.3228Y2.3622
X3.3319Y1.4167
X3.3386Y1.8386
X3.3457Y3.5457
X3.3457Y3.5142
X3.3465Y2.4016
X3.3506Y1.3228
X3.3594Y1.2248
X3.3661Y2.4409
X3.3661Y2.3622
X3.3693Y1.4364
X3.385Y3.5457
X3.385Y3.5142
X3.3858Y2.7165
X3.3898Y2.4016
X3.3937Y1.7795
X3.3988Y1.4059
X3.4047Y2.0848
X3.4094Y2.4409
X3.4094Y2.3622
X3.4136Y1.4502
X3.4146Y1.2514
X3.4185Y0.5614
X3.4213Y2.7171
X3.4242Y1.6513
X3.4252Y2.8445
X3.4303Y2.0848
X3.4382Y1.4059
X3.4461Y1.4866
X3.448Y1.7543
X3.4559Y2.0848
X3.4598Y0.65
X3.4598Y0.6087
X3.4657Y1.0368
X3.4854Y0.4866
X3.4961Y2.7638
X3.4961Y2.6732
X3.5031Y0.65
X3.5031Y0.6087
X3.5163Y2.2323
X3.5224Y2.5781
X3.5376Y1.274
X3.5524Y0.5772
X3.5602Y0.6913
X3.5642Y1.0364
X3.5709Y2.5998
X3.5717Y2.6994
X3.5809Y0.8508
X3.5937Y1.2748
X3.6114Y0.6205
X3.6114Y0.585
X3.6134Y1.4236
X3.6134Y1.3803
X3.6213Y1.2996
X3.6213Y1.0102
X3.622Y2.7165
X3.622Y2.5098
X3.6232Y0.8783
X3.639Y1.776
X3.6429Y0.6835
X3.6449Y1.3587
X3.6449Y0.4669
X3.6488Y0.6106
X3.6528Y2.6142
X3.6547Y1.5575
X3.6547Y1.4787
X3.6606Y1.2996
X3.6606Y1.0102
X3.6744Y0.7524
X3.6823Y1.3587
X3.698Y1.6106
X3.698Y1.1205
X3.7197Y0.5791
X3.7197Y0.4866
X3.7236Y1.2741
X3.7236Y1.2347
X3.7276Y0.7346
X3.7295Y0.6992
X3.7315Y0.8744
X3.7362Y0.9173
X3.7374Y0.6106
X3.7425Y0.385
X3.7827Y0.4583
T3
X3.3873Y1.0678
X3.4227Y1.1031
X3.458Y1.1385
X3.4934Y1.1738
X3.5287Y1.2092
X3.5641Y1.2446
T5
X2.3114Y3.8071
X2.3756Y3.8071
X2.4441Y3.8071
X2.5082Y3.8071
T6
X3.5039Y3.2717
X3.5039Y2.9724
T7
X0.4185Y0.4091
X0.4185Y0.3091
X0.4185Y0.2091
X0.5185Y0.4091
X0.5185Y0.3091
X0.5185Y0.2091
X0.6185Y0.4091
X0.6185Y0.3091
X0.6185Y0.2091
X0.7185Y0.4091
X0.7185Y0.3091
X0.7185Y0.2091
X0.8185Y0.4091
X0.8185Y0.3091
X0.8185Y0.2091
X0.9185Y0.4091
X0.9185Y0.3091
X0.9185Y0.2091
X1.0185Y0.4091
X1.0185Y0.3091
X1.0185Y0.2091
X1.1185Y0.4091
X1.1185Y0.3091
X1.1185Y0.2091
X1.2185Y0.4091
X1.2185Y0.3091
X1.2185Y0.2091
X1.3185Y0.4091
X1.3185Y0.3091
X1.3185Y0.2091
X1.4185Y0.4091
X1.4185Y0.3091
X1.4185Y0.2091
X1.5185Y0.4091
X1.5185Y0.3091
X1.5185Y0.2091
X1.6185Y0.4091
X1.6185Y0.3091
X1.6185Y0.2091
X1.7185Y0.4091
X1.7185Y0.3091
X1.7185Y0.2091
X1.8185Y0.4091
X1.8185Y0.3091
X1.8185Y0.2091
X1.9185Y0.4091
X1.9185Y0.3091
X1.9185Y0.2091
X2.0185Y0.4091
X2.0185Y0.3091
X2.0185Y0.2091
X2.1185Y0.4091
X2.1185Y0.3091
X2.1185Y0.2091
X2.2185Y0.4091
X2.2185Y0.3091
X2.2185Y0.2091
X2.3185Y0.4091
X2.3185Y0.3091
X2.3185Y0.2091
X2.4185Y0.4091
X2.4185Y0.3091
X2.4185Y0.2091
X2.5185Y0.4091
X2.5185Y0.3091
X2.5185Y0.2091
X2.6185Y0.4091
X2.6185Y0.3091
X2.6185Y0.2091
X2.6572Y3.7598
X2.6572Y3.6598
X2.7185Y0.4091
X2.7185Y0.3091
X2.7185Y0.2091
X2.7572Y3.7598
X2.7572Y3.6598
X2.8185Y0.4091
X2.8185Y0.3091
X2.8185Y0.2091
X2.856Y3.7598
X2.856Y3.6598
X2.9185Y0.4091
X2.9185Y0.3091
X2.9185Y0.2091
X2.956Y3.7598
X2.956Y3.6598
X3.0185Y0.4091
X3.0185Y0.3091
X3.0185Y0.2091
X3.1185Y0.4091
X3.1185Y0.3091
X3.1185Y0.2091
X3.2185Y0.4091
X3.2185Y0.3091
X3.2185Y0.2091
X3.3185Y0.4091
X3.3185Y0.3091
X3.3185Y0.2091
X3.4185Y0.4091
X3.4185Y0.3091
X3.4185Y0.2091
X3.5185Y0.4091
X3.5185Y0.3091
X3.5185Y0.2091
T8
X2.272Y3.7185
X2.5476Y3.7185
T9
X0.3323Y2.752
X0.4823Y0.752
X0.6323Y2.752
X0.6323Y0.752
X0.7823Y0.752
X0.9323Y2.752
X1.4222Y2.7522
X1.5722Y0.7522
X1.7222Y2.7522
X1.7222Y0.7522
X1.8722Y0.7522
X2.0222Y2.7522
T11
X2.4724Y3.1551
X2.4724Y2.0551
X2.6224Y2.0551
X2.7724Y3.1551
X2.7724Y2.0551
X2.9224Y2.0551
X3.0724Y3.1551
X3.0724Y2.0551
T12
X0.3323Y0.752
X0.9323Y0.752
X1.4222Y0.7522
X2.0222Y0.7522
T13
X0.9114Y3.2835
T2
G00X3.085Y3.8159
M15
G01X3.085Y3.8474
M16
G05
G00X3.085Y3.6455
M15
G01X3.085Y3.6888
M16
G05
G00X3.4252Y3.8159
M15
G01X3.4252Y3.8474
M16
G05
G00X3.4252Y3.6455
M15
G01X3.4252Y3.6888
M16
G05
T4
G00X1.9685Y3.7613
M15
G01X1.9685Y3.7849
M16
G05
G00X1.9685Y3.6353
M15
G01X1.9685Y3.659
M16
G05
G00X1.9685Y3.5094
M15
G01X1.9685Y3.533
M16
G05
G00X2.0866Y3.7613
M15
G01X2.0866Y3.7849
M16
G05
G00X2.0866Y3.6353
M15
G01X2.0866Y3.659
M16
G05
G00X2.0866Y3.5094
M15
G01X2.0866Y3.533
M16
G05
T6
G00X1.8839Y3.8755
M15
G01X1.9154Y3.8755
M16
G05
G00X2.1398Y3.4188
M15
G01X2.1713Y3.4188
M16
G05
T10
G00X0.6988Y3.5374
M15
G01X0.6988Y3.8642
M16
G05
G00X0.6988Y3.1437
M15
G01X0.6988Y3.4232
M16
G05
M30
