%TF.GenerationSoftware,KiCad,Pcbnew,9.0.3*%
%TF.CreationDate,2025-10-01T00:39:15+02:00*%
%TF.ProjectId,PSU,5053552e-6b69-4636-9164-5f7063625858,0*%
%TF.SameCoordinates,Original*%
%TF.FileFunction,Profile,NP*%
%FSLAX46Y46*%
G04 Gerber Fmt 4.6, Leading zero omitted, Abs format (unit mm)*
G04 Created by KiCad (PCBNEW 9.0.3) date 2025-10-01 00:39:15*
%MOMM*%
%LPD*%
G01*
G04 APERTURE LIST*
%TA.AperFunction,Profile*%
%ADD10C,0.050000*%
%TD*%
G04 APERTURE END LIST*
D10*
X37019684Y48940127D02*
G75*
G02*
X36499968Y47085829I-519684J-854326D01*
G01*
X50500000Y30585836D02*
G75*
G02*
X50000000Y30085801I-500000J-35D01*
G01*
X47500000Y49085788D02*
G75*
G02*
X48500000Y50085801I1000000J13D01*
G01*
X13000000Y41499951D02*
X13000000Y38207061D01*
X42999999Y61500000D02*
X43000000Y54500001D01*
X36999967Y29085788D02*
G75*
G02*
X35999887Y30085788I-67J1000013D01*
G01*
X25500065Y55414165D02*
G75*
G02*
X25500065Y53414237I35J-999964D01*
G01*
X47500000Y46085788D02*
X47500000Y49085788D01*
X24500044Y39999942D02*
G75*
G02*
X26500044Y39999942I1000000J0D01*
G01*
X7000002Y26999951D02*
X14000000Y26999954D01*
X41999967Y52085787D02*
G75*
G02*
X42999986Y51085787I33J-999986D01*
G01*
X52500011Y40085778D02*
G75*
G02*
X51500011Y39085690I-1000011J-77D01*
G01*
X33999968Y28085788D02*
X33999967Y35085787D01*
X21500044Y36999942D02*
G75*
G02*
X21500044Y38999940I6J999999D01*
G01*
X50500000Y30585836D02*
G75*
G02*
X51000000Y31085801I500000J-35D01*
G01*
X7150000Y96440000D02*
G75*
G02*
X3950000Y96440000I-1600000J0D01*
G01*
X3950000Y96440000D02*
G75*
G02*
X7150000Y96440000I1600000J0D01*
G01*
X54500000Y46085787D02*
G75*
G02*
X52500000Y46085787I-1000000J0D01*
G01*
X36000000Y54500002D02*
X36000000Y59500001D01*
X34999968Y45085786D02*
X37999968Y45085786D01*
X25500065Y55414165D02*
X20500066Y55414165D01*
X46500000Y34085836D02*
X51600000Y34085836D01*
X10999999Y37999950D02*
X10999999Y41499951D01*
X34999966Y37085786D02*
G75*
G02*
X34999966Y39085816I34J1000015D01*
G01*
X40000000Y60500000D02*
G75*
G02*
X40999999Y59500000I0J-999999D01*
G01*
X20500066Y55414165D02*
G75*
G02*
X19500064Y56414165I34J1000036D01*
G01*
X53500033Y60500001D02*
X48500034Y60500001D01*
X52500000Y46085787D02*
X52500000Y49085787D01*
X34400402Y50285461D02*
G75*
G02*
X35441283Y51983203I599598J800340D01*
G01*
X48500033Y55500001D02*
G75*
G02*
X47500000Y56500001I-33J1000000D01*
G01*
X19500033Y45999952D02*
G75*
G02*
X17500033Y45999952I-1000000J-1D01*
G01*
X54500000Y28085836D02*
G75*
G02*
X53500000Y27085801I-1000000J-35D01*
G01*
X17500066Y61414163D02*
X17500069Y54414165D01*
X46500000Y27085836D02*
G75*
G02*
X46500000Y29085766I0J999965D01*
G01*
X15000033Y54414165D02*
G75*
G02*
X13000033Y54414165I-1000000J0D01*
G01*
X18500066Y53414166D02*
X25500065Y53414165D01*
X51500000Y50085787D02*
G75*
G02*
X52500086Y49085787I100J-999986D01*
G01*
X53500033Y62500001D02*
G75*
G02*
X53500033Y60500001I-33J-1000000D01*
G01*
X42999966Y38292898D02*
G75*
G02*
X41000034Y38292897I-999966J3D01*
G01*
X34000001Y61500001D02*
X34000000Y54500002D01*
X21500044Y36999942D02*
X24500044Y36999942D01*
X37499968Y40085787D02*
G75*
G02*
X36499966Y39085833I-999968J14D01*
G01*
X23500033Y31000000D02*
X23000034Y31000000D01*
X38999966Y38085786D02*
X38999966Y41585787D01*
X8000000Y34999951D02*
X8000000Y29999952D01*
X17500034Y50999952D02*
X17500033Y45999952D01*
X51600000Y34085836D02*
G75*
G02*
X51600000Y32085766I0J-1000035D01*
G01*
X9019717Y48854291D02*
X6400438Y50199624D01*
X47500011Y38085778D02*
X47500011Y41085778D01*
X8000033Y54414166D02*
X8000033Y59414165D01*
X19500044Y37999942D02*
X19500044Y40999942D01*
X22500033Y30500000D02*
G75*
G02*
X22000033Y30000068I-499933J1D01*
G01*
X43000000Y54500001D02*
G75*
G02*
X41000000Y54500001I-1000000J0D01*
G01*
X17500045Y42999942D02*
G75*
G02*
X18500044Y43999956I1000055J-41D01*
G01*
X13000033Y54414165D02*
X13000033Y59414164D01*
X11768974Y54768925D02*
G75*
G02*
X9231026Y54768925I-1268974J0D01*
G01*
X9231026Y54768925D02*
G75*
G02*
X11768974Y54768925I1268974J0D01*
G01*
X46500000Y27085836D02*
X53500000Y27085836D01*
X36499966Y39085786D02*
X34999966Y39085786D01*
X9500001Y39999951D02*
G75*
G02*
X8499999Y39000000I-1000001J50D01*
G01*
X6000001Y27999952D02*
X6000000Y34999951D01*
X10999999Y37999950D02*
G75*
G02*
X9999999Y36999902I-999999J-49D01*
G01*
X15000000Y46207062D02*
X15000000Y50999951D01*
X49500011Y37085778D02*
G75*
G02*
X49500011Y39085824I-11J1000023D01*
G01*
X47500034Y59500001D02*
G75*
G02*
X48500034Y60499967I999966J0D01*
G01*
X6000034Y61414165D02*
X6000033Y54414166D01*
X45500012Y43085778D02*
X45500011Y38085778D01*
X45500001Y51085788D02*
X45500000Y46085788D01*
X19500033Y45999952D02*
X19500033Y48999952D01*
X6999999Y36999950D02*
G75*
G02*
X6999999Y38999952I1J1000001D01*
G01*
X14000031Y62414164D02*
G75*
G02*
X14999963Y61414164I-31J-999963D01*
G01*
X53499998Y52085788D02*
X46500000Y52085785D01*
X8500000Y46999950D02*
X7000000Y46999950D01*
X39768941Y54854761D02*
G75*
G02*
X37230993Y54854761I-1268974J0D01*
G01*
X37230993Y54854761D02*
G75*
G02*
X39768941Y54854761I1268974J0D01*
G01*
X54499999Y51085787D02*
X54500000Y46085787D01*
X42999966Y38292898D02*
X42999966Y43085787D01*
X17500034Y50999952D02*
G75*
G02*
X18500033Y51999967I999966J49D01*
G01*
X12000000Y28999953D02*
X9000001Y28999952D01*
X17500045Y42999942D02*
X17500044Y37999942D01*
X46500033Y53500002D02*
G75*
G02*
X45500001Y54500001I-33J999999D01*
G01*
X45500033Y61499999D02*
X45500036Y54500001D01*
X36499966Y42085787D02*
X34999966Y42085787D01*
X9000000Y28999952D02*
G75*
G02*
X8000051Y29999952I0J999949D01*
G01*
X53500009Y44085779D02*
G75*
G02*
X53500009Y42085823I-9J-999978D01*
G01*
X7000001Y44999950D02*
X10000001Y44999950D01*
X37019684Y48940127D02*
X34400405Y50285460D01*
X41999998Y62500000D02*
G75*
G02*
X42999999Y61500000I2J-999999D01*
G01*
X21500044Y38999942D02*
X23500043Y38999942D01*
X7441291Y51897315D02*
X9385482Y50914096D01*
X46500000Y36085836D02*
X53492894Y36078728D01*
X8499999Y38999950D02*
X6999999Y38999950D01*
X8000033Y54414166D02*
G75*
G02*
X6000033Y54414166I-1000000J-1D01*
G01*
X47500035Y56500001D02*
X47500034Y59500000D01*
X19500067Y59414165D02*
G75*
G02*
X20500067Y60414234I1000033J36D01*
G01*
X38999967Y41585787D02*
G75*
G02*
X40999967Y41585787I1000000J0D01*
G01*
X19500033Y48999952D02*
G75*
G02*
X20500033Y49999968I999967J49D01*
G01*
X53500032Y55500001D02*
G75*
G02*
X53500032Y53500001I-32J-1000000D01*
G01*
X54500011Y38085778D02*
G75*
G02*
X53500011Y37085690I-1000011J-77D01*
G01*
X18503586Y32003554D02*
X23600033Y31996714D01*
X18500033Y29000000D02*
X23500033Y29000000D01*
X19500044Y40999942D02*
G75*
G02*
X20500044Y41999957I1000056J-41D01*
G01*
X20500033Y49999950D02*
X23500032Y49999951D01*
X33999967Y35085787D02*
G75*
G02*
X35999967Y35085787I1000000J0D01*
G01*
X18500033Y30000000D02*
G75*
G02*
X18500033Y32000002I-33J1000001D01*
G01*
X54500000Y28085836D02*
X54500000Y35078730D01*
X11769007Y34645191D02*
G75*
G02*
X9231059Y34645191I-1268974J0D01*
G01*
X9231059Y34645191D02*
G75*
G02*
X11769007Y34645191I1268974J0D01*
G01*
X38999966Y38085786D02*
G75*
G02*
X37999966Y37085835I-999966J15D01*
G01*
X26500044Y37999942D02*
G75*
G02*
X25500044Y36999957I-999944J-41D01*
G01*
X14999999Y38207062D02*
G75*
G02*
X13000001Y38207061I-999999J-11D01*
G01*
X40999967Y35085786D02*
X40999967Y30085787D01*
X40999967Y35085786D02*
G75*
G02*
X42999967Y35085786I1000000J1D01*
G01*
X39768974Y34731027D02*
G75*
G02*
X37231026Y34731027I-1268974J0D01*
G01*
X37231026Y34731027D02*
G75*
G02*
X39768974Y34731027I1268974J0D01*
G01*
X34000001Y61500001D02*
G75*
G02*
X35000000Y62500000I999999J0D01*
G01*
X41999966Y44085787D02*
G75*
G02*
X42999986Y43085787I34J-999986D01*
G01*
X35999967Y35085787D02*
X35999967Y30085788D01*
X23500033Y31000000D02*
G75*
G02*
X23500033Y29000002I-33J-999999D01*
G01*
X49500011Y37085778D02*
X52500011Y37085778D01*
X37499968Y40085787D02*
X37499967Y41085787D01*
X38999967Y46085786D02*
G75*
G02*
X37999967Y45085834I-999967J15D01*
G01*
X14000000Y51999951D02*
G75*
G02*
X14999950Y50999951I0J-999950D01*
G01*
X34999967Y45085786D02*
G75*
G02*
X34999967Y47085816I33J1000015D01*
G01*
X25500042Y43999942D02*
X18500044Y43999939D01*
X41999998Y62500001D02*
X35000000Y62499998D01*
X53492894Y36078729D02*
G75*
G02*
X54492928Y35078730I6J-1000028D01*
G01*
X26500032Y50999951D02*
X26500033Y45999951D01*
X25500031Y51999951D02*
G75*
G02*
X26500050Y50999951I69J-999950D01*
G01*
X25500042Y43999943D02*
G75*
G02*
X25500042Y41999939I8J-1000002D01*
G01*
X11000001Y51999949D02*
X14000000Y51999949D01*
X23600033Y34000000D02*
G75*
G02*
X23600033Y32000002I-33J-999999D01*
G01*
X20500044Y41999940D02*
X25500042Y41999940D01*
X18500033Y27000000D02*
G75*
G02*
X18500033Y29000002I-33J1000001D01*
G01*
X13000001Y48914165D02*
X13000001Y46207061D01*
X11000000Y45999950D02*
X11000000Y48914165D01*
X6999999Y43999951D02*
X13999999Y43999951D01*
X8000033Y59414165D02*
G75*
G02*
X9000033Y60414168I999967J36D01*
G01*
X11000000Y45999950D02*
G75*
G02*
X10000000Y44999901I-1000000J-49D01*
G01*
X46500000Y34085836D02*
G75*
G02*
X46500000Y36085766I0J999965D01*
G01*
X18500033Y34000000D02*
X23600033Y34000000D01*
X42999966Y28085787D02*
X42999967Y35085786D01*
X7000000Y36999950D02*
X10000000Y36999950D01*
X38041528Y51371075D02*
G75*
G02*
X38999968Y52085826I958472J-285274D01*
G01*
X22000033Y30000000D02*
X18500033Y30000000D01*
X26500033Y45999951D02*
G75*
G02*
X24500033Y45999951I-1000000J0D01*
G01*
X34999966Y42085787D02*
G75*
G02*
X34999966Y44085815I34J1000014D01*
G01*
X14999999Y27999951D02*
G75*
G02*
X14000000Y27000002I-999999J50D01*
G01*
X45500012Y43085778D02*
G75*
G02*
X46500011Y44085689I999988J-77D01*
G01*
X48500011Y42085776D02*
X53500009Y42085776D01*
X36499967Y47085786D02*
X34999967Y47085786D01*
X26500033Y28000000D02*
G75*
G02*
X25500033Y27000068I-999933J1D01*
G01*
X19500068Y56414165D02*
X19500067Y59414164D01*
X42999967Y46292898D02*
X42999967Y51085787D01*
X24500044Y36999942D02*
X25500044Y36999942D01*
X54414247Y57999968D02*
G75*
G02*
X51876299Y57999968I-1268974J0D01*
G01*
X51876299Y57999968D02*
G75*
G02*
X54414247Y57999968I1268974J0D01*
G01*
X9019717Y48854291D02*
G75*
G02*
X8500001Y46999950I-519717J-854340D01*
G01*
X40999967Y41585787D02*
X40999967Y38292897D01*
X54500011Y40085778D02*
X54500011Y38085778D01*
X24500044Y39999942D02*
G75*
G02*
X23500044Y38999957I-999944J-41D01*
G01*
X47500000Y46085788D02*
G75*
G02*
X45500000Y46085788I-1000000J-1D01*
G01*
X18500066Y53414166D02*
G75*
G02*
X17500065Y54414165I34J1000035D01*
G01*
X18500033Y36000000D02*
X25492927Y35992892D01*
X49500011Y39085778D02*
X51500010Y39085778D01*
X52500011Y40085778D02*
G75*
G02*
X54500011Y40085778I1000000J0D01*
G01*
X8499999Y41999951D02*
X6999999Y41999951D01*
X9500001Y39999951D02*
X9500000Y40999951D01*
X38041528Y51371074D02*
G75*
G02*
X37385442Y50999910I-500028J118427D01*
G01*
X14999999Y27999951D02*
X15000000Y34999950D01*
X46500000Y30085836D02*
G75*
G02*
X46500000Y32085766I0J999965D01*
G01*
X13000000Y29999951D02*
G75*
G02*
X12000000Y29000001I-1000000J50D01*
G01*
X19500044Y37999942D02*
G75*
G02*
X17500044Y37999942I-1000000J0D01*
G01*
X12000033Y60414164D02*
G75*
G02*
X13000063Y59414164I67J-999963D01*
G01*
X46500034Y62500000D02*
X53500033Y62500001D01*
X38999968Y49000001D02*
G75*
G02*
X40999968Y49000001I1000000J0D01*
G01*
X11000001Y48914165D02*
G75*
G02*
X13000001Y48914165I1000000J0D01*
G01*
X11000000Y41499951D02*
G75*
G02*
X13000000Y41499951I1000000J0D01*
G01*
X51500000Y31085836D02*
X51000001Y31085836D01*
X36499966Y42085789D02*
G75*
G02*
X37499988Y41085787I34J-999988D01*
G01*
X15000032Y61414164D02*
X15000033Y54414165D01*
X40999967Y30085787D02*
G75*
G02*
X39999967Y29085834I-999967J14D01*
G01*
X35441258Y51983151D02*
X37385449Y50999932D01*
X25500031Y51999952D02*
X18500033Y51999949D01*
X53500009Y44085778D02*
X46500011Y44085775D01*
X52500011Y37085778D02*
X53500011Y37085778D01*
X96050000Y96440000D02*
G75*
G02*
X92850000Y96440000I-1600000J0D01*
G01*
X92850000Y96440000D02*
G75*
G02*
X96050000Y96440000I1600000J0D01*
G01*
X24500033Y45999951D02*
X24500033Y48999951D01*
X15000000Y46207062D02*
G75*
G02*
X13000000Y46207061I-1000000J-11D01*
G01*
X23500033Y49999951D02*
G75*
G02*
X24500050Y48999951I67J-999950D01*
G01*
X10041561Y51285238D02*
G75*
G02*
X9385487Y50914112I-499961J118363D01*
G01*
X26414280Y57914132D02*
G75*
G02*
X23876332Y57914132I-1268974J0D01*
G01*
X23876332Y57914132D02*
G75*
G02*
X26414280Y57914132I1268974J0D01*
G01*
X22500033Y30500000D02*
G75*
G02*
X23000033Y31000068I500067J1D01*
G01*
X6400435Y50199625D02*
G75*
G02*
X7441291Y51897315I599565J800326D01*
G01*
X38999968Y52085785D02*
X41999967Y52085785D01*
X42999966Y28085787D02*
G75*
G02*
X41999967Y27085835I-999966J14D01*
G01*
X14999999Y38207062D02*
X14999999Y42999951D01*
X47500011Y38085778D02*
G75*
G02*
X45500011Y38085778I-1000000J0D01*
G01*
X0Y100000000D02*
X100000000Y100000000D01*
X100000000Y0D01*
X0Y0D01*
X0Y100000000D01*
X39999967Y29085789D02*
X36999968Y29085788D01*
X53500032Y55500001D02*
X48500033Y55500001D01*
X6000034Y61414165D02*
G75*
G02*
X7000033Y62414167I999966J36D01*
G01*
X40999968Y49000001D02*
X40999968Y46292897D01*
X46500033Y53500002D02*
X53500032Y53500001D01*
X6999999Y41999951D02*
G75*
G02*
X6999999Y43999951I1J1000000D01*
G01*
X26500044Y39999942D02*
X26500044Y37999942D01*
X46500000Y29085836D02*
X51500000Y29085836D01*
X48500000Y50085786D02*
X51499999Y50085787D01*
X37000000Y60499999D02*
X39999999Y60500000D01*
X36000000Y59500001D02*
G75*
G02*
X37000000Y60500001I1000000J0D01*
G01*
X53499998Y52085787D02*
G75*
G02*
X54500086Y51085787I102J-999986D01*
G01*
X6000000Y34999951D02*
G75*
G02*
X8000000Y34999951I1000000J0D01*
G01*
X25500066Y62414165D02*
G75*
G02*
X25500066Y60414237I34J-999964D01*
G01*
X46503553Y32089390D02*
X51600000Y32082550D01*
X25492927Y35992893D02*
G75*
G02*
X26492892Y34992894I-27J-999992D01*
G01*
X45500034Y61499999D02*
G75*
G02*
X46500034Y62499967I999966J2D01*
G01*
X41000000Y54500001D02*
X41000000Y59500000D01*
X47500011Y41085778D02*
G75*
G02*
X48500011Y42085790I999989J23D01*
G01*
X9000033Y60414163D02*
X12000032Y60414164D01*
X34999966Y44085787D02*
X41999966Y44085787D01*
X34999967Y37085786D02*
X37999967Y37085786D01*
X45500001Y51085788D02*
G75*
G02*
X46500000Y52085800I999999J13D01*
G01*
X36000000Y54500002D02*
G75*
G02*
X34000000Y54500002I-1000000J-1D01*
G01*
X38999967Y46085786D02*
X38999967Y49000001D01*
X26500033Y28000000D02*
X26500033Y34992894D01*
X13000000Y34999950D02*
G75*
G02*
X15000000Y34999950I1000000J1D01*
G01*
X7000000Y44999950D02*
G75*
G02*
X7000000Y46999952I0J1000001D01*
G01*
X10041561Y51285239D02*
G75*
G02*
X11000001Y51999984I958439J-285238D01*
G01*
X13000000Y34999950D02*
X13000000Y29999951D01*
X42999967Y46292898D02*
G75*
G02*
X41000033Y46292897I-999967J3D01*
G01*
X34999969Y27085787D02*
X41999967Y27085790D01*
X25500066Y60414165D02*
X20500067Y60414165D01*
X14000031Y62414165D02*
X7000033Y62414162D01*
X51500000Y31085836D02*
G75*
G02*
X51500000Y29085766I0J-1000035D01*
G01*
X34999969Y27085788D02*
G75*
G02*
X33999987Y28085788I31J1000013D01*
G01*
X13999999Y43999951D02*
G75*
G02*
X14999950Y42999951I1J-999950D01*
G01*
X18500033Y27000000D02*
X25500033Y27000000D01*
X7000002Y26999952D02*
G75*
G02*
X5999951Y27999952I-2J1000049D01*
G01*
X18500033Y34000000D02*
G75*
G02*
X18500033Y36000002I-33J1000001D01*
G01*
X50000000Y30085836D02*
X46500000Y30085836D01*
X18500067Y62414164D02*
X25500066Y62414165D01*
X17500067Y61414163D02*
G75*
G02*
X18500067Y62414234I1000033J38D01*
G01*
X8499999Y41999953D02*
G75*
G02*
X9499952Y40999951I1J-999952D01*
G01*
M02*
