%TF.GenerationSoftware,KiCad,Pcbnew,9.0.3*%
%TF.CreationDate,2025-10-01T00:39:15+02:00*%
%TF.ProjectId,PSU,5053552e-6b69-4636-9164-5f7063625858,0*%
%TF.SameCoordinates,Original*%
%TF.FileFunction,Soldermask,Bot*%
%TF.FilePolarity,Negative*%
%FSLAX46Y46*%
G04 Gerber Fmt 4.6, Leading zero omitted, Abs format (unit mm)*
G04 Created by KiCad (PCBNEW 9.0.3) date 2025-10-01 00:39:15*
%MOMM*%
%LPD*%
G01*
G04 APERTURE LIST*
G04 Aperture macros list*
%AMRoundRect*
0 Rectangle with rounded corners*
0 $1 Rounding radius*
0 $2 $3 $4 $5 $6 $7 $8 $9 X,Y pos of 4 corners*
0 Add a 4 corners polygon primitive as box body*
4,1,4,$2,$3,$4,$5,$6,$7,$8,$9,$2,$3,0*
0 Add four circle primitives for the rounded corners*
1,1,$1+$1,$2,$3*
1,1,$1+$1,$4,$5*
1,1,$1+$1,$6,$7*
1,1,$1+$1,$8,$9*
0 Add four rect primitives between the rounded corners*
20,1,$1+$1,$2,$3,$4,$5,0*
20,1,$1+$1,$4,$5,$6,$7,0*
20,1,$1+$1,$6,$7,$8,$9,0*
20,1,$1+$1,$8,$9,$2,$3,0*%
%AMRotRect*
0 Rectangle, with rotation*
0 The origin of the aperture is its center*
0 $1 length*
0 $2 width*
0 $3 Rotation angle, in degrees counterclockwise*
0 Add horizontal line*
21,1,$1,$2,0,0,$3*%
G04 Aperture macros list end*
%ADD10C,1.000000*%
%ADD11C,0.700000*%
%ADD12C,0.500000*%
%ADD13C,1.300000*%
%ADD14C,1.600000*%
%ADD15C,2.400000*%
%ADD16C,2.910000*%
%ADD17O,1.400000X2.000000*%
%ADD18O,2.500000X1.600000*%
%ADD19C,2.780000*%
%ADD20C,0.650000*%
%ADD21O,1.000000X2.100000*%
%ADD22O,1.000000X1.800000*%
%ADD23C,2.850000*%
%ADD24RoundRect,0.249999X0.525001X0.525001X-0.525001X0.525001X-0.525001X-0.525001X0.525001X-0.525001X0*%
%ADD25C,1.550000*%
%ADD26C,1.800000*%
%ADD27RoundRect,0.495000X1.155000X-4.255000X1.155000X4.255000X-1.155000X4.255000X-1.155000X-4.255000X0*%
%ADD28RoundRect,0.505697X1.179959X-4.794303X1.179959X4.794303X-1.179959X4.794303X-1.179959X-4.794303X0*%
%ADD29C,2.286000*%
%ADD30RotRect,1.000000X1.000000X315.000000*%
%ADD31C,1.000000*%
G04 APERTURE END LIST*
D10*
X49250000Y16750000D02*
X49250000Y12250000D01*
X51250000Y16750000D02*
X51250000Y12250000D01*
D11*
%TO.C,J400*%
X21050000Y81200000D02*
X21850000Y82000000D01*
X21215685Y83400000D02*
X20084315Y83400000D01*
X21850000Y84800000D02*
X21050000Y85600000D01*
X23150000Y86465685D02*
X23150000Y85334315D01*
X23150000Y81465685D02*
X23150000Y80334315D01*
X25084315Y83500000D02*
X26215685Y83500000D01*
X25350000Y85600000D02*
X24550000Y84800000D01*
X25350000Y81300000D02*
X24550000Y82100000D01*
D12*
X24988478Y83400000D02*
G75*
G02*
X21311522Y83400000I-1838478J0D01*
G01*
X21311522Y83400000D02*
G75*
G02*
X24988478Y83400000I1838478J0D01*
G01*
%TD*%
D13*
%TO.C,*%
X5530000Y9710000D03*
%TD*%
%TO.C,*%
X7110000Y92920000D03*
%TD*%
%TO.C,REF\u002A\u002A*%
X92050000Y93220000D03*
%TD*%
D14*
%TO.C,LED300*%
X67493600Y95500001D03*
X70033600Y95500001D03*
X67493600Y92960001D03*
X70033600Y92960001D03*
%TD*%
D15*
%TO.C,IC402*%
X23680000Y69900000D03*
X16060000Y69900000D03*
X8440000Y69900000D03*
D16*
X8440000Y19100000D03*
D15*
X12250000Y19100000D03*
X16060000Y19100000D03*
X19870000Y19100000D03*
D16*
X23680000Y19100000D03*
%TD*%
D17*
%TO.C,SW401*%
X50000000Y89437500D03*
X50000000Y92637500D03*
X50000000Y95837500D03*
X53000000Y89437500D03*
X53000000Y92637500D03*
X53000000Y95837500D03*
D18*
X54750000Y86837500D03*
X48250000Y98437500D03*
%TD*%
D15*
%TO.C,IC405*%
X51365000Y69905000D03*
X43745000Y69905000D03*
X36125000Y69905000D03*
D16*
X36125000Y19105000D03*
D15*
X39935000Y19105000D03*
X43745000Y19105000D03*
X47555000Y19105000D03*
D16*
X51365000Y19105000D03*
%TD*%
D19*
%TO.C,IC406*%
X78040000Y80140000D03*
X70420000Y80140000D03*
X62800000Y80140000D03*
X62800000Y52200000D03*
X66610000Y52200000D03*
X70420000Y52200000D03*
X74230000Y52200000D03*
X78040000Y52200000D03*
%TD*%
D20*
%TO.C,J800*%
X85570000Y93645001D03*
X79790000Y93645001D03*
D21*
X87000000Y93145001D03*
D22*
X87000000Y97325001D03*
D21*
X78360000Y93145001D03*
D22*
X78360000Y97325001D03*
%TD*%
D23*
%TO.C,J200*%
X94450000Y2770001D03*
X5550000Y2770001D03*
D24*
X89370000Y5310001D03*
D25*
X86830000Y5310001D03*
X84290000Y5310001D03*
X81750000Y5310001D03*
X79210000Y5310001D03*
X76670000Y5310001D03*
X74130000Y5310001D03*
X71590000Y5310001D03*
X69050000Y5310001D03*
X66510000Y5310001D03*
X63970000Y5310001D03*
X61430000Y5310001D03*
X58890000Y5310001D03*
X56350000Y5310001D03*
X53810000Y5310001D03*
X51270000Y5310001D03*
X48730000Y5310001D03*
X46190000Y5310001D03*
X43650000Y5310001D03*
X41110000Y5310001D03*
X38570000Y5310001D03*
X36030000Y5310001D03*
X33490000Y5310001D03*
X30950000Y5310001D03*
X28410000Y5310001D03*
X25870000Y5310001D03*
X23330000Y5310001D03*
X20790000Y5310001D03*
X18250000Y5310001D03*
X15710000Y5310001D03*
X13170000Y5310001D03*
X10630000Y5310001D03*
X89370000Y7850001D03*
X86830000Y7850001D03*
X84290000Y7850001D03*
X81750000Y7850001D03*
X79210000Y7850001D03*
X76670000Y7850001D03*
X74130000Y7850001D03*
X71590000Y7850001D03*
X69050000Y7850001D03*
X66510000Y7850001D03*
X63970000Y7850001D03*
X61430000Y7850001D03*
X58890000Y7850001D03*
X56350000Y7850001D03*
X53810000Y7850001D03*
X51270000Y7850001D03*
X48730000Y7850001D03*
X46190000Y7850001D03*
X43650000Y7850001D03*
X41110000Y7850001D03*
X38570000Y7850001D03*
X36030000Y7850001D03*
X33490000Y7850001D03*
X30950000Y7850001D03*
X28410000Y7850001D03*
X25870000Y7850001D03*
X23330000Y7850001D03*
X20790000Y7850001D03*
X18250000Y7850001D03*
X15710000Y7850001D03*
X13170000Y7850001D03*
X10630000Y7850001D03*
X89370000Y10390001D03*
X86830000Y10390001D03*
X84290000Y10390001D03*
X81750000Y10390001D03*
X79210000Y10390001D03*
X76670000Y10390001D03*
X74130000Y10390001D03*
X71590000Y10390001D03*
X69050000Y10390001D03*
X66510000Y10390001D03*
X63970000Y10390001D03*
X61430000Y10390001D03*
X58890000Y10390001D03*
X56350000Y10390001D03*
X53810000Y10390001D03*
X51270000Y10390001D03*
X48730000Y10390001D03*
X46190000Y10390001D03*
X43650000Y10390001D03*
X41110000Y10390001D03*
X38570000Y10390001D03*
X36030000Y10390001D03*
X33490000Y10390001D03*
X30950000Y10390001D03*
X28410000Y10390001D03*
X25870000Y10390001D03*
X23330000Y10390001D03*
X20790000Y10390001D03*
X18250000Y10390001D03*
X15710000Y10390001D03*
X13170000Y10390001D03*
X10630000Y10390001D03*
%TD*%
D26*
%TO.C,BZ401*%
X89000000Y75500000D03*
X89000000Y83100000D03*
%TD*%
D27*
%TO.C,J400*%
X17700000Y83350000D03*
D28*
X17735656Y94100000D03*
%TD*%
D13*
%TO.C,BTN400*%
X63709415Y96700838D03*
X62079415Y96700838D03*
X60339415Y96700838D03*
X58709415Y96700838D03*
D29*
X64709415Y94450838D03*
X57709415Y94450838D03*
%TD*%
D14*
%TO.C,LED301*%
X72543600Y95500001D03*
X75083600Y95500001D03*
X72543600Y92960001D03*
X75083600Y92960001D03*
%TD*%
D30*
%TO.C,J401*%
X86037520Y27121458D03*
D31*
X86935546Y28019484D03*
X87833571Y28917509D03*
X88731597Y29815535D03*
X89629622Y30713560D03*
X90527648Y31611586D03*
%TD*%
M02*
